%FSLAX43Y43*%
%MOMM*%
G71*
G01*
G75*
%ADD10C,0.300*%
%ADD11C,0.200*%
%ADD12C,0.500*%
%ADD13R,0.800X1.200*%
%ADD14R,0.700X1.100*%
%ADD15R,0.825X2.000*%
%ADD16R,2.200X2.500*%
%ADD17R,1.800X0.800*%
%ADD18R,1.800X1.200*%
%ADD19R,1.600X1.100*%
%ADD20R,1.100X1.600*%
%ADD21R,1.000X0.400*%
%ADD22O,0.200X0.400*%
%ADD23O,0.400X0.200*%
%ADD24C,1.000*%
%ADD25R,1.600X0.200*%
%ADD26R,0.200X1.600*%
%ADD27R,2.300X0.400*%
%ADD28R,3.250X0.700*%
%ADD29R,2.000X0.500*%
%ADD30R,0.500X1.700*%
%ADD31R,0.500X1.700*%
%ADD32R,0.350X1.800*%
%ADD33R,1.100X0.700*%
%ADD34R,1.200X1.800*%
%ADD35R,2.600X2.600*%
%ADD36R,0.500X2.200*%
%ADD37R,1.500X2.900*%
%ADD38R,2.900X1.500*%
%ADD39R,1.500X2.900*%
%ADD40R,2.900X1.500*%
%ADD41R,0.350X1.600*%
%ADD42R,2.270X0.550*%
%ADD43R,1.400X0.900*%
%ADD44R,0.600X1.550*%
%ADD45R,1.200X0.220*%
%ADD46R,0.400X2.300*%
%ADD47R,1.220X0.620*%
%ADD48R,1.000X0.450*%
%ADD49R,1.600X0.300*%
%ADD50R,1.400X1.000*%
%ADD51R,1.800X0.500*%
%ADD52C,0.200*%
%ADD53C,0.300*%
%ADD54C,0.400*%
%ADD55C,0.254*%
%ADD56C,1.500*%
%ADD57C,1.000*%
%ADD58O,2.500X1.800*%
%ADD59C,1.800*%
%ADD60R,2.500X3.000*%
%ADD61C,3.200*%
%ADD62C,1.270*%
%ADD63C,1.500*%
%ADD64C,2.000*%
%ADD65O,1.800X2.500*%
%ADD66C,1.600*%
%ADD67C,1.300*%
%ADD68C,0.500*%
%ADD69C,0.750*%
%ADD70C,0.210*%
%ADD71C,0.180*%
%ADD72C,0.250*%
%ADD73C,0.150*%
%ADD74R,16.750X1.000*%
%ADD75R,16.750X1.000*%
%ADD76R,3.500X2.500*%
%ADD77R,1.800X1.800*%
%ADD78R,1.000X1.400*%
%ADD79R,0.900X1.300*%
%ADD80R,1.025X2.200*%
%ADD81R,2.400X2.700*%
%ADD82R,2.000X1.000*%
%ADD83R,2.000X1.400*%
%ADD84R,1.800X1.300*%
%ADD85R,1.300X1.800*%
%ADD86R,1.200X0.600*%
%ADD87O,0.400X0.600*%
%ADD88O,0.600X0.400*%
%ADD89C,1.200*%
%ADD90R,1.800X0.400*%
%ADD91R,0.400X1.800*%
%ADD92R,2.500X0.600*%
%ADD93R,3.450X0.900*%
%ADD94R,2.200X0.700*%
%ADD95R,0.700X1.900*%
%ADD96R,0.700X1.900*%
%ADD97R,0.550X2.000*%
%ADD98R,1.300X0.900*%
%ADD99R,1.400X2.000*%
%ADD100R,2.800X2.800*%
%ADD101R,0.700X2.400*%
%ADD102R,1.700X3.100*%
%ADD103R,3.100X1.700*%
%ADD104R,1.700X3.100*%
%ADD105R,3.100X1.700*%
%ADD106R,0.550X1.800*%
%ADD107R,2.470X0.750*%
%ADD108R,0.800X1.750*%
%ADD109R,1.400X0.420*%
%ADD110R,0.600X2.500*%
%ADD111R,1.420X0.820*%
%ADD112R,1.200X0.650*%
%ADD113R,1.600X1.200*%
%ADD114R,2.000X0.700*%
%ADD115O,2.700X2.000*%
%ADD116C,2.000*%
%ADD117R,2.700X3.200*%
%ADD118C,3.400*%
%ADD119C,1.470*%
%ADD120C,1.700*%
%ADD121C,2.200*%
%ADD122O,2.000X2.700*%
%ADD123C,0.700*%
%ADD124R,16.750X1.000*%
%ADD125R,16.750X1.000*%
%ADD126C,2.000*%
%ADD127C,3.000*%
%ADD128R,6.000X4.000*%
%ADD129R,9.700X36.100*%
%ADD130R,14.800X25.400*%
%ADD131R,18.200X23.300*%
%ADD132R,7.800X14.700*%
%ADD133R,2.500X2.600*%
%ADD134R,3.400X2.400*%
%ADD135C,2.100*%
%ADD136C,2.300*%
%ADD137C,2.500*%
%ADD138C,2.800*%
%ADD139C,3.600*%
%ADD140C,1.950*%
%ADD141C,3.800*%
%ADD142C,1.900*%
%ADD143C,1.700*%
%ADD144C,1.800*%
%ADD145R,18.200X23.300*%
D12*
X495443Y522745D02*
X495184Y522711D01*
X494943Y522611D01*
X494736Y522452D01*
X494577Y522245D01*
X494477Y522004D01*
X494443Y521745D01*
X533443D02*
X533409Y522004D01*
X533309Y522245D01*
X533150Y522452D01*
X532943Y522611D01*
X532702Y522711D01*
X532443Y522745D01*
X570443Y578745D02*
X570450Y578492D01*
X570469Y578239D01*
X570501Y577988D01*
X570545Y577738D01*
X570603Y577492D01*
X570672Y577248D01*
X570754Y577008D01*
X570848Y576773D01*
X570954Y576543D01*
X571071Y576318D01*
X571200Y576100D01*
X571339Y575889D01*
X571489Y575684D01*
X571649Y575488D01*
X571819Y575300D01*
X571998Y575121D01*
X572186Y574951D01*
X572383Y574791D01*
X572587Y574641D01*
X572798Y574502D01*
X573017Y574373D01*
X573241Y574256D01*
X573471Y574150D01*
X573707Y574056D01*
X573946Y573974D01*
X574190Y573905D01*
X574437Y573847D01*
X574686Y573803D01*
X574937Y573771D01*
X575190Y573751D01*
X575443Y573745D01*
Y535745D02*
X575190Y535739D01*
X574937Y535719D01*
X574686Y535687D01*
X574437Y535643D01*
X574190Y535585D01*
X573946Y535516D01*
X573707Y535434D01*
X573471Y535340D01*
X573241Y535234D01*
X573017Y535117D01*
X572798Y534988D01*
X572587Y534849D01*
X572383Y534699D01*
X572186Y534539D01*
X571998Y534369D01*
X571819Y534190D01*
X571649Y534002D01*
X571489Y533805D01*
X571339Y533601D01*
X571200Y533390D01*
X571071Y533171D01*
X570954Y532947D01*
X570848Y532717D01*
X570754Y532481D01*
X570672Y532242D01*
X570603Y531998D01*
X570545Y531751D01*
X570501Y531502D01*
X570469Y531251D01*
X570450Y530998D01*
X570443Y530745D01*
X464443Y524745D02*
X464437Y524998D01*
X464417Y525251D01*
X464385Y525502D01*
X464341Y525751D01*
X464284Y525998D01*
X464214Y526242D01*
X464132Y526481D01*
X464038Y526717D01*
X463932Y526947D01*
X463815Y527171D01*
X463686Y527390D01*
X463547Y527601D01*
X463397Y527805D01*
X463237Y528002D01*
X463067Y528190D01*
X462888Y528369D01*
X462700Y528539D01*
X462504Y528699D01*
X462299Y528849D01*
X462088Y528988D01*
X461870Y529117D01*
X461645Y529234D01*
X461415Y529340D01*
X461180Y529434D01*
X460940Y529516D01*
X460696Y529585D01*
X460450Y529643D01*
X460200Y529687D01*
X459949Y529719D01*
X459696Y529739D01*
X459443Y529745D01*
Y579745D02*
X459696Y579751D01*
X459949Y579771D01*
X460200Y579803D01*
X460450Y579847D01*
X460696Y579905D01*
X460940Y579974D01*
X461180Y580056D01*
X461415Y580150D01*
X461645Y580256D01*
X461870Y580373D01*
X462088Y580502D01*
X462299Y580641D01*
X462504Y580791D01*
X462700Y580951D01*
X462888Y581121D01*
X463067Y581300D01*
X463237Y581488D01*
X463397Y581684D01*
X463547Y581889D01*
X463686Y582100D01*
X463815Y582318D01*
X463932Y582543D01*
X464038Y582773D01*
X464132Y583008D01*
X464214Y583248D01*
X464284Y583492D01*
X464341Y583738D01*
X464385Y583988D01*
X464417Y584239D01*
X464437Y584492D01*
X464443Y584745D01*
Y521745D02*
X494443D01*
X495443Y522745D02*
X532443D01*
X533443Y521745D02*
X570443D01*
X464443Y587745D02*
X570443D01*
X570443Y578745D01*
X575443Y573745D02*
X578443D01*
X570443Y521745D02*
X570443Y530745D01*
X575443Y535745D02*
X578443D01*
X464443Y521745D02*
X464443Y524745D01*
X464443Y587745D02*
X464443Y584745D01*
X448443Y529745D02*
X459443D01*
X448443Y579745D02*
X459443D01*
X448443Y529745D02*
Y579745D01*
X578443Y535745D02*
Y573745D01*
M02*
