M71
M48
T1F00S00C0.90
T2F00S00C1.10
T3F00S00C1.30
T4F00S00C1.60
T5F00S00C0.75
T6F00S00C0.70
T7F00S00C0.50
T8F00S00C0.60
T9F00S00C2.40
T10F00S00C2.60
%
T01
X00085Y00105
Y0013
Y0018
Y00205
Y0023
Y00255
X0052Y00615
X00545
X00085Y0043
Y00405
Y0038
Y00355
Y00305
Y0028
T02
X0115Y00514
Y005394
Y005648
T03
X0013Y00115
X00205
X00235
X0031
T04
X001845Y00205
X002655
T05
X00382Y0002
X00398
X00427
X004425
X0085Y0003
Y00062
T06
X012173Y00255
X012427
Y00405
X012173
T07
X0022Y00246
X00526Y00264
X00525Y0009
X0051
Y00075
X00525
X0055
Y0009
X00565
Y00075
X0059Y00045
X00605
Y0003
X0059
X00661Y00103
X00673Y00115
X00661Y00128
X00673Y0014
X00661Y00153
X00673Y00165
X00661Y00178
X00673Y0019
X00661Y00203
X00673Y00215
X00661Y00228
X00673Y0024
X00661Y00253
X00673Y00265
X00585
X00803Y00269
X00856
X00929Y00241
Y00226
X0093Y00128
X00924Y001
X00855Y00103
X00802
X00785Y00154
X00965Y00138
X00977Y001
X01093Y00138
X01075Y00162
X01066Y00174
X01057Y00186
X01048Y00198
X01039Y0021
X0103Y00222
X01021Y00234
X01012Y00246
X01003Y00258
X00994Y0027
X01143
Y0025
Y0023
Y0021
Y0019
Y0017
Y00149
X01155Y00159
Y0018
X01155Y002
Y0022
Y0024
Y0026
X0121Y0022
Y00203
Y00167
X01162Y00114
Y00099
X0118Y00078
X01196
X0121Y00294
X012093Y003425
Y003608
X0121Y00471
Y00491
X012225Y00505
X01169Y00481
X01155Y00475
X01141Y00469
X01127Y00463
X01113Y00457
X01099Y00451
X01085Y00445
X01071Y00439
X01057Y00433
X01005Y00484
Y005025
Y0052
X01037Y00526
X00988Y00564
X010375Y006175
X01172Y0055
X01155Y003
Y0028
X01143Y0029
Y0031
X00976Y00294
X00985Y00282
X00988Y00383
X01003
X0094Y00342
X00949Y0033
X00958Y00318
X00967Y00306
X00897Y00306
X00874Y00306
X00859
X00822Y00306
X00797
X00772Y00306
X00821Y00357
X00844
X00869Y00366
X00888Y00421
X00902Y00435
X00894Y00448
X00909Y0045
X00891Y00472
X00876Y00469
X00861Y00466
X00857Y00442
X00833Y00438
X00829Y00453
X00832Y00418
X00797Y00441
Y00463
Y00483
Y00503
X00798Y00518
X00811Y00509
X00826Y00507
X00819Y00522
X00843Y00526
X00854Y00514
X00853Y0049
X00838
X00809Y00493
Y00473
X00877Y0049
X00892
X00896Y0053
X00881
X00866
X00895Y00574
X00906Y00586
X00895Y00624
X00964Y0062
X0095Y0056
X00967Y00463
X0092Y00408
X00718Y00415
X00673
X00661Y00403
Y00428
X00673Y0044
X00661Y00453
X00673Y00465
X00661Y00478
X00673Y0049
X00661Y00503
X00673Y00515
Y0054
X00661Y00528
Y00563
Y0058
X00665Y00615
X0068Y00623
X00695Y00624
X0071Y00625
X00725
X0074
X00728Y00593
X007225Y00565
X00741Y00526
X00745Y00498
X0072Y00464
X00673Y0039
X00661Y00378
Y00353
X00673Y00365
Y0034
X00661Y00328
Y00303
X00673Y00315
Y0029
X00661Y00278
X0058Y00555
X00529
X0048Y004935
X005Y00455
X004588Y00438
X00446Y0039
X00395
X004Y00436
Y00455
X00395Y00505
Y00524
X00355Y005572
Y005762
X00365Y006
Y00635
X0024Y00595
Y00386
Y00367
X0022Y00311
X0027Y00315
X0032Y00415
X002Y00423
X00406Y00337
X00415Y00297
X00465Y0033
X00115Y0046
T08
X01233Y0032
X01188Y004
X01149Y00431
X01233Y0047
T09
X00225Y00179
T10
X0021Y0003
X0117
Y0063
X0021
M30
