%FSLAX43Y43*%
%MOMM*%
G71*
G01*
G75*
%ADD10C,0.300*%
%ADD11C,0.200*%
%ADD12C,0.500*%
%ADD13R,0.800X1.200*%
%ADD14R,0.700X1.100*%
%ADD15R,0.825X2.000*%
%ADD16R,2.200X2.500*%
%ADD17R,1.800X0.800*%
%ADD18R,1.800X1.200*%
%ADD19R,1.600X1.100*%
%ADD20R,1.100X1.600*%
%ADD21R,1.000X0.400*%
%ADD22O,0.200X0.400*%
%ADD23O,0.400X0.200*%
%ADD24C,1.000*%
%ADD25R,1.600X0.200*%
%ADD26R,0.200X1.600*%
%ADD27R,2.300X0.400*%
%ADD28R,3.250X0.700*%
%ADD29R,2.000X0.500*%
%ADD30R,0.500X1.700*%
%ADD31R,0.500X1.700*%
%ADD32R,0.350X1.800*%
%ADD33R,1.100X0.700*%
%ADD34R,1.200X1.800*%
%ADD35R,2.600X2.600*%
%ADD36R,0.500X2.200*%
%ADD37R,1.500X2.900*%
%ADD38R,2.900X1.500*%
%ADD39R,1.500X2.900*%
%ADD40R,2.900X1.500*%
%ADD41R,0.350X1.600*%
%ADD42R,2.270X0.550*%
%ADD43R,1.400X0.900*%
%ADD44R,0.600X1.550*%
%ADD45R,1.200X0.220*%
%ADD46R,0.400X2.300*%
%ADD47R,1.220X0.620*%
%ADD48R,1.000X0.450*%
%ADD49R,1.600X0.300*%
%ADD50R,1.400X1.000*%
%ADD51R,1.800X0.500*%
%ADD52C,0.200*%
%ADD53C,0.300*%
%ADD54C,0.400*%
%ADD55C,0.254*%
%ADD56C,1.500*%
%ADD57C,1.000*%
%ADD58O,2.500X1.800*%
%ADD59C,1.800*%
%ADD60R,2.500X3.000*%
%ADD61C,3.200*%
%ADD62C,1.270*%
%ADD63C,1.500*%
%ADD64C,2.000*%
%ADD65O,1.800X2.500*%
%ADD66C,1.600*%
%ADD67C,1.300*%
D12*
X568043Y529545D02*
Y554670D01*
X569368Y555995D01*
X566443Y554895D02*
X569368Y557820D01*
X566443Y529545D02*
Y554895D01*
X495443Y522745D02*
X495184Y522711D01*
X494943Y522611D01*
X494736Y522452D01*
X494577Y522245D01*
X494477Y522004D01*
X494443Y521745D01*
X533443D02*
X533409Y522004D01*
X533309Y522245D01*
X533150Y522452D01*
X532943Y522611D01*
X532702Y522711D01*
X532443Y522745D01*
X570443Y578745D02*
X570450Y578492D01*
X570469Y578239D01*
X570501Y577988D01*
X570545Y577738D01*
X570603Y577492D01*
X570672Y577248D01*
X570754Y577008D01*
X570848Y576773D01*
X570954Y576543D01*
X571071Y576318D01*
X571200Y576100D01*
X571339Y575889D01*
X571489Y575684D01*
X571649Y575488D01*
X571819Y575300D01*
X571998Y575121D01*
X572186Y574951D01*
X572383Y574791D01*
X572587Y574641D01*
X572798Y574502D01*
X573017Y574373D01*
X573241Y574256D01*
X573471Y574150D01*
X573707Y574056D01*
X573946Y573974D01*
X574190Y573905D01*
X574437Y573847D01*
X574686Y573803D01*
X574937Y573771D01*
X575190Y573751D01*
X575443Y573745D01*
Y535745D02*
X575190Y535739D01*
X574937Y535719D01*
X574686Y535687D01*
X574437Y535643D01*
X574190Y535585D01*
X573946Y535516D01*
X573707Y535434D01*
X573471Y535340D01*
X573241Y535234D01*
X573017Y535117D01*
X572798Y534988D01*
X572587Y534849D01*
X572383Y534699D01*
X572186Y534539D01*
X571998Y534369D01*
X571819Y534190D01*
X571649Y534002D01*
X571489Y533805D01*
X571339Y533601D01*
X571200Y533390D01*
X571071Y533171D01*
X570954Y532947D01*
X570848Y532717D01*
X570754Y532481D01*
X570672Y532242D01*
X570603Y531998D01*
X570545Y531751D01*
X570501Y531502D01*
X570469Y531251D01*
X570450Y530998D01*
X570443Y530745D01*
X464443Y524745D02*
X464437Y524998D01*
X464417Y525251D01*
X464385Y525502D01*
X464341Y525751D01*
X464284Y525998D01*
X464214Y526242D01*
X464132Y526481D01*
X464038Y526717D01*
X463932Y526947D01*
X463815Y527171D01*
X463686Y527390D01*
X463547Y527601D01*
X463397Y527805D01*
X463237Y528002D01*
X463067Y528190D01*
X462888Y528369D01*
X462700Y528539D01*
X462504Y528699D01*
X462299Y528849D01*
X462088Y528988D01*
X461870Y529117D01*
X461645Y529234D01*
X461415Y529340D01*
X461180Y529434D01*
X460940Y529516D01*
X460696Y529585D01*
X460450Y529643D01*
X460200Y529687D01*
X459949Y529719D01*
X459696Y529739D01*
X459443Y529745D01*
Y579745D02*
X459696Y579751D01*
X459949Y579771D01*
X460200Y579803D01*
X460450Y579847D01*
X460696Y579905D01*
X460940Y579974D01*
X461180Y580056D01*
X461415Y580150D01*
X461645Y580256D01*
X461870Y580373D01*
X462088Y580502D01*
X462299Y580641D01*
X462504Y580791D01*
X462700Y580951D01*
X462888Y581121D01*
X463067Y581300D01*
X463237Y581488D01*
X463397Y581684D01*
X463547Y581889D01*
X463686Y582100D01*
X463815Y582318D01*
X463932Y582543D01*
X464038Y582773D01*
X464132Y583008D01*
X464214Y583248D01*
X464284Y583492D01*
X464341Y583738D01*
X464385Y583988D01*
X464417Y584239D01*
X464437Y584492D01*
X464443Y584745D01*
Y521745D02*
X494443D01*
X495443Y522745D02*
X532443D01*
X533443Y521745D02*
X570443D01*
X464443Y587745D02*
X570443D01*
X570443Y578745D01*
X575443Y573745D02*
X578443D01*
X570443Y521745D02*
X570443Y530745D01*
X575443Y535745D02*
X578443D01*
X464443Y521745D02*
X464443Y524745D01*
X464443Y587745D02*
X464443Y584745D01*
X448443Y529745D02*
X459443D01*
X448443Y579745D02*
X459443D01*
X448443Y529745D02*
Y579745D01*
X578443Y535745D02*
Y573745D01*
D52*
X564943Y572245D02*
X570693D01*
X537343Y579745D02*
X537943Y579145D01*
X537343Y579745D02*
Y583545D01*
X537943Y584145D01*
X527743Y571045D02*
X529343D01*
X530343Y576545D02*
X539443D01*
X528343Y574545D02*
X530343Y576545D01*
X527843Y574545D02*
X528343D01*
X527243Y573945D02*
X527843Y574545D01*
X528243Y573845D02*
X530543Y576145D01*
X528243Y573545D02*
Y573845D01*
X529343Y572845D02*
X529543Y572645D01*
X529343Y572845D02*
Y574345D01*
X527243Y572945D02*
Y573945D01*
Y572945D02*
X528143Y572045D01*
X530543Y576145D02*
X539243D01*
X542843Y535545D02*
X544943D01*
X541343Y537045D02*
X542843Y535545D01*
X541343Y537045D02*
Y544345D01*
X523643Y556245D02*
X525943Y558545D01*
X533743D01*
X534943Y557345D01*
X535743D01*
X536343Y557945D01*
Y561445D01*
X537343Y562445D01*
X523443Y556645D02*
X525743Y558945D01*
X534743D01*
X535343Y558345D01*
X540343Y537045D02*
Y544845D01*
X541343Y545845D01*
X538643Y563245D02*
Y565245D01*
X537843Y562445D02*
X538643Y563245D01*
X537343Y562445D02*
X537843D01*
X525543Y559345D02*
X533643D01*
X537143Y562845D02*
X537643D01*
X533643Y559345D02*
X537143Y562845D01*
X537643D02*
X538243Y563445D01*
X525343Y559745D02*
X533443D01*
X535743Y562045D01*
Y562345D01*
X537243Y563845D01*
X523243Y557045D02*
X525543Y559345D01*
X538243Y563445D02*
Y564245D01*
X538843Y571745D02*
X540143Y570445D01*
X539343Y566745D02*
X540143Y567545D01*
Y570445D01*
X539043Y572145D02*
X540543Y570645D01*
Y565845D02*
X542943Y563445D01*
X540543Y565845D02*
Y570645D01*
X539243Y572545D02*
X540943Y570845D01*
Y566045D02*
X543143Y563845D01*
X540943Y566045D02*
Y570845D01*
X539443Y572945D02*
X541343Y571045D01*
Y566245D02*
X543343Y564245D01*
X541343Y566245D02*
Y571045D01*
X539643Y573345D02*
X541743Y571245D01*
Y566445D02*
X543543Y564645D01*
X541743Y566445D02*
Y571245D01*
X539843Y573745D02*
X542143Y571445D01*
Y566645D02*
X543743Y565045D01*
X542143Y566645D02*
Y571445D01*
X539443Y574745D02*
X542543Y571645D01*
Y566845D02*
X543943Y565445D01*
X542543Y566845D02*
Y571645D01*
X539043Y575745D02*
X542943Y571845D01*
Y567045D02*
X544143Y565845D01*
X542943Y567045D02*
Y571845D01*
X539243Y576145D02*
X543343Y572045D01*
Y567245D02*
X544343Y566245D01*
X543343Y567245D02*
Y572045D01*
X539443Y576545D02*
X543743Y572245D01*
Y567445D02*
X544543Y566645D01*
X543743Y567445D02*
Y572245D01*
X539643Y576945D02*
X544143Y572445D01*
Y567645D02*
X544743Y567045D01*
X544143Y567645D02*
Y572445D01*
X536743Y564745D02*
Y567945D01*
X537543Y568745D01*
Y568945D01*
X536043Y567245D02*
X536343Y566945D01*
Y564945D02*
Y566945D01*
X536043Y567245D02*
Y568645D01*
X534543Y568145D02*
X535943Y566745D01*
X534543Y568145D02*
Y568345D01*
X533843Y569345D02*
X534843D01*
X533143Y564945D02*
X534143Y565945D01*
X533143Y563045D02*
Y564945D01*
X524143Y562145D02*
X532243D01*
X533143Y563045D01*
X532743Y563245D02*
Y569745D01*
X532043Y562545D02*
X532743Y563245D01*
Y569745D02*
X533743Y570745D01*
X532243Y569345D02*
Y570745D01*
X529543Y566645D02*
X532243Y569345D01*
X529943Y564945D02*
Y565645D01*
X531343Y567045D01*
X531243Y571245D02*
X531743Y571745D01*
X538843D01*
X531243Y568945D02*
Y571245D01*
X529143Y566845D02*
X531243Y568945D01*
X530543Y568845D02*
Y571345D01*
X528743Y567045D02*
X530543Y568845D01*
Y571345D02*
X531043Y571845D01*
Y572445D01*
X529543Y565245D02*
Y566645D01*
X529143Y565445D02*
Y566845D01*
X525143Y560145D02*
X533243D01*
X535343Y562245D01*
Y563345D01*
X536743Y564745D01*
X524943Y560545D02*
X533043D01*
X534943Y562445D01*
Y563545D01*
X536343Y564945D01*
X536943Y569745D02*
X537943Y570745D01*
X535243Y569745D02*
X536943D01*
X535643Y570745D02*
X536643D01*
X534643Y569745D02*
X535643Y570745D01*
X523043Y557445D02*
X525343Y559745D01*
X522843Y557845D02*
X525143Y560145D01*
X537943Y577345D02*
Y579145D01*
X538343Y576945D02*
X539643D01*
X537943Y577345D02*
X538343Y576945D01*
X535943Y565145D02*
Y566745D01*
X533543Y567645D02*
X533843Y567345D01*
X534743D02*
X535543Y566545D01*
X533843Y567345D02*
X534743D01*
X535543Y565345D02*
Y566545D01*
X533143Y567345D02*
X533543Y566945D01*
X534543D02*
X535143Y566345D01*
X533543Y566945D02*
X534543D01*
X535143Y565545D02*
Y566345D01*
X533743Y564145D02*
X535143Y565545D01*
X533743Y563045D02*
Y564145D01*
X534143Y563945D02*
X535543Y565345D01*
X534143Y562845D02*
Y563945D01*
X534543Y563745D02*
X535943Y565145D01*
X534543Y562645D02*
Y563745D01*
X533543Y567645D02*
Y569045D01*
X533143Y567345D02*
Y569245D01*
X534843Y569345D02*
X535243Y569745D01*
X533543Y569045D02*
X533843Y569345D01*
X533643Y569745D02*
X534643D01*
X533143Y569245D02*
X533643Y569745D01*
X533443Y572145D02*
X539043D01*
X532743Y572845D02*
X533443Y572145D01*
X532743Y572845D02*
Y574345D01*
X533843Y573145D02*
X534443Y572545D01*
X539243D01*
X533943Y574445D02*
X535443Y572945D01*
X539443D01*
X533943Y574445D02*
Y574845D01*
X522643Y558245D02*
X524943Y560545D01*
X530743Y575745D02*
X539043D01*
X538043Y574745D02*
X539443D01*
X537543Y573745D02*
X539843D01*
X536443Y573345D02*
X539643D01*
X531743Y575345D02*
X533443D01*
X533943Y574845D01*
X530343Y573945D02*
X531743Y575345D01*
X535043Y574745D02*
X536443Y573345D01*
X536543Y574745D02*
X537543Y573745D01*
X529343Y574345D02*
X530743Y575745D01*
X557743Y535545D02*
X558843Y536645D01*
X562743D01*
X554143Y540345D02*
X556843D01*
X557443Y539745D01*
X553243Y541545D02*
X556643D01*
X557443Y540745D01*
X552343Y542745D02*
X556443D01*
X557443Y541745D01*
X551443Y543945D02*
X556243D01*
X557443Y542745D01*
X550543Y545145D02*
X556043D01*
X557443Y543745D01*
X549643Y546345D02*
X555843D01*
X557443Y544745D01*
X548743Y547545D02*
X555643D01*
X557443Y545745D01*
X547843Y548745D02*
X555443D01*
X557443Y546745D01*
X546943Y549945D02*
X555243D01*
X557443Y547745D01*
X546043Y551145D02*
X555043D01*
X557443Y548745D01*
X545143Y552345D02*
X554843D01*
X557443Y549745D01*
X544243Y553545D02*
X554643D01*
X557443Y550745D01*
X543343Y554745D02*
X554443D01*
X557443Y551745D01*
X542443Y555945D02*
X554243D01*
X557443Y552745D01*
X562743D01*
X557443Y551745D02*
X563943D01*
X557443Y550745D02*
X562743D01*
X557443Y549745D02*
X563943D01*
X557443Y548745D02*
X562743D01*
X557443Y547745D02*
X563943D01*
X557443Y546745D02*
X562743D01*
X557443Y545745D02*
X563943D01*
X557443Y544745D02*
X562743D01*
X557443Y543745D02*
X563943D01*
X557443Y542745D02*
X562743D01*
X557443Y541745D02*
X563943D01*
X557443Y540745D02*
X562743D01*
X557443Y539745D02*
X563943D01*
X557143Y537945D02*
X557443Y537645D01*
X555943Y537945D02*
X557143D01*
X557443Y537645D02*
X563943D01*
X555043Y539145D02*
X557043D01*
X557443Y538745D01*
X562743D01*
X526943Y537145D02*
X528543Y535545D01*
X532643Y561345D02*
X534143Y562845D01*
X532843Y560945D02*
X534543Y562645D01*
X530343Y564745D02*
X530943D01*
X531743Y565545D01*
X529743Y563545D02*
X531643D01*
X528443Y564145D02*
X529543Y565245D01*
X523143Y564145D02*
X528443D01*
X520843Y561845D02*
X523143Y564145D01*
X528743Y563745D02*
X529943Y564945D01*
X523343Y563745D02*
X528743D01*
X521043Y561445D02*
X523343Y563745D01*
X528943Y563345D02*
X530343Y564745D01*
X523543Y563345D02*
X528943D01*
X521243Y561045D02*
X523543Y563345D01*
X529143Y562945D02*
X529743Y563545D01*
X523743Y562945D02*
X529143D01*
X521443Y560645D02*
X523743Y562945D01*
X521643Y560245D02*
X523943Y562545D01*
X532043D01*
X521843Y559845D02*
X524143Y562145D01*
X522243Y559045D02*
X524543Y561345D01*
X532643D01*
X522443Y558645D02*
X524743Y560945D01*
X532843D01*
X532443Y561745D02*
X533743Y563045D01*
X524343Y561745D02*
X532443D01*
X520643Y562245D02*
X522943Y564545D01*
X528243D01*
X529143Y565445D01*
X537543Y566245D02*
X537843Y566545D01*
X537543Y564945D02*
X538243Y564245D01*
X537543Y564945D02*
Y566245D01*
X540443Y535545D02*
X541443Y534545D01*
X528543Y535545D02*
X540443D01*
X540843Y531745D02*
X542443Y533345D01*
Y534945D01*
X540343Y537045D02*
X542443Y534945D01*
X526843Y571945D02*
X527743Y571045D01*
X526443Y571745D02*
X528143Y570045D01*
X526043Y570745D02*
X527743Y569045D01*
X529643D01*
X525643Y570545D02*
X528143Y568045D01*
X525243Y569545D02*
X527743Y567045D01*
X528743D01*
X525243Y569545D02*
Y579645D01*
X525643Y570545D02*
Y579845D01*
X526043Y570745D02*
Y580145D01*
X526443Y571745D02*
Y580345D01*
X526843Y571945D02*
Y580545D01*
X513543Y548045D02*
X514543Y547045D01*
X513543Y548045D02*
Y577045D01*
X514543Y578045D01*
X523543Y583245D02*
X526443Y580345D01*
X522843Y582045D02*
X525243Y579645D01*
X518443Y582045D02*
X522843D01*
X516443Y584045D02*
X518443Y582045D01*
X523043Y582445D02*
X525643Y579845D01*
X519643Y582445D02*
X523043D01*
X517943Y584145D02*
X519643Y582445D01*
X523343Y582845D02*
X526043Y580145D01*
X520843Y582845D02*
X523343D01*
X519443Y584245D02*
X520843Y582845D01*
X520943Y584245D02*
X521943Y583245D01*
X527643Y570045D02*
X528143D01*
X521943Y583245D02*
X523543D01*
X522443Y584245D02*
X523043Y583645D01*
X523743D02*
X526843Y580545D01*
X523043Y583645D02*
X523743D01*
X516443Y559845D02*
X521843D01*
X516143Y559545D02*
X516443Y559845D01*
X514543Y559545D02*
X516143D01*
X514543Y562045D02*
X516443D01*
X518243Y560245D01*
X521643D01*
X514543Y564545D02*
X516443D01*
X516743Y564245D01*
Y562345D02*
Y564245D01*
Y562345D02*
X518443Y560645D01*
X521443D01*
X518643Y561045D02*
X521243D01*
X514543Y567045D02*
X516443D01*
X517143Y566345D01*
Y562545D02*
Y566345D01*
Y562545D02*
X518643Y561045D01*
X514543Y569545D02*
X516443D01*
X517543Y568445D01*
Y562745D02*
Y568445D01*
Y562745D02*
X518843Y561445D01*
X521043D01*
X514543Y572045D02*
X516443D01*
X517943Y570545D01*
Y562945D02*
Y570545D01*
Y562945D02*
X519043Y561845D01*
X520843D01*
X516443Y574545D02*
X518343Y572645D01*
Y563145D02*
X519243Y562245D01*
X514543Y574545D02*
X516443D01*
X518343Y563145D02*
Y572645D01*
X519243Y562245D02*
X520643D01*
X514543Y557045D02*
X516443D01*
X514543Y554545D02*
X516443D01*
X514543Y552045D02*
X516443D01*
X514543Y549545D02*
X516443D01*
X514543Y544545D02*
X516443D01*
X514543Y542045D02*
X516443D01*
X514543Y539545D02*
X516443D01*
X514543Y537045D02*
X516443D01*
X514543Y532045D02*
X516443D01*
Y557045D02*
X518843Y559445D01*
X522043D01*
X524343Y561745D01*
X516443Y554545D02*
X516743Y554845D01*
Y556745D01*
X519043Y559045D01*
X522243D01*
X516443Y552045D02*
X517143Y552745D01*
Y556545D01*
X519243Y558645D01*
X522443D01*
X516443Y549545D02*
X517543Y550645D01*
Y556345D01*
X519443Y558245D01*
X522643D01*
X516443Y544545D02*
X517943Y546045D01*
Y556145D01*
X519643Y557845D01*
X522843D01*
X516443Y542045D02*
X518343Y543945D01*
Y555945D01*
X519843Y557445D01*
X523043D01*
X516443Y539545D02*
X518743Y541845D01*
Y555745D01*
X520043Y557045D01*
X523243D01*
X516443Y537045D02*
X519143Y539745D01*
Y555545D01*
X520243Y556645D01*
X523443D01*
X516443Y532045D02*
X519543Y535145D01*
Y555345D01*
X520443Y556245D01*
X523643D01*
X561543Y569645D02*
X562543Y568645D01*
X562943Y570245D02*
X563943Y569245D01*
X560143Y569045D02*
X561143Y568045D01*
X558743Y568445D02*
X559743Y567445D01*
X557343Y567845D02*
X558343Y566845D01*
X555943Y567245D02*
X556943Y566245D01*
X554543Y566645D02*
X555543Y565645D01*
X553743Y566645D02*
X554543D01*
X550543Y563445D02*
X553743Y566645D01*
X542943Y563445D02*
X550543D01*
X553743Y567245D02*
X555943D01*
X550343Y563845D02*
X553743Y567245D01*
X543143Y563845D02*
X550343D01*
X553743Y567845D02*
X557343D01*
X543343Y564245D02*
X550143D01*
X553743Y567845D01*
Y568445D02*
X558743D01*
X543543Y564645D02*
X549943D01*
X553743Y568445D01*
Y569045D02*
X560143D01*
X543743Y565045D02*
X549743D01*
X553743Y569045D01*
Y569645D02*
X561543D01*
X543943Y565445D02*
X549543D01*
X553743Y569645D01*
Y570245D02*
X562943D01*
X544143Y565845D02*
X549343D01*
X553743Y570245D01*
X553643Y570845D02*
X569443D01*
X544343Y566245D02*
X549043D01*
X553643Y570845D01*
X564143Y571445D02*
X564943Y572245D01*
X553643Y571445D02*
X564143D01*
X544543Y566645D02*
X548843D01*
X553643Y571445D01*
X562343Y572045D02*
X563443Y573145D01*
X553643Y572045D02*
X562343D01*
X544743Y567045D02*
X548643D01*
X553643Y572045D01*
X554143Y565045D02*
X554743Y564445D01*
X561343D02*
X565343Y568445D01*
X554743Y564445D02*
X561343D01*
X565343Y568445D02*
Y569845D01*
D53*
X534785Y523145D02*
X534699Y523364D01*
X534577Y523566D01*
X534424Y523744D01*
X534242Y523894D01*
X459443Y578345D02*
X459646Y578348D01*
X459900Y578361D01*
X460153Y578384D01*
X460404Y578418D01*
X460654Y578461D01*
X460903Y578514D01*
X461149Y578576D01*
X461392Y578649D01*
X461632Y578731D01*
X461869Y578822D01*
X462102Y578923D01*
X462331Y579033D01*
X462555Y579152D01*
X462774Y579280D01*
X462988Y579417D01*
X463197Y579561D01*
X463399Y579714D01*
X463596Y579875D01*
X463786Y580044D01*
X463969Y580219D01*
X464145Y580402D01*
X464313Y580592D01*
X464474Y580789D01*
X464627Y580991D01*
X464772Y581200D01*
X464908Y581414D01*
X465036Y581633D01*
X465155Y581857D01*
X465265Y582086D01*
X465366Y582319D01*
X465457Y582556D01*
X465539Y582796D01*
X465612Y583039D01*
X465674Y583285D01*
X465727Y583534D01*
X465771Y583784D01*
X465804Y584035D01*
X465827Y584288D01*
X465840Y584542D01*
Y584542D02*
X465843Y584745D01*
X466043D02*
X466049Y584539D01*
X466075Y584283D01*
X466119Y584030D01*
X466182Y583782D01*
X466264Y583539D01*
X466364Y583302D01*
X466482Y583074D01*
X466616Y582855D01*
X466767Y582648D01*
X466933Y582452D01*
X467113Y582269D01*
X467306Y582100D01*
X467512Y581947D01*
X467729Y581809D01*
X467955Y581688D01*
X468190Y581584D01*
X468432Y581499D01*
X468680Y581432D01*
X468932Y581384D01*
X469187Y581355D01*
X469443Y581345D01*
X469700Y581355D01*
X469955Y581384D01*
X470207Y581432D01*
X470454Y581499D01*
X470696Y581584D01*
X470931Y581688D01*
X471158Y581809D01*
X471374Y581947D01*
X471580Y582100D01*
X471773Y582269D01*
X471953Y582452D01*
X472119Y582648D01*
X472270Y582855D01*
X472404Y583074D01*
X472522Y583302D01*
X472622Y583539D01*
X472704Y583782D01*
X472767Y584031D01*
X472812Y584283D01*
X472837Y584539D01*
X472843Y584745D01*
X562049Y524951D02*
X562043Y524745D01*
X568837Y524951D02*
X568812Y525207D01*
X568767Y525459D01*
X568704Y525708D01*
X568622Y525951D01*
X568522Y526188D01*
X568404Y526416D01*
X568270Y526634D01*
X568119Y526842D01*
X567953Y527038D01*
X567773Y527221D01*
X567580Y527390D01*
X567374Y527543D01*
X567158Y527681D01*
X566931Y527802D01*
X566696Y527906D01*
X566454Y527991D01*
X566207Y528058D01*
X565955Y528106D01*
X565700Y528135D01*
X565443Y528145D01*
X565187Y528135D01*
X564932Y528106D01*
X564680Y528058D01*
X564432Y527991D01*
X564190Y527906D01*
X563955Y527802D01*
X563729Y527681D01*
X563512Y527543D01*
X563306Y527390D01*
X563113Y527221D01*
X562933Y527038D01*
X562767Y526842D01*
X562617Y526634D01*
X562482Y526416D01*
X562364Y526188D01*
X562264Y525951D01*
X562182Y525708D01*
X562119Y525459D01*
X562075Y525207D01*
X562049Y524951D01*
X568843Y524745D02*
X568837Y524951D01*
X575240Y537142D02*
X574988Y537129D01*
X574736Y537106D01*
X574486Y537073D01*
X574237Y537030D01*
X573990Y536978D01*
X573745Y536916D01*
X573503Y536844D01*
X573264Y536762D01*
X573028Y536672D01*
X572796Y536572D01*
X572568Y536463D01*
X572345Y536345D01*
X572127Y536219D01*
X571913Y536083D01*
X571705Y535940D01*
X571503Y535788D01*
X571307Y535629D01*
X571118Y535462D01*
X570935Y535288D01*
X570759Y535106D01*
X570591Y534918D01*
X570430Y534724D01*
X570277Y534523D01*
X570132Y534316D01*
X569995Y534104D01*
X569867Y533886D01*
X569747Y533664D01*
X569637Y533437D01*
X569535Y533206D01*
X569443Y532971D01*
X569359Y532732D01*
X569286Y532490D01*
X569222Y532246D01*
X569167Y532000D01*
X569123Y531751D01*
X569088Y531501D01*
X569063Y531250D01*
X569048Y530997D01*
X569043Y530745D01*
X575443Y537145D02*
X575240Y537142D01*
X562043Y584745D02*
X562049Y584539D01*
X562075Y584283D01*
X562119Y584030D01*
X562182Y583782D01*
X562264Y583539D01*
X562364Y583302D01*
X562482Y583074D01*
X562617Y582855D01*
X562767Y582648D01*
X562933Y582452D01*
X563113Y582269D01*
X563306Y582100D01*
X563512Y581947D01*
X563729Y581809D01*
X563955Y581688D01*
X564190Y581584D01*
X564432Y581499D01*
X564680Y581432D01*
X564932Y581384D01*
X565187Y581355D01*
X565443Y581345D01*
X565700Y581355D01*
X565955Y581384D01*
X566207Y581432D01*
X566454Y581499D01*
X566696Y581584D01*
X566931Y581688D01*
X567158Y581809D01*
X567374Y581947D01*
X567580Y582100D01*
X567773Y582269D01*
X567953Y582452D01*
X568119Y582648D01*
X568270Y582855D01*
X568404Y583074D01*
X568522Y583302D01*
X568622Y583539D01*
X568704Y583782D01*
X568767Y584031D01*
X568812Y584283D01*
X568837Y584539D01*
X575240Y572348D02*
X575443Y572345D01*
X569043Y578745D02*
X569048Y578492D01*
X569063Y578240D01*
X569088Y577989D01*
X569123Y577739D01*
X569167Y577490D01*
X569222Y577244D01*
X569286Y576999D01*
X569359Y576758D01*
X569443Y576519D01*
X569535Y576284D01*
X569637Y576053D01*
X569747Y575826D01*
X569867Y575604D01*
X569995Y575386D01*
X570132Y575174D01*
X570277Y574967D01*
X570430Y574766D01*
X570591Y574572D01*
X570759Y574383D01*
X570935Y574202D01*
X571118Y574028D01*
X571307Y573861D01*
X571503Y573701D01*
X571705Y573550D01*
X571913Y573406D01*
X572127Y573271D01*
X572345Y573145D01*
X572568Y573027D01*
X572796Y572918D01*
X573028Y572818D01*
X573264Y572727D01*
X573503Y572646D01*
X573745Y572574D01*
X573990Y572512D01*
X574237Y572460D01*
X574486Y572417D01*
X574736Y572384D01*
X574988Y572361D01*
X575240Y572348D01*
X568837Y584539D02*
X568843Y584745D01*
X497943Y528995D02*
X498443Y528495D01*
X497943Y529144D02*
X501943D01*
X497943Y529344D02*
X501943D01*
X497943Y529544D02*
X501943D01*
X497943Y529744D02*
X501943D01*
X497943Y529944D02*
X501943D01*
X497943Y530144D02*
X501943D01*
X497943Y530344D02*
X501943D01*
X497943Y530544D02*
X501943D01*
X497943Y530744D02*
X501943D01*
X497943Y530944D02*
X501943D01*
X497943Y531144D02*
X501943D01*
X497943Y531344D02*
X501943D01*
X497943Y531544D02*
X501992D01*
X497943Y531744D02*
X502192D01*
X497943Y531944D02*
X502392D01*
X497943Y532144D02*
X513543D01*
X497943Y532344D02*
X513543D01*
X497943Y532544D02*
X513543D01*
X497943Y534144D02*
X513543D01*
X459443Y546745D02*
X460443Y545745D01*
X472043D02*
Y559345D01*
X460443Y545745D02*
X479443D01*
X472242D02*
Y559345D01*
X497943Y534344D02*
X513543D01*
X497943Y534544D02*
X513543D01*
X497943Y534744D02*
X513543D01*
X497943Y534944D02*
X513543D01*
X497943Y536544D02*
X513544D01*
X497943Y536744D02*
X513543D01*
X497943Y536944D02*
X513543D01*
X497943Y537144D02*
X513543D01*
X497943Y537344D02*
X513543D01*
X497943Y532744D02*
X513742D01*
X497943Y533944D02*
X513644D01*
X497943Y532944D02*
X513942D01*
X497943Y533744D02*
X513844D01*
X497943Y535144D02*
X513642D01*
X497943Y535344D02*
X513842D01*
X497943Y535544D02*
X514042D01*
X497943Y536144D02*
X513944D01*
X497943Y536344D02*
X513744D01*
X497943Y537544D02*
X513543D01*
X497943Y537744D02*
X513742D01*
X497943Y537944D02*
X513942D01*
X497943Y539144D02*
X513543D01*
X497943Y539344D02*
X513543D01*
X497943Y538744D02*
X513844D01*
X497943Y538944D02*
X513644D01*
X497943Y539544D02*
X513543D01*
X497943Y539744D02*
X513543D01*
X497943Y539944D02*
X513543D01*
X497943Y540144D02*
X513642D01*
X497943Y540344D02*
X513842D01*
X497943Y541344D02*
X513744D01*
X497943Y540544D02*
X514042D01*
X497943Y541144D02*
X513944D01*
X497943Y541544D02*
X513544D01*
X497943Y541744D02*
X513543D01*
X497943Y541944D02*
X513543D01*
X497943Y542144D02*
X513543D01*
X497943Y542344D02*
X513543D01*
X497943Y542544D02*
X513543D01*
X497943Y542744D02*
X513742D01*
X497943Y542944D02*
X513942D01*
X497943Y543744D02*
X513844D01*
X459444Y546744D02*
X480442D01*
X459443Y546944D02*
X480443D01*
X459443Y547144D02*
X480443D01*
X459443Y547344D02*
X480443D01*
X459443Y547544D02*
X480443D01*
X459443Y547744D02*
X480443D01*
X459443Y547944D02*
X480443D01*
X459443Y548144D02*
X480443D01*
X460244Y545944D02*
X479642D01*
X460044Y546144D02*
X479842D01*
X459844Y546344D02*
X480042D01*
X479443Y545745D02*
X480443Y546745D01*
X459644Y546544D02*
X480242D01*
X480443Y546745D02*
Y548245D01*
X459443Y548344D02*
X480542D01*
X497844D02*
X505943D01*
X459443Y548544D02*
X480742D01*
X459443Y548744D02*
X480942D01*
X459443Y548944D02*
X481142D01*
X459443Y549144D02*
X481342D01*
X459443Y549344D02*
X513093D01*
X459443Y549544D02*
X513093D01*
X459443Y549744D02*
X513093D01*
X459443Y549944D02*
X513093D01*
X480443Y548245D02*
X481443Y549245D01*
X496943D02*
X497943Y548245D01*
X497644Y548544D02*
X505943D01*
X497444Y548744D02*
X505943D01*
X497244Y548944D02*
X506142D01*
X481443Y549245D02*
X496943D01*
X497044Y549144D02*
X506342D01*
X459443Y550144D02*
X513093D01*
X459443Y550344D02*
X513093D01*
X459443Y550544D02*
X513093D01*
X459443Y550744D02*
X513093D01*
X459443Y550944D02*
X513093D01*
X459443Y551144D02*
X513093D01*
X459443Y551344D02*
X513093D01*
X459443Y551544D02*
X513093D01*
X459443Y551744D02*
X513093D01*
X459443Y551944D02*
X513093D01*
X459443Y552144D02*
X513093D01*
X459443Y552344D02*
X513093D01*
X459443Y552544D02*
X513093D01*
X459443Y552744D02*
X513093D01*
X459443Y552944D02*
X513093D01*
X459443Y553144D02*
X513093D01*
X459443Y553344D02*
X513093D01*
X459443Y553544D02*
X513093D01*
X459443Y553744D02*
X513093D01*
X459443Y553944D02*
X513093D01*
X459443Y554144D02*
X513093D01*
X459443Y554344D02*
X513093D01*
X459443Y554544D02*
X513093D01*
X459443Y554744D02*
X513093D01*
X459443Y554944D02*
X513093D01*
X459443Y555144D02*
X513093D01*
X459443Y555344D02*
X513093D01*
X459443Y555544D02*
X513093D01*
X459443Y555744D02*
X513093D01*
X459443Y555944D02*
X513093D01*
X459443Y556144D02*
X513093D01*
X459443Y556344D02*
X513093D01*
X459443Y556544D02*
X513093D01*
X459443Y556744D02*
X513093D01*
X459443Y556944D02*
X513093D01*
X459443Y557144D02*
X513093D01*
X498443Y528495D02*
X501443D01*
X498394Y528544D02*
X501492D01*
X498194Y528744D02*
X501692D01*
X501443Y528495D02*
X501943Y528995D01*
X497994Y528944D02*
X501892D01*
X501943Y528995D02*
Y531495D01*
X502443Y531995D01*
X505943D01*
X506443Y524145D02*
Y531495D01*
X505943Y531995D02*
X506443Y531495D01*
X513642Y524145D02*
Y531446D01*
X506394Y531544D02*
X513544D01*
X506194Y531744D02*
X513543D01*
Y531545D02*
Y532545D01*
X505994Y531944D02*
X513543D01*
X513642Y532644D02*
Y533946D01*
X506642Y524145D02*
Y547245D01*
X506842Y524145D02*
Y547245D01*
X507042Y524145D02*
Y547245D01*
X507242Y524145D02*
Y547245D01*
X506042Y531896D02*
Y547646D01*
X497943Y528995D02*
Y548245D01*
X506442Y531496D02*
Y547246D01*
X506242Y531696D02*
Y547446D01*
X507442Y524145D02*
Y547245D01*
X507642Y524145D02*
Y547444D01*
X507842Y524145D02*
Y547644D01*
X513242Y524145D02*
Y547671D01*
X513543Y534045D02*
Y535045D01*
X513442Y524145D02*
Y547471D01*
X513642Y535144D02*
Y536446D01*
X513543Y536545D02*
Y537545D01*
Y539045D02*
Y540045D01*
X513842Y524145D02*
Y531246D01*
X506443Y531344D02*
X513744D01*
X506443Y531144D02*
X513944D01*
X513543Y531545D02*
X514043Y531045D01*
X513543Y532545D02*
X514043Y533045D01*
X513842Y532844D02*
Y533746D01*
X513543Y534045D02*
X514043Y533545D01*
X513543Y535045D02*
X514043Y535545D01*
X514042Y524145D02*
Y531046D01*
X514242Y524145D02*
Y531045D01*
X514442Y524145D02*
Y531045D01*
X514642Y524145D02*
Y531045D01*
X514042Y533044D02*
Y533546D01*
X514242Y533045D02*
Y533545D01*
X514043Y533045D02*
X514743D01*
X514442D02*
Y533545D01*
X514642Y533045D02*
Y533545D01*
X513842Y535344D02*
Y536246D01*
X513642Y537644D02*
Y538946D01*
X513543Y536545D02*
X514043Y536045D01*
X513543Y537545D02*
X514043Y538045D01*
X513842Y537844D02*
Y538746D01*
X513642Y540144D02*
Y541446D01*
X513543Y539045D02*
X514043Y538545D01*
X513543Y540045D02*
X514043Y540545D01*
X514042Y535544D02*
Y536046D01*
X514242Y535545D02*
Y536045D01*
X514442Y535545D02*
Y536045D01*
X514642Y535545D02*
Y536045D01*
X514042Y538044D02*
Y538546D01*
X513842Y540344D02*
Y541246D01*
X514242Y538045D02*
Y538545D01*
X514442Y538045D02*
Y538545D01*
X514642Y538045D02*
Y538545D01*
X497943Y544144D02*
X513543D01*
X497943Y544344D02*
X513543D01*
X497943Y544544D02*
X513543D01*
X497943Y544744D02*
X513543D01*
X497943Y547544D02*
X506144D01*
X497943Y547744D02*
X505944D01*
X497943Y544944D02*
X513543D01*
X497943Y547344D02*
X506344D01*
X506443Y547245D02*
X507443D01*
X505943Y547745D02*
X506443Y547245D01*
X513543Y541545D02*
Y542545D01*
Y544045D02*
Y545045D01*
X507443Y547245D02*
X507943Y547745D01*
X507942Y547744D02*
X513169D01*
X507742Y547544D02*
X513369D01*
X513093Y547820D02*
X513318Y547595D01*
X497943Y547944D02*
X505943D01*
Y547745D02*
Y548745D01*
X497943Y548144D02*
X505943D01*
Y548745D02*
X506443Y549245D01*
X507443D01*
X507943Y548745D01*
X507744Y548944D02*
X513093D01*
X507544Y549144D02*
X513093D01*
Y547820D02*
Y548270D01*
X507943Y547745D02*
Y548745D01*
X513093Y547820D02*
X513318Y547595D01*
X513093Y547820D02*
Y548270D01*
X507943Y547944D02*
X513093D01*
X507943Y548144D02*
X513093D01*
X507943Y548344D02*
X513093D01*
X507943Y548544D02*
X513093D01*
X507943Y548744D02*
X513093D01*
X513543Y541545D02*
X514043Y541045D01*
X513642Y542644D02*
Y543946D01*
X513543Y542545D02*
X514043Y543045D01*
X513543Y544045D02*
X514043Y543545D01*
X497943Y543944D02*
X513644D01*
X497943Y545144D02*
X513642D01*
X497943Y545344D02*
X513842D01*
X513543Y545045D02*
X514043Y545545D01*
X514042Y540544D02*
Y541046D01*
X514242Y540545D02*
Y541045D01*
X514442Y540545D02*
Y541045D01*
X514642Y540545D02*
Y541045D01*
X514042Y543044D02*
Y543546D01*
X513842Y542844D02*
Y543746D01*
X514242Y543045D02*
Y543545D01*
X514442Y543045D02*
Y543545D01*
X514642Y543045D02*
Y543545D01*
X497943Y546344D02*
X513744D01*
X497943Y546544D02*
X513544D01*
X497943Y545544D02*
X514042D01*
X497943Y546144D02*
X513944D01*
X497943Y546744D02*
X513543D01*
X497943Y546944D02*
X513543D01*
X497943Y547144D02*
X513543D01*
X507542Y547344D02*
X513543D01*
X513842Y545344D02*
Y546246D01*
X513642Y545144D02*
Y546446D01*
X514042Y545544D02*
Y546046D01*
X514242Y545545D02*
Y546045D01*
X513543Y546545D02*
Y547370D01*
X513318Y547595D02*
X513543Y547370D01*
X514442Y545545D02*
Y546045D01*
X513543Y546545D02*
X514043Y546045D01*
X514642Y545545D02*
Y546045D01*
X460443Y545746D02*
Y578423D01*
X460643Y545745D02*
Y578458D01*
X460843Y545745D02*
Y578500D01*
X461043Y545745D02*
Y578548D01*
X461243Y545745D02*
Y578603D01*
X461443Y545745D02*
Y578665D01*
X461643Y545745D02*
Y578735D01*
X461843Y545745D02*
Y578812D01*
X462043Y545745D02*
Y578897D01*
X462243Y545745D02*
Y578990D01*
X462443Y545745D02*
Y579091D01*
X462643Y545745D02*
Y579202D01*
X462842Y545745D02*
Y579322D01*
X463043Y545745D02*
Y579453D01*
X463243Y545745D02*
Y579595D01*
X463443Y545745D02*
Y579748D01*
X463643Y545745D02*
Y579915D01*
X463842Y545745D02*
Y580097D01*
X464043Y545745D02*
Y580295D01*
X464243Y545745D02*
Y580511D01*
X464443Y545745D02*
Y580749D01*
X464643Y545745D02*
Y581013D01*
X464842Y545745D02*
Y581309D01*
X465043Y545745D02*
Y581645D01*
X465243Y545745D02*
Y582038D01*
X465443Y545745D02*
Y582516D01*
X465643Y545745D02*
Y583155D01*
X465842Y545745D02*
Y584655D01*
X466243Y545745D02*
Y583598D01*
X466043Y545745D02*
Y586345D01*
X466842Y545745D02*
Y582555D01*
X466443Y545745D02*
Y583146D01*
X466643Y545745D02*
Y582817D01*
X467842Y545745D02*
Y563146D01*
X467642Y545745D02*
Y563346D01*
X468043Y545745D02*
Y563045D01*
X468242Y545745D02*
Y563045D01*
X468443Y545745D02*
Y563045D01*
X468642Y545745D02*
Y563045D01*
X468842Y545745D02*
Y563045D01*
X469043Y545745D02*
Y563144D01*
X471642Y545745D02*
Y559646D01*
X469242Y545745D02*
Y563344D01*
X472443Y545745D02*
Y559345D01*
X471842Y545745D02*
Y559446D01*
X472642Y545745D02*
Y559345D01*
X472842Y545745D02*
Y559345D01*
X473042Y545745D02*
Y559444D01*
X473242Y545745D02*
Y559644D01*
X473443Y545745D02*
Y559844D01*
X467242Y545745D02*
Y582153D01*
X467043Y545745D02*
Y582337D01*
X469443Y545745D02*
Y563544D01*
X467443Y545745D02*
Y581996D01*
X469642Y545745D02*
Y581351D01*
X469842Y545745D02*
Y581368D01*
X470043Y545745D02*
Y581398D01*
X470242Y545745D02*
Y581440D01*
X470443Y545745D02*
Y581495D01*
X470642Y545745D02*
Y581563D01*
X470842Y545745D02*
Y581646D01*
X471043Y545745D02*
Y581745D01*
X471242Y545745D02*
Y581860D01*
X471443Y545745D02*
Y581995D01*
X473642Y545745D02*
Y586345D01*
X473842Y545745D02*
Y586345D01*
X474042Y545745D02*
Y586345D01*
X460243Y545946D02*
Y578395D01*
X474242Y545745D02*
Y586345D01*
X474443Y545745D02*
Y586345D01*
X474642Y545745D02*
Y586345D01*
X459443Y546745D02*
Y566245D01*
X459643Y546546D02*
Y578345D01*
X459843Y546346D02*
Y578357D01*
X460043Y546146D02*
Y578373D01*
X474842Y545745D02*
Y586345D01*
X475042Y545745D02*
Y586345D01*
X475242Y545745D02*
Y586345D01*
X475443Y545745D02*
Y586345D01*
X475642Y545745D02*
Y586345D01*
X475842Y545745D02*
Y586345D01*
X476042Y545745D02*
Y586345D01*
X476242Y545745D02*
Y586345D01*
X476443Y545745D02*
Y586345D01*
X476642Y545745D02*
Y586345D01*
X476842Y545745D02*
Y586345D01*
X477042Y545745D02*
Y586345D01*
X477242Y545745D02*
Y586345D01*
X477442Y545745D02*
Y586345D01*
X477642Y545745D02*
Y586345D01*
X477842Y545745D02*
Y586345D01*
X478042Y545745D02*
Y586345D01*
X478242Y545745D02*
Y586345D01*
X478442Y545745D02*
Y586345D01*
X478642Y545745D02*
Y586345D01*
X478842Y545745D02*
Y586345D01*
X479042Y545745D02*
Y586345D01*
X479242Y545745D02*
Y586345D01*
X479442Y545745D02*
Y586345D01*
X479642Y545944D02*
Y586345D01*
X479842Y546144D02*
Y586345D01*
X480042Y546344D02*
Y586345D01*
X483242Y549245D02*
Y576671D01*
X483042Y549245D02*
Y576871D01*
X483442Y549245D02*
Y576471D01*
X483642Y549245D02*
Y576470D01*
X483842Y549245D02*
Y576470D01*
X484042Y549245D02*
Y576470D01*
X484242Y549245D02*
Y576470D01*
X484442Y549245D02*
Y576470D01*
X484642Y549245D02*
Y576669D01*
X484842Y549245D02*
Y576869D01*
X485042Y549245D02*
Y580745D01*
X485242Y549245D02*
Y580745D01*
X485442Y549245D02*
Y580745D01*
X485642Y549245D02*
Y580944D01*
X485842Y549245D02*
Y581144D01*
X480242Y546544D02*
Y586345D01*
X480442Y546744D02*
Y586345D01*
X480642Y548444D02*
Y586345D01*
X480842Y548644D02*
Y586345D01*
X481042Y548844D02*
Y586345D01*
X481242Y549044D02*
Y586345D01*
X481442Y549244D02*
Y586345D01*
X481642Y549245D02*
Y586345D01*
X481842Y549245D02*
Y586345D01*
X482042Y549245D02*
Y586345D01*
X482242Y549245D02*
Y586345D01*
X482442Y549245D02*
Y586345D01*
X482642Y549245D02*
Y586345D01*
X482842Y549245D02*
Y586345D01*
X486042Y549245D02*
Y586345D01*
X486242Y549245D02*
Y586345D01*
X486442Y549245D02*
Y586345D01*
X498442Y528496D02*
Y566245D01*
X498642Y528495D02*
Y566245D01*
X498842Y528495D02*
Y566245D01*
X499042Y528495D02*
Y566344D01*
X498042Y528896D02*
Y566245D01*
X498242Y528696D02*
Y566245D01*
X499242Y528495D02*
Y566544D01*
X499442Y528495D02*
Y566744D01*
X499842Y528495D02*
Y581645D01*
X500042Y528495D02*
Y581645D01*
X500242Y528495D02*
Y581645D01*
X500442Y528495D02*
Y581645D01*
X500642Y528495D02*
Y581645D01*
X500842Y528495D02*
Y581645D01*
X501042Y528495D02*
Y581645D01*
X502442Y531994D02*
Y581645D01*
X499642Y528495D02*
Y581821D01*
X501242Y528495D02*
Y581819D01*
X501442Y528495D02*
Y582019D01*
X501642Y528694D02*
Y582219D01*
X502042Y531594D02*
Y581921D01*
X501842Y528894D02*
Y582121D01*
X502642Y531995D02*
Y581645D01*
X502242Y531794D02*
Y581721D01*
X502842Y531995D02*
Y581645D01*
X503042Y531995D02*
Y581645D01*
X503242Y531995D02*
Y581645D01*
X503442Y531995D02*
Y581645D01*
X503642Y531995D02*
Y581719D01*
X503842Y531995D02*
Y581919D01*
X504042Y531995D02*
Y582119D01*
X504242Y531995D02*
Y586345D01*
X504442Y531995D02*
Y586345D01*
X504642Y531995D02*
Y586345D01*
X504842Y531995D02*
Y586345D01*
X505042Y531995D02*
Y586345D01*
X508042Y524145D02*
Y586345D01*
X505242Y531995D02*
Y586345D01*
X505442Y531995D02*
Y586345D01*
X505842Y531995D02*
Y576346D01*
X505642Y531995D02*
Y576546D01*
X508242Y524145D02*
Y586345D01*
X508442Y524145D02*
Y586345D01*
X508642Y524145D02*
Y586345D01*
X508842Y524145D02*
Y586345D01*
X509042Y524145D02*
Y586345D01*
X509242Y524145D02*
Y586345D01*
X513093Y548270D02*
Y576820D01*
X509442Y524145D02*
Y586345D01*
X509642Y524145D02*
Y586345D01*
X509842Y524145D02*
Y586345D01*
X510042Y524145D02*
Y586345D01*
X510242Y524145D02*
Y586345D01*
X510442Y524145D02*
Y586345D01*
X510642Y524145D02*
Y586345D01*
X510842Y524145D02*
Y586345D01*
X511042Y524145D02*
Y586345D01*
X511242Y524145D02*
Y586345D01*
X511442Y524145D02*
Y586345D01*
X511642Y524145D02*
Y586345D01*
X511842Y524145D02*
Y586345D01*
X512042Y524145D02*
Y586345D01*
X512242Y524145D02*
Y586345D01*
X512442Y524145D02*
Y586345D01*
X512642Y524145D02*
Y586345D01*
X512842Y524145D02*
Y586345D01*
X513042Y524145D02*
Y586345D01*
X487642Y549245D02*
Y566546D01*
X487442Y549245D02*
Y573146D01*
X488042Y549245D02*
Y566245D01*
X487842Y549245D02*
Y566346D01*
X488242Y549245D02*
Y566245D01*
X488442Y549245D02*
Y566245D01*
X488642Y549245D02*
Y566245D01*
X488842Y549245D02*
Y566245D01*
X489042Y549245D02*
Y566344D01*
X489242Y549245D02*
Y566544D01*
X492242Y549245D02*
Y560046D01*
X489442Y549245D02*
Y566744D01*
X492642Y549245D02*
Y559745D01*
X492442Y549245D02*
Y559846D01*
X492842Y549245D02*
Y559745D01*
X493042Y549245D02*
Y559745D01*
X486642Y549245D02*
Y586345D01*
X486842Y549245D02*
Y586345D01*
X487242Y549245D02*
Y573346D01*
X487042Y549245D02*
Y573546D01*
X489642Y549245D02*
Y586345D01*
X489842Y549245D02*
Y586345D01*
X490042Y549245D02*
Y586345D01*
X490242Y549245D02*
Y586345D01*
X490442Y549245D02*
Y586345D01*
X490642Y549245D02*
Y586345D01*
X490842Y549245D02*
Y586345D01*
X491042Y549245D02*
Y586345D01*
X491242Y549245D02*
Y586345D01*
X491442Y549245D02*
Y586345D01*
X491642Y549245D02*
Y586345D01*
X491842Y549245D02*
Y586345D01*
X492042Y549245D02*
Y586345D01*
X493242Y549245D02*
Y559745D01*
X493442Y549245D02*
Y559745D01*
X493642Y549245D02*
Y559844D01*
X497642Y548546D02*
Y566546D01*
X493842Y549245D02*
Y560044D01*
X494042Y549245D02*
Y560244D01*
X494242Y549245D02*
Y586345D01*
X494442Y549245D02*
Y586345D01*
X497842Y548346D02*
Y566346D01*
X506042Y548844D02*
Y576245D01*
X506242Y549044D02*
Y576245D01*
X506442Y549244D02*
Y576245D01*
X506642Y549245D02*
Y576245D01*
X506842Y549245D02*
Y576245D01*
X507042Y549245D02*
Y576344D01*
X507242Y549245D02*
Y576544D01*
X507442Y549245D02*
Y576744D01*
X494642Y549245D02*
Y586345D01*
X494842Y549245D02*
Y586345D01*
X495042Y549245D02*
Y586345D01*
X495242Y549245D02*
Y586345D01*
X495442Y549245D02*
Y586345D01*
X495642Y549245D02*
Y586345D01*
X495842Y549245D02*
Y586345D01*
X496042Y549245D02*
Y586345D01*
X497242Y548946D02*
Y586345D01*
X497442Y548746D02*
Y586345D01*
X507642Y549046D02*
Y586345D01*
X507842Y548846D02*
Y586345D01*
X496242Y549245D02*
Y586345D01*
X496442Y549245D02*
Y586345D01*
X496642Y549245D02*
Y586345D01*
X496842Y549245D02*
Y586345D01*
X497042Y549146D02*
Y586345D01*
X514842Y524145D02*
Y531045D01*
X515042Y524145D02*
Y531045D01*
X515242Y524145D02*
Y531244D01*
X515442Y524145D02*
Y531444D01*
X515642Y524145D02*
Y531595D01*
X515842Y524145D02*
Y531595D01*
X516042Y524145D02*
Y531595D01*
X516242Y524145D02*
Y531595D01*
X516442Y524145D02*
Y531595D01*
X516642Y524145D02*
Y531595D01*
X516842Y524145D02*
Y531769D01*
X517042Y524145D02*
Y531969D01*
X517242Y524145D02*
Y532169D01*
X517442Y524145D02*
Y532369D01*
X517642Y524145D02*
Y532569D01*
X517842Y524145D02*
Y532769D01*
X518042Y524145D02*
Y532969D01*
X518242Y524145D02*
Y533169D01*
X518442Y524145D02*
Y533369D01*
X518642Y524145D02*
Y533569D01*
X518842Y524145D02*
Y533769D01*
X519042Y524145D02*
Y533969D01*
X519242Y524145D02*
Y534169D01*
X519442Y524145D02*
Y534369D01*
X519642Y524145D02*
Y534569D01*
X519842Y524145D02*
Y534769D01*
X526242Y524145D02*
Y536346D01*
X526042Y524145D02*
Y536546D01*
X526442Y524145D02*
Y536146D01*
X526642Y524145D02*
Y536145D01*
X526842Y524145D02*
Y536145D01*
X527042Y524145D02*
Y536145D01*
X527242Y524145D02*
Y536145D01*
X506443Y524344D02*
X532343D01*
X506443Y524544D02*
X532343D01*
X506443Y524145D02*
X532393D01*
X506443Y524744D02*
X532343D01*
X506443Y524944D02*
X532343D01*
X506443Y525144D02*
X532343D01*
X506443Y525344D02*
X532392D01*
X506443Y525544D02*
X532592D01*
X506443Y525744D02*
X532792D01*
X506443Y525944D02*
X562262D01*
X506443Y526144D02*
X562344D01*
X506443Y526344D02*
X562443D01*
X506443Y526944D02*
X532794D01*
X506443Y527144D02*
X532594D01*
X506443Y526544D02*
X562558D01*
X506443Y526744D02*
X562693D01*
X506443Y527544D02*
X532343D01*
X506443Y527744D02*
X532343D01*
X506443Y527344D02*
X532394D01*
X506443Y527944D02*
X532343D01*
X506443Y528144D02*
X532343D01*
X506443Y528344D02*
X532343D01*
X506443Y528544D02*
X532392D01*
X506443Y528744D02*
X532592D01*
X506443Y528944D02*
X532792D01*
X527442Y524145D02*
Y535971D01*
X506443Y529144D02*
X565443D01*
X506443Y529344D02*
X565443D01*
X506443Y529544D02*
X565443D01*
X506443Y529744D02*
X565443D01*
X506443Y529944D02*
X565443D01*
X506443Y530144D02*
X565542D01*
X506443Y530344D02*
X565742D01*
X514043Y531045D02*
X515043D01*
X514743Y533045D02*
Y533545D01*
X515043Y531045D02*
X515543Y531545D01*
Y531595D01*
X497943Y533144D02*
X514743D01*
X497943Y533344D02*
X514743D01*
X497943Y533544D02*
X514743D01*
X514043Y533545D02*
X514743D01*
X515543Y531595D02*
X516218D01*
X516668D01*
X516218D02*
X516668D01*
X516893Y531820D01*
X516668Y531595D02*
X516893Y531820D01*
X519768Y534695D01*
X519993Y534920D01*
X519768Y534695D02*
X519993Y534920D01*
X514043Y535545D02*
X514743D01*
Y536045D01*
X519993Y534920D02*
Y535370D01*
Y534920D02*
Y535370D01*
X497943Y535744D02*
X514743D01*
X497943Y535944D02*
X514743D01*
X514043Y536045D02*
X514743D01*
X519993Y536344D02*
X526244D01*
X519993Y536744D02*
X525943D01*
Y536645D02*
Y537645D01*
X519993Y536544D02*
X526044D01*
X525943Y536645D02*
X526443Y536145D01*
X519993Y536944D02*
X525943D01*
X519993Y537144D02*
X525943D01*
X519993Y537344D02*
X525943D01*
X519993Y537544D02*
X525943D01*
X519993Y537744D02*
X526042D01*
X506443Y530944D02*
X540144D01*
X515142Y531144D02*
X528044D01*
X506443Y530544D02*
X565843D01*
X506443Y530744D02*
X565843D01*
X515542Y531544D02*
X527644D01*
X516817Y531744D02*
X527643D01*
X515342Y531344D02*
X527844D01*
X517017Y531944D02*
X527643D01*
X517217Y532144D02*
X527643D01*
Y531545D02*
Y532545D01*
Y531545D02*
X528143Y531045D01*
X517417Y532344D02*
X527643D01*
X517617Y532544D02*
X527643D01*
X517817Y532744D02*
X527842D01*
X518017Y532944D02*
X528042D01*
X518217Y533144D02*
X541567D01*
X527643Y532545D02*
X528143Y533045D01*
X518817Y533744D02*
X540744D01*
X519017Y533944D02*
X540544D01*
X518417Y533344D02*
X541767D01*
X518617Y533544D02*
X541967D01*
X519217Y534144D02*
X540443D01*
X519417Y534344D02*
X540443D01*
X519617Y534544D02*
X540443D01*
X519817Y534744D02*
X540443D01*
X519993Y535344D02*
X528069D01*
X527268Y536145D02*
X528093Y535320D01*
X519993Y534944D02*
X540369D01*
X519993Y535144D02*
X528269D01*
X519993Y536144D02*
X527269D01*
X526443Y536145D02*
X527268D01*
X519993Y535544D02*
X527869D01*
X519993Y535744D02*
X527669D01*
X519993Y535944D02*
X527469D01*
X528242Y524145D02*
Y531045D01*
X528042Y524145D02*
Y531146D01*
X528442Y524145D02*
Y531045D01*
X528642Y524145D02*
Y531045D01*
X528842Y524145D02*
Y531045D01*
X529042Y524145D02*
Y531045D01*
X532343Y524195D02*
X532393Y524145D01*
X529242D02*
Y531144D01*
X532343Y524195D02*
Y525295D01*
X532442Y525394D02*
Y527296D01*
X532343Y525295D02*
X532893Y525845D01*
X532642Y525594D02*
Y527096D01*
X532842Y525794D02*
Y526896D01*
X532343Y527395D02*
Y528495D01*
X533042Y525845D02*
Y526845D01*
X532343Y527395D02*
X532893Y526845D01*
X527842Y524145D02*
Y531346D01*
X527642Y524145D02*
Y535771D01*
X529442Y524145D02*
Y531344D01*
X529642Y524145D02*
Y531544D01*
X529842Y524145D02*
Y535095D01*
X530042Y524145D02*
Y535095D01*
X530242Y524145D02*
Y535095D01*
X530442Y524145D02*
Y535095D01*
X530642Y524145D02*
Y535095D01*
X530842Y524145D02*
Y535095D01*
X531042Y524145D02*
Y535095D01*
X531242Y524145D02*
Y535095D01*
X531442Y524145D02*
Y535095D01*
X531642Y524145D02*
Y535095D01*
X531842Y524145D02*
Y535095D01*
X532042Y524145D02*
Y535095D01*
X532242Y524145D02*
Y535095D01*
X534442Y523726D02*
Y524094D01*
X534242Y523894D02*
X534543Y524195D01*
X534424Y523744D02*
X562043D01*
X534292Y523944D02*
X562043D01*
X534492Y524144D02*
X562043D01*
X534294Y525544D02*
X562138D01*
X534094Y525744D02*
X562193D01*
X534708Y523344D02*
X562043D01*
X534543Y524195D02*
Y525295D01*
X534593Y523544D02*
X562043D01*
X534543Y524344D02*
X562043D01*
X534543Y524544D02*
X562043D01*
X534543Y524744D02*
X562043D01*
X534543Y524944D02*
X562043D01*
X534543Y525144D02*
X562067D01*
X534494Y525344D02*
X562096D01*
X533242Y525845D02*
Y526845D01*
X533442Y525845D02*
Y526845D01*
X532893Y525845D02*
X533993D01*
X534543Y525295D01*
X533642Y525845D02*
Y526845D01*
X533443Y526995D02*
Y527945D01*
X533842Y525845D02*
Y526845D01*
X532893D02*
X533993D01*
X534042Y525796D02*
Y526894D01*
X534242Y525596D02*
Y527094D01*
X534442Y525396D02*
Y527294D01*
X534642Y523467D02*
Y535095D01*
X533993Y526845D02*
X534543Y527395D01*
Y528495D01*
X534092Y526944D02*
X562850D01*
X534292Y527144D02*
X563034D01*
X534492Y527344D02*
X563251D01*
X528442Y533045D02*
Y535095D01*
X528642Y533045D02*
Y535095D01*
X528143Y531045D02*
X529143D01*
X528143Y533045D02*
X529143D01*
X528318Y535095D02*
X528768D01*
X528318D02*
X528768D01*
X528842Y533045D02*
Y535095D01*
X529042Y533045D02*
Y535095D01*
X532493Y527945D02*
X533443D01*
X532343Y528495D02*
X532893Y529045D01*
X533443Y527945D02*
Y528895D01*
X532893Y529045D02*
X533993D01*
X529143Y531045D02*
X529643Y531545D01*
X529242Y532946D02*
Y535095D01*
X529643Y531545D02*
Y532545D01*
X529143Y533045D02*
X529643Y532545D01*
X528042Y532944D02*
Y535371D01*
X527842Y532744D02*
Y535571D01*
X529442Y532746D02*
Y535095D01*
X528242Y533045D02*
Y535171D01*
X528093Y535320D02*
X528318Y535095D01*
X527943Y536820D02*
Y537645D01*
X528093Y535320D02*
X528318Y535095D01*
X527943Y536820D02*
X528768Y535995D01*
X532442Y528594D02*
Y535095D01*
X532642Y528794D02*
Y535095D01*
X532842Y528994D02*
Y535095D01*
X533042Y529045D02*
Y535095D01*
X529642Y532546D02*
Y535095D01*
X533242Y529045D02*
Y535095D01*
X533442Y529045D02*
Y535095D01*
X533642Y529045D02*
Y535095D01*
X533842Y529045D02*
Y535095D01*
X533443Y527945D02*
X534393D01*
X529442Y531344D02*
X539843D01*
X529242Y531144D02*
X539944D01*
X529642Y531544D02*
X539843D01*
X529643Y531744D02*
X539843D01*
X529643Y531944D02*
X539843D01*
X529643Y532144D02*
X539843D01*
X529643Y532344D02*
X539942D01*
X534543Y527544D02*
X563513D01*
X534543Y527744D02*
X563842D01*
X534543Y527944D02*
X564292D01*
X534543Y528144D02*
X565376D01*
X534094Y528944D02*
X565544D01*
X533993Y529045D02*
X534543Y528495D01*
Y528344D02*
X569043D01*
X534294Y528744D02*
X565744D01*
X534494Y528544D02*
X569043D01*
X528019Y536744D02*
X539969D01*
X527943Y536944D02*
X539893D01*
X528419Y536344D02*
X540369D01*
X528219Y536544D02*
X540169D01*
X527943Y537144D02*
X539893D01*
X527943Y537344D02*
X539893D01*
X527943Y537544D02*
X539893D01*
X527844Y537744D02*
X539893D01*
X534042Y528996D02*
Y535095D01*
X534242Y528796D02*
Y535095D01*
X529643Y532544D02*
X540142D01*
X534442Y528596D02*
Y535095D01*
X528768D02*
X540218D01*
X528768Y535995D02*
X540218D01*
X529444Y532744D02*
X540342D01*
X528619Y536144D02*
X540569D01*
X529244Y532944D02*
X541367D01*
X497943Y538144D02*
X514743D01*
X497943Y538344D02*
X514743D01*
X497943Y538544D02*
X514743D01*
X497943Y540744D02*
X514743D01*
X497943Y540944D02*
X514743D01*
X497943Y543144D02*
X514743D01*
X497943Y543344D02*
X514743D01*
X497943Y543544D02*
X514743D01*
X514043Y538045D02*
X514743D01*
Y538545D01*
X514043D02*
X514743D01*
X514043Y540545D02*
X514743D01*
Y541045D01*
X514043D02*
X514743D01*
X514043Y543045D02*
X514743D01*
Y543545D01*
X520042Y524145D02*
Y555169D01*
X520242Y524145D02*
Y555369D01*
X520442Y524145D02*
Y555569D01*
X520642Y524145D02*
Y555769D01*
X514043Y543545D02*
X514743D01*
X519993Y535370D02*
Y555120D01*
X520842Y524145D02*
Y555795D01*
X521042Y524145D02*
Y555795D01*
X521242Y524145D02*
Y555795D01*
X521442Y524145D02*
Y555795D01*
X521642Y524145D02*
Y555795D01*
X521842Y524145D02*
Y555795D01*
X522042Y524145D02*
Y555795D01*
X522242Y524145D02*
Y555795D01*
X522442Y524145D02*
Y555795D01*
X522642Y524145D02*
Y555795D01*
X522842Y524145D02*
Y555795D01*
X519993Y537944D02*
X526242D01*
X519993Y538144D02*
X526442D01*
X519993Y538344D02*
X539893D01*
X519993Y538544D02*
X539893D01*
X519993Y538744D02*
X539893D01*
X519993Y538944D02*
X539893D01*
X519993Y539144D02*
X539893D01*
X519993Y539344D02*
X539893D01*
X519993Y539544D02*
X539893D01*
X519993Y539744D02*
X539893D01*
X519993Y539944D02*
X539893D01*
X519993Y540144D02*
X539893D01*
X519993Y540344D02*
X539893D01*
X519993Y540544D02*
X539893D01*
X519993Y540744D02*
X539893D01*
X519993Y540944D02*
X539893D01*
X519993Y541144D02*
X539893D01*
X519993Y541344D02*
X539893D01*
X519993Y541544D02*
X539893D01*
X519993Y541744D02*
X539893D01*
X519993Y541944D02*
X539893D01*
X519993Y542144D02*
X539893D01*
X519993Y542344D02*
X539893D01*
X519993Y542544D02*
X539893D01*
X519993Y542744D02*
X539893D01*
X523042Y524145D02*
Y555795D01*
X523242Y524145D02*
Y555795D01*
X519993Y542944D02*
X539893D01*
X523442Y524145D02*
Y555795D01*
X519993Y543144D02*
X539893D01*
X519993Y543344D02*
X539893D01*
X519993Y543544D02*
X539893D01*
X519993Y543744D02*
X539893D01*
X519993Y543944D02*
X539893D01*
X519993Y544144D02*
X539893D01*
X514043Y545545D02*
X514743D01*
X519993Y544344D02*
X539893D01*
X519993Y544544D02*
X539893D01*
X497943Y545744D02*
X514743D01*
Y545545D02*
Y546045D01*
X497943Y545944D02*
X514743D01*
X514043Y546045D02*
X514743D01*
X519993Y547744D02*
X533444D01*
X519993Y547944D02*
X533244D01*
X519993Y544744D02*
X539893D01*
X519993Y544944D02*
X539893D01*
X519993Y548144D02*
X533044D01*
X519993Y548344D02*
X533043D01*
X519993Y548544D02*
X533043D01*
X519993Y548744D02*
X533043D01*
X519993Y548944D02*
X533043D01*
X519993Y549144D02*
X533043D01*
X519993Y549344D02*
X533242D01*
X519993Y549544D02*
X533442D01*
X519993Y551944D02*
X527143D01*
X519993Y552144D02*
X527143D01*
X519993Y551544D02*
X527444D01*
X519993Y551744D02*
X527244D01*
X519993Y552344D02*
X527143D01*
X519993Y552544D02*
X527143D01*
X519993Y552744D02*
X527143D01*
X519993Y552944D02*
X527242D01*
X519993Y555120D02*
X520668Y555795D01*
X523418D01*
X519993Y553144D02*
X527442D01*
X519993Y553344D02*
X527642D01*
X523418Y555795D02*
X523868D01*
X519993Y545144D02*
X539967D01*
X519993Y545344D02*
X540167D01*
X519993Y545544D02*
X540343D01*
X519993Y545744D02*
X540343D01*
X519993Y545944D02*
X540343D01*
X519993Y546144D02*
X540343D01*
X519993Y546344D02*
X540343D01*
X519993Y546544D02*
X540542D01*
X519993Y546744D02*
X540742D01*
X519993Y547144D02*
X547743D01*
X519993Y546944D02*
X547844D01*
X519993Y547344D02*
X547743D01*
X519993Y549744D02*
X545943D01*
X519993Y550344D02*
X545344D01*
X519993Y547544D02*
X547743D01*
X519993Y549944D02*
X545943D01*
X519993Y550144D02*
X545943D01*
X519993Y550744D02*
X545043D01*
X519993Y550944D02*
X545043D01*
X519993Y550544D02*
X545144D01*
X519993Y551144D02*
X545043D01*
X519993Y553544D02*
X543243D01*
X519993Y553944D02*
X542644D01*
X519993Y551344D02*
X545043D01*
X519993Y553744D02*
X543243D01*
X519993Y554344D02*
X542343D01*
X519993Y554544D02*
X542343D01*
X519993Y554144D02*
X542444D01*
X519993Y554744D02*
X542343D01*
X520417Y555544D02*
X541443D01*
X520617Y555744D02*
X541443D01*
X519993Y554944D02*
X542343D01*
X520017Y555144D02*
X541744D01*
X520217Y555344D02*
X541544D01*
X523642Y524145D02*
Y555795D01*
X523842Y524145D02*
Y555795D01*
X525943Y537645D02*
X526443Y538145D01*
X524042Y524145D02*
Y555969D01*
X526443Y538145D02*
X527443D01*
X527242D02*
Y551746D01*
X527443Y538145D02*
X527943Y537645D01*
X527442Y538145D02*
Y551546D01*
X528442Y536321D02*
Y551345D01*
X528642Y536121D02*
Y551345D01*
X528842Y535995D02*
Y551544D01*
X529042Y535995D02*
Y551744D01*
X527842Y537746D02*
Y551345D01*
X527642Y537946D02*
Y551346D01*
X528042Y536721D02*
Y551345D01*
X528242Y536521D02*
Y551345D01*
X524242Y524145D02*
Y556169D01*
X524442Y524145D02*
Y556369D01*
X524642Y524145D02*
Y556569D01*
X524842Y524145D02*
Y556769D01*
X525042Y524145D02*
Y556969D01*
X525242Y524145D02*
Y557169D01*
X525442Y524145D02*
Y557369D01*
X525642Y524145D02*
Y557569D01*
X525842Y524145D02*
Y557769D01*
X526042Y537744D02*
Y557969D01*
X529242Y535995D02*
Y558095D01*
X529442Y535995D02*
Y558095D01*
X526242Y537944D02*
Y558095D01*
X526442Y538144D02*
Y558095D01*
X526642Y538145D02*
Y558095D01*
X526842Y538145D02*
Y558095D01*
X527042Y538145D02*
Y558095D01*
X533242Y535995D02*
Y547946D01*
X529642Y535995D02*
Y558095D01*
X527644Y537944D02*
X539893D01*
X533442Y535995D02*
Y547746D01*
X533043Y548145D02*
X533543Y547645D01*
X533043Y548145D02*
Y549145D01*
X527444Y538144D02*
X539893D01*
X533043Y549145D02*
X533543Y549645D01*
X533642Y535995D02*
Y547645D01*
X533842Y535995D02*
Y547645D01*
X534042Y535995D02*
Y547645D01*
X534242Y535995D02*
Y547645D01*
X534442Y535995D02*
Y547645D01*
X533543D02*
X534543D01*
X534642Y535995D02*
Y547744D01*
X534543Y547645D02*
X535043Y548145D01*
X534642Y547744D02*
X547743D01*
X529842Y535995D02*
Y558095D01*
X530042Y535995D02*
Y558095D01*
X530242Y535995D02*
Y558095D01*
X530442Y535995D02*
Y558095D01*
X530642Y535995D02*
Y558095D01*
X530842Y535995D02*
Y558095D01*
X531042Y535995D02*
Y558095D01*
X531242Y535995D02*
Y558095D01*
X531442Y535995D02*
Y558095D01*
X531642Y535995D02*
Y558095D01*
X531842Y535995D02*
Y558095D01*
X532042Y535995D02*
Y558095D01*
X532242Y535995D02*
Y558095D01*
X532442Y535995D02*
Y558095D01*
X532642Y535995D02*
Y558095D01*
X532842Y535995D02*
Y558095D01*
X533042Y535995D02*
Y558095D01*
X527643Y551345D02*
X528643D01*
X527143Y551845D02*
X527643Y551345D01*
X529042Y551744D02*
X533444D01*
X528643Y551345D02*
X529143Y551845D01*
X527143D02*
Y552845D01*
X527643Y553345D01*
X529044Y552944D02*
X533442D01*
X527643Y553345D02*
X528643D01*
X529143Y551845D02*
Y552845D01*
X533343Y551845D02*
Y552845D01*
X533442Y549544D02*
Y551746D01*
X529143Y551944D02*
X533343D01*
X529143Y552144D02*
X533343D01*
X529143Y552344D02*
X533343D01*
X529143Y552544D02*
X533343D01*
X529143Y552744D02*
X533343D01*
X527242Y552944D02*
Y558095D01*
X527442Y553144D02*
Y558095D01*
X527642Y553344D02*
Y558095D01*
X527842Y553345D02*
Y558095D01*
X523418Y555795D02*
X523868D01*
X524093Y556020D01*
X523868Y555795D02*
X524093Y556020D01*
X526168Y558095D01*
X528643Y553345D02*
X529143Y552845D01*
X529042Y552946D02*
Y558095D01*
X533242Y549344D02*
Y558095D01*
X533442Y552944D02*
Y558095D01*
X528042Y553345D02*
Y558095D01*
X528242Y553345D02*
Y558095D01*
X528442Y553345D02*
Y558095D01*
X528642Y553345D02*
Y558095D01*
X528842Y553146D02*
Y558095D01*
X533642Y549645D02*
Y551546D01*
X528842Y551544D02*
X533644D01*
X533543Y549645D02*
X534543D01*
X533343Y551845D02*
X533843Y551345D01*
X528844Y553144D02*
X533642D01*
X533343Y552845D02*
X533843Y553345D01*
X528644Y553344D02*
X533842D01*
X524017Y555944D02*
X541443D01*
X534642Y549546D02*
Y551345D01*
X533842Y549645D02*
Y551346D01*
X534644Y549544D02*
X545943D01*
X534543Y549645D02*
X535043Y549145D01*
X534042Y549645D02*
Y551345D01*
X534242Y549645D02*
Y551345D01*
X534442Y549645D02*
Y551345D01*
X533843D02*
X534843D01*
X533843Y553345D02*
X534843D01*
X524217Y556144D02*
X541443D01*
X533642Y553144D02*
Y557971D01*
X524417Y556344D02*
X541443D01*
X524617Y556544D02*
X541542D01*
X525217Y557144D02*
X534469D01*
X533518Y558095D02*
X534493Y557120D01*
X524817Y556744D02*
X541742D01*
X525017Y556944D02*
X534669D01*
X534042Y553345D02*
Y557571D01*
X533842Y553344D02*
Y557771D01*
X534442Y553345D02*
Y557171D01*
X534242Y553345D02*
Y557371D01*
X534642Y553345D02*
Y556971D01*
X534493Y557120D02*
X534718Y556895D01*
X535168D01*
X534493Y557120D02*
X534718Y556895D01*
X535168D01*
X459443Y559944D02*
X471443D01*
X459443Y560144D02*
X471443D01*
X459443Y559744D02*
X471544D01*
X459443Y560344D02*
X471443D01*
X459443Y560544D02*
X471443D01*
X459443Y563144D02*
X467844D01*
X459443Y560744D02*
X471443D01*
X459443Y560944D02*
X471542D01*
X459443Y563344D02*
X467644D01*
X467443Y563545D02*
X467943Y563045D01*
X468943D01*
X469443Y563545D01*
X459443Y563544D02*
X467444D01*
X459443Y563744D02*
X467443D01*
X459443Y563944D02*
X467443D01*
X459443Y564144D02*
X467443D01*
X449843Y567245D02*
Y578345D01*
X450043Y567245D02*
Y578345D01*
X449843Y567245D02*
X458443D01*
X450243D02*
Y578345D01*
X450443Y567245D02*
Y578345D01*
X450643Y567245D02*
Y578345D01*
X450843Y567245D02*
Y578345D01*
X451043Y567245D02*
Y578345D01*
X459443Y564344D02*
X467443D01*
Y563545D02*
Y564545D01*
X459443Y564544D02*
X467443D01*
Y564545D02*
X467943Y565045D01*
X458443Y567245D02*
X459443Y566245D01*
X451243Y567245D02*
Y578345D01*
X459443Y564744D02*
X467642D01*
X459443Y564944D02*
X467842D01*
X467943Y565045D02*
X468943D01*
X459443Y557344D02*
X513093D01*
X459443Y557544D02*
X513093D01*
X459443Y557744D02*
X513093D01*
X459443Y557944D02*
X513093D01*
X459443Y558144D02*
X513093D01*
X459443Y558344D02*
X513093D01*
X459443Y558544D02*
X513093D01*
X459443Y558744D02*
X513093D01*
X459443Y558944D02*
X513093D01*
X459443Y559544D02*
X471744D01*
X459443Y559144D02*
X513093D01*
X459443Y559344D02*
X513093D01*
X459443Y561144D02*
X471742D01*
X459443Y561344D02*
X471942D01*
X459443Y561544D02*
X492342D01*
X459443Y561744D02*
X492542D01*
X459443Y561944D02*
X513093D01*
X459344Y566344D02*
X487844D01*
X459443Y562144D02*
X513093D01*
X459443Y562344D02*
X513093D01*
X458944Y566744D02*
X487444D01*
X458744Y566944D02*
X487443D01*
X459144Y566544D02*
X487644D01*
X458544Y567144D02*
X487443D01*
X459443Y562544D02*
X513093D01*
X459443Y562744D02*
X513093D01*
X459443Y562944D02*
X513093D01*
X459443Y565144D02*
X513093D01*
X459443Y565344D02*
X513093D01*
X459443Y565544D02*
X513093D01*
X459443Y565744D02*
X513093D01*
X459443Y565944D02*
X513093D01*
X459443Y566144D02*
X513093D01*
X449843Y567344D02*
X487443D01*
X449843Y573344D02*
X487244D01*
X449843Y567544D02*
X487443D01*
X449843Y567744D02*
X487443D01*
X449843Y573744D02*
X486943D01*
X449843Y573944D02*
X486943D01*
X449843Y573544D02*
X487044D01*
X449843Y574144D02*
X486943D01*
X449843Y574344D02*
X486943D01*
X449843Y574544D02*
X486943D01*
X449843Y574744D02*
X487042D01*
X449843Y574944D02*
X487242D01*
X449843Y576944D02*
X482969D01*
X449843Y577144D02*
X482943D01*
X449843Y576544D02*
X483369D01*
X449843Y576744D02*
X483169D01*
X451443Y567245D02*
Y578345D01*
X451643Y567245D02*
Y578345D01*
X449843Y577344D02*
X482943D01*
X451843Y567245D02*
Y578345D01*
X449843Y577544D02*
X482943D01*
X449843Y577744D02*
X482943D01*
X449843Y577944D02*
X482943D01*
X449843Y578144D02*
X483117D01*
X452043Y567245D02*
Y578345D01*
X452243Y567245D02*
Y578345D01*
X452443Y567245D02*
Y578345D01*
X452643Y567245D02*
Y578345D01*
X452843Y567245D02*
Y578345D01*
X453043Y567245D02*
Y578345D01*
X453243Y567245D02*
Y578345D01*
X453443Y567245D02*
Y578345D01*
X453643Y567245D02*
Y578345D01*
X449843Y567944D02*
X487642D01*
X449843Y568144D02*
X487842D01*
X449843Y568344D02*
X513093D01*
X449843Y568544D02*
X513093D01*
X449843Y568744D02*
X513093D01*
X449843Y568944D02*
X513093D01*
X449843Y569144D02*
X513093D01*
X449843Y569344D02*
X513093D01*
X449843Y569544D02*
X513093D01*
X449843Y569744D02*
X513093D01*
X449843Y569944D02*
X513093D01*
X449843Y570144D02*
X513093D01*
X449843Y570344D02*
X513093D01*
X449843Y570544D02*
X513093D01*
X449843Y570744D02*
X513093D01*
X449843Y570944D02*
X513093D01*
X449843Y571144D02*
X513093D01*
X449843Y571344D02*
X513093D01*
X449843Y571544D02*
X513093D01*
X449843Y571744D02*
X513093D01*
X449843Y571944D02*
X513093D01*
X449843Y572144D02*
X513093D01*
X449843Y572344D02*
X513093D01*
X449843Y572544D02*
X513093D01*
X449843Y572744D02*
X513093D01*
X449843Y572944D02*
X513093D01*
X449843Y575144D02*
X487442D01*
X449843Y573144D02*
X513093D01*
X449843Y575344D02*
X513093D01*
X449843Y575544D02*
X513093D01*
X449843Y576344D02*
X505844D01*
X449843Y575744D02*
X513093D01*
X449843Y575944D02*
X513093D01*
X449843Y576144D02*
X513093D01*
X471443Y559845D02*
X471943Y559345D01*
X471443Y559845D02*
Y560845D01*
X471943Y559345D02*
X472943D01*
X473443Y559845D01*
X473344Y560944D02*
X492043D01*
X473144Y561144D02*
X492043D01*
X473443Y559944D02*
X492344D01*
X473443Y560144D02*
X492144D01*
X492043Y560245D02*
X492543Y559745D01*
X473443Y559845D02*
Y560845D01*
X492543Y559745D02*
X493543D01*
X494043Y560245D01*
X473443Y560344D02*
X492043D01*
Y560245D02*
Y561245D01*
X473443Y560544D02*
X492043D01*
X473443Y560744D02*
X492043D01*
X471443Y560845D02*
X471943Y561345D01*
X472943D01*
X472944Y561344D02*
X492142D01*
X472943Y561345D02*
X473443Y560845D01*
X469443Y563545D02*
Y564545D01*
X468943Y565045D02*
X469443Y564545D01*
X487443Y566745D02*
X487943Y566245D01*
X487443Y566745D02*
Y567745D01*
X492043Y561245D02*
X492543Y561745D01*
X493543D01*
X494043Y560245D02*
Y561245D01*
X493543Y561745D02*
X494043Y561245D01*
X487943Y566245D02*
X488943D01*
X489443Y566745D01*
X489442Y566744D02*
X497444D01*
X489443Y566745D02*
Y567745D01*
X497443Y566745D02*
Y567745D01*
X473142Y559544D02*
X513093D01*
X473342Y559744D02*
X513093D01*
X493544Y561744D02*
X513093D01*
X469042Y563144D02*
X513093D01*
X469242Y563344D02*
X513093D01*
X469442Y563544D02*
X513093D01*
X469443Y563744D02*
X513093D01*
X469443Y563944D02*
X513093D01*
X493742Y559944D02*
X513093D01*
X493942Y560144D02*
X513093D01*
X494043Y560344D02*
X513093D01*
X494043Y560544D02*
X513093D01*
X494043Y560744D02*
X513093D01*
X494043Y560944D02*
X513093D01*
X494043Y561144D02*
X513093D01*
X493744Y561544D02*
X513093D01*
X493944Y561344D02*
X513093D01*
X469443Y564144D02*
X513093D01*
X469443Y564344D02*
X513093D01*
X469443Y564544D02*
X513093D01*
X469244Y564744D02*
X513093D01*
X489242Y566544D02*
X497644D01*
X489443Y566944D02*
X497443D01*
X469044Y564944D02*
X513093D01*
X489042Y566344D02*
X497844D01*
X497943Y566245D02*
X498943D01*
X497443Y566745D02*
X497943Y566245D01*
X499042Y566344D02*
X513093D01*
X498943Y566245D02*
X499443Y566745D01*
X489443Y567144D02*
X497443D01*
X499443Y566745D02*
Y567745D01*
X499242Y566544D02*
X513093D01*
X499442Y566744D02*
X513093D01*
X499443Y566944D02*
X513093D01*
X487642Y567944D02*
Y573145D01*
X487842Y568144D02*
Y573145D01*
X487443Y567745D02*
X487943Y568245D01*
X488943D02*
X489443Y567745D01*
X488042Y568245D02*
Y573145D01*
X488242Y568245D02*
Y573145D01*
X487943Y568245D02*
X488943D01*
X488442D02*
Y573145D01*
X489443Y567344D02*
X497443D01*
X489443Y567544D02*
X497443D01*
X489443Y567744D02*
X497443D01*
Y567745D02*
X497943Y568245D01*
X489244Y567944D02*
X497642D01*
X489044Y568144D02*
X497842D01*
X497943Y568245D02*
X498943D01*
X499443Y567745D01*
X483443Y576470D02*
X484443D01*
X482943Y576970D02*
X483443Y576470D01*
X486943Y573645D02*
X487443Y573145D01*
X486943Y573645D02*
Y574645D01*
X484443Y576470D02*
X484943Y576970D01*
X482943D02*
Y577970D01*
X484717Y576744D02*
X505444D01*
X484943Y576970D02*
Y577970D01*
X487443Y573145D02*
X488443D01*
X488642Y568245D02*
Y573344D01*
X488842Y568245D02*
Y573544D01*
X488443Y573145D02*
X488943Y573645D01*
X486943Y574645D02*
X487443Y575145D01*
X488443D01*
X488943Y573645D02*
Y574645D01*
X488443Y575145D02*
X488943Y574645D01*
X505443Y576745D02*
Y577745D01*
X488642Y573344D02*
X513093D01*
X488842Y573544D02*
X513093D01*
X488943Y573744D02*
X513093D01*
X488943Y573944D02*
X513093D01*
X488943Y574144D02*
X513093D01*
X488844Y574744D02*
X513093D01*
X488644Y574944D02*
X513093D01*
X488444Y575144D02*
X513093D01*
X499443Y567144D02*
X513093D01*
X499443Y567344D02*
X513093D01*
X499443Y567544D02*
X513093D01*
X499443Y567744D02*
X513093D01*
X499244Y567944D02*
X513093D01*
X505943Y576245D02*
X506943D01*
X499044Y568144D02*
X513093D01*
X488943Y574344D02*
X513093D01*
X488943Y574544D02*
X513093D01*
X484917Y576944D02*
X505443D01*
X484943Y577144D02*
X505443D01*
X484517Y576544D02*
X505644D01*
X484943Y577344D02*
X505443D01*
X484943Y577544D02*
X505443D01*
X484943Y577744D02*
X505443D01*
X484943Y577944D02*
X505642D01*
X484769Y578144D02*
X505842D01*
X505443Y576745D02*
X505943Y576245D01*
X506943D02*
X507443Y576745D01*
X507042Y576344D02*
X513093D01*
X507242Y576544D02*
X513093D01*
X505443Y577745D02*
X505943Y578245D01*
X506943D01*
X507442Y576744D02*
X513093D01*
X506943Y578245D02*
X507443Y577745D01*
Y576745D02*
Y577745D01*
X453843Y567245D02*
Y578345D01*
X454043Y567245D02*
Y578345D01*
X454243Y567245D02*
Y578345D01*
X454443Y567245D02*
Y578345D01*
X454643Y567245D02*
Y578345D01*
X454843Y567245D02*
Y578345D01*
X455043Y567245D02*
Y578345D01*
X455243Y567245D02*
Y578345D01*
X455443Y567245D02*
Y578345D01*
X455643Y567245D02*
Y578345D01*
X455843Y567245D02*
Y578345D01*
X456043Y567245D02*
Y578345D01*
X456243Y567245D02*
Y578345D01*
X456443Y567245D02*
Y578345D01*
X456643Y567245D02*
Y578345D01*
X456843Y567245D02*
Y578345D01*
X457043Y567245D02*
Y578345D01*
X457243Y567245D02*
Y578345D01*
X457443Y567245D02*
Y578345D01*
X457643Y567245D02*
Y578345D01*
X457843Y567245D02*
Y578345D01*
X458043Y567245D02*
Y578345D01*
X458243Y567245D02*
Y578345D01*
X449843D02*
X459443D01*
X458843Y566846D02*
Y578345D01*
X459043Y566646D02*
Y578345D01*
X459243Y566446D02*
Y578345D01*
X459443Y566246D02*
Y578345D01*
X458443Y567245D02*
Y578345D01*
X458643Y567046D02*
Y578345D01*
X459443D02*
X459643D01*
X468043Y565045D02*
Y581647D01*
X467842Y564944D02*
Y581745D01*
X468443Y565045D02*
Y581496D01*
X468242Y565045D02*
Y581564D01*
X449843Y578344D02*
X483317D01*
X468642Y565045D02*
Y581441D01*
X464592Y580944D02*
X484244D01*
X464734Y581144D02*
X484044D01*
X468842Y565045D02*
Y581398D01*
X469043Y564946D02*
Y581369D01*
X469242Y564746D02*
Y581351D01*
X469443Y564546D02*
Y581345D01*
X482943Y577970D02*
X483443Y578470D01*
X484042D02*
Y581146D01*
X483443Y578470D02*
X484443D01*
X483943Y581245D02*
X484443Y580745D01*
X484242Y578470D02*
Y580946D01*
X471642Y561044D02*
Y582152D01*
X471842Y561244D02*
Y582336D01*
X472043Y561345D02*
Y582553D01*
X472242Y561345D02*
Y582815D01*
X467642Y564744D02*
Y581861D01*
X472443Y561345D02*
Y583144D01*
X472642Y561345D02*
Y583594D01*
X472842Y561345D02*
Y584679D01*
X473042Y561246D02*
Y586345D01*
X473242Y561046D02*
Y586345D01*
X473443Y560846D02*
Y586345D01*
X483042Y578069D02*
Y586345D01*
X483242Y578269D02*
Y586345D01*
X483442Y578469D02*
Y586345D01*
X483943Y581245D02*
Y582245D01*
X483642Y578470D02*
Y586345D01*
X483842Y578470D02*
Y586345D01*
X465198Y581944D02*
X467516D01*
X465291Y582144D02*
X467253D01*
X464985Y581544D02*
X468296D01*
X465096Y581744D02*
X467845D01*
X465522Y582744D02*
X466694D01*
X465585Y582944D02*
X466559D01*
X465376Y582344D02*
X467036D01*
X465453Y582544D02*
X466852D01*
X465729Y583544D02*
X466262D01*
X465764Y583744D02*
X466194D01*
X465640Y583144D02*
X466444D01*
X465688Y583344D02*
X466345D01*
X465815Y584144D02*
X466097D01*
X465831Y584344D02*
X466067D01*
X465793Y583944D02*
X466139D01*
X465840Y584544D02*
X466049D01*
X465843Y584545D02*
Y584745D01*
Y584744D02*
X466043D01*
X465843Y584944D02*
X466043D01*
X465843Y585144D02*
X466043D01*
X465843Y585344D02*
X466043D01*
X465843Y585544D02*
X466043D01*
X465843Y585744D02*
X466043D01*
Y584545D02*
Y586345D01*
X465843Y585944D02*
X466043D01*
X465843Y584745D02*
Y586345D01*
Y586144D02*
X466043D01*
X465843Y586345D02*
X466043D01*
X465843Y586344D02*
X466043D01*
X464865Y581344D02*
X483943D01*
X470590Y581544D02*
X483943D01*
X471042Y581744D02*
X483943D01*
X471371Y581944D02*
X483943D01*
X471633Y582144D02*
X483943D01*
X471851Y582344D02*
X484042D01*
X472035Y582544D02*
X484242D01*
X472192Y582744D02*
X484442D01*
X483943Y582245D02*
X484443Y582745D01*
X472327Y582944D02*
X499193D01*
X472443Y583144D02*
X499193D01*
X472541Y583344D02*
X499193D01*
X472624Y583544D02*
X499193D01*
X472819Y584344D02*
X484344D01*
X472693Y583744D02*
X499193D01*
X472747Y583944D02*
X499193D01*
X472790Y584144D02*
X499193D01*
X472843Y584545D02*
Y584745D01*
Y584744D02*
X483944D01*
X472837Y584544D02*
X484144D01*
X472843Y584944D02*
X483943D01*
X472843Y585144D02*
X483943D01*
X472843Y585344D02*
X483943D01*
X472843Y585544D02*
X483943D01*
X472843Y585744D02*
X483943D01*
X484042Y582344D02*
Y584646D01*
X472843Y584745D02*
Y586345D01*
X484242Y582544D02*
Y584446D01*
X483943Y584745D02*
X484443Y584245D01*
X483943Y584745D02*
Y585745D01*
X484042Y585844D02*
Y586345D01*
X472843Y585944D02*
X484142D01*
X472843Y586144D02*
X484342D01*
X483943Y585745D02*
X484443Y586245D01*
X484442Y578470D02*
Y580746D01*
X484642Y578271D02*
Y580745D01*
X484443Y578470D02*
X484943Y577970D01*
X484842Y578071D02*
Y580745D01*
X484443D02*
X485443D01*
X485943Y581245D01*
Y582245D01*
X485443Y582745D02*
X485943Y582245D01*
X487042Y574744D02*
Y586345D01*
X487242Y574944D02*
Y586345D01*
X487442Y575144D02*
Y586345D01*
X487642Y575145D02*
Y586345D01*
X487842Y575145D02*
Y586345D01*
X488042Y575145D02*
Y586345D01*
X488242Y575145D02*
Y586345D01*
X488442Y575145D02*
Y586345D01*
X489442Y567746D02*
Y586345D01*
X492242Y561444D02*
Y586345D01*
X492442Y561644D02*
Y586345D01*
X492642Y561745D02*
Y586345D01*
X488642Y574946D02*
Y586345D01*
X488842Y574746D02*
Y586345D01*
X489042Y568146D02*
Y586345D01*
X489242Y567946D02*
Y586345D01*
X492842Y561745D02*
Y586345D01*
X493642Y561646D02*
Y586345D01*
X493842Y561446D02*
Y586345D01*
X494042Y561246D02*
Y586345D01*
X493042Y561745D02*
Y586345D01*
X493242Y561745D02*
Y586345D01*
X493442Y561745D02*
Y586345D01*
X497642Y567944D02*
Y586345D01*
X497842Y568144D02*
Y586345D01*
X499442Y567746D02*
Y582021D01*
X499242Y567946D02*
Y582221D01*
X499818Y581645D02*
X501068D01*
X499193Y582270D02*
X499818Y581645D01*
X485943Y582144D02*
X499319D01*
X499193Y582270D02*
Y584220D01*
X485943Y581744D02*
X499719D01*
X485943Y581944D02*
X499519D01*
X501068Y581645D02*
X501693Y582270D01*
X502318Y581645D01*
X503568D01*
X504193Y582270D01*
X500443Y581795D02*
Y583245D01*
X501693Y582270D02*
Y584220D01*
X501167Y581744D02*
X502219D01*
X501367Y581944D02*
X502019D01*
X501567Y582144D02*
X501819D01*
X498042Y568245D02*
Y586345D01*
X498242Y568245D02*
Y586345D01*
X498442Y568245D02*
Y586345D01*
X499042Y568146D02*
Y586345D01*
X498642Y568245D02*
Y586345D01*
X498842Y568245D02*
Y586345D01*
X501693Y582270D02*
Y584220D01*
X505642Y577944D02*
Y586345D01*
X505842Y578144D02*
Y586345D01*
X507042Y578146D02*
Y586345D01*
X507242Y577946D02*
Y586345D01*
X507442Y577746D02*
Y586345D01*
X506042Y578245D02*
Y586345D01*
X506242Y578245D02*
Y586345D01*
X506442Y578245D02*
Y586345D01*
X506642Y578245D02*
Y586345D01*
X506842Y578245D02*
Y586345D01*
X484442Y582744D02*
Y584246D01*
X484642Y582745D02*
Y584245D01*
X484443Y582745D02*
X485443D01*
X484842D02*
Y584245D01*
X485042Y582745D02*
Y584245D01*
X485242Y582745D02*
Y584245D01*
X485444Y582744D02*
X499193D01*
X484443Y584245D02*
X485443D01*
X485642Y582546D02*
Y584444D01*
X485842Y582346D02*
Y584644D01*
X485844Y582344D02*
X499193D01*
X485644Y582544D02*
X499193D01*
X485442Y582745D02*
Y584245D01*
X485443D02*
X485943Y584745D01*
X485542Y584344D02*
X499317D01*
X485742Y584544D02*
X499517D01*
X484242Y586044D02*
Y586345D01*
X484442Y586244D02*
Y586345D01*
X484443Y586245D02*
X485443D01*
X485943Y585745D01*
X484642Y586245D02*
Y586345D01*
X484842Y586245D02*
Y586345D01*
X485042Y586245D02*
Y586345D01*
X485242Y586245D02*
Y586345D01*
X499242Y584269D02*
Y586345D01*
X499442Y584469D02*
Y586345D01*
X485942Y584744D02*
X499717D01*
X499193Y584220D02*
X499818Y584845D01*
X485442Y586245D02*
Y586345D01*
X485642Y586046D02*
Y586345D01*
X485943Y584745D02*
Y585745D01*
X485842Y585846D02*
Y586345D01*
X499642Y584669D02*
Y586345D01*
X499343Y583245D02*
X500443D01*
Y584695D01*
Y583245D02*
X501543D01*
X499818Y584845D02*
X501068D01*
X499842D02*
Y586345D01*
X500042Y584845D02*
Y586345D01*
X500242Y584845D02*
Y586345D01*
X500442Y584845D02*
Y586345D01*
X501068Y584845D02*
X501693Y584220D01*
X502318Y584845D01*
X504193Y582270D02*
Y584220D01*
X503568Y584845D02*
X504193Y584220D01*
X501569Y584344D02*
X501817D01*
X500642Y584845D02*
Y586345D01*
X501369Y584544D02*
X502017D01*
X501169Y584744D02*
X502217D01*
X502318Y584845D02*
X503568D01*
X501442Y584471D02*
Y586345D01*
X501642Y584271D02*
Y586345D01*
X501842Y584369D02*
Y586345D01*
X502042Y584569D02*
Y586345D01*
X500842Y584845D02*
Y586345D01*
X501042Y584845D02*
Y586345D01*
X501242Y584671D02*
Y586345D01*
X502242Y584769D02*
Y586345D01*
X502442Y584845D02*
Y586345D01*
X503642Y584771D02*
Y586345D01*
X503842Y584571D02*
Y586345D01*
X504042Y584371D02*
Y586345D01*
X502642Y584845D02*
Y586345D01*
X502842Y584845D02*
Y586345D01*
X503042Y584845D02*
Y586345D01*
X503242Y584845D02*
Y586345D01*
X503442Y584845D02*
Y586345D01*
X518793Y563370D02*
X519243Y562920D01*
X518793Y563544D02*
X519243D01*
X518793Y563744D02*
X519243D01*
X518793Y563944D02*
X519442D01*
X518793Y564144D02*
X519642D01*
X518793Y564344D02*
X522067D01*
X518793Y564544D02*
X522267D01*
X518793Y564744D02*
X522467D01*
X518793Y564944D02*
X522667D01*
X518793Y569344D02*
X524793D01*
X518793Y569544D02*
X524793D01*
X518793Y569744D02*
X524793D01*
X518793Y569944D02*
X524793D01*
X518793Y570144D02*
X524793D01*
X518793Y570344D02*
X524793D01*
X518793Y570544D02*
X524793D01*
X513993Y575495D02*
X514043Y575545D01*
X513993Y575495D02*
Y576820D01*
X516493Y574995D02*
X516668D01*
X514043Y575545D02*
X514743D01*
X514042Y575544D02*
Y576869D01*
X514242Y575545D02*
Y577045D01*
X514442Y575545D02*
Y577045D01*
X514642Y575545D02*
Y577045D01*
X518568Y573095D02*
X518793Y572870D01*
X516668Y574995D02*
X518793Y572870D01*
Y570744D02*
X524793D01*
X518793Y570944D02*
X524793D01*
X516493Y574995D02*
X516668D01*
X516642D02*
Y575144D01*
X516668Y574995D02*
X516893Y574770D01*
X516493Y574995D02*
X516743Y575245D01*
Y576245D01*
X518793Y565144D02*
X528167D01*
X518793Y565344D02*
X528367D01*
X518793Y565544D02*
X528567D01*
X518793Y565744D02*
X528693D01*
X518793Y565944D02*
X528693D01*
X518793Y566144D02*
X528693D01*
X518793Y566344D02*
X528693D01*
X518793Y566544D02*
X528693D01*
X518793Y567144D02*
X526969D01*
X518793Y567344D02*
X526769D01*
X518793Y566744D02*
X527369D01*
X518793Y566944D02*
X527169D01*
X518793Y568144D02*
X525969D01*
X518793Y568344D02*
X525769D01*
X518793Y567544D02*
X526569D01*
X518793Y567744D02*
X526369D01*
X518793Y567944D02*
X526169D01*
X517719Y573944D02*
X524793D01*
X517519Y574144D02*
X524793D01*
X517319Y574344D02*
X524793D01*
X517119Y574544D02*
X524793D01*
X516919Y574744D02*
X524793D01*
X516719Y574944D02*
X524793D01*
X516642Y575144D02*
X524793D01*
X516743Y575344D02*
X524793D01*
X518793Y568944D02*
X525169D01*
X518793Y569144D02*
X524969D01*
X518793Y568544D02*
X525569D01*
X518793Y568744D02*
X525369D01*
X518719Y572944D02*
X524793D01*
X518519Y573144D02*
X524793D01*
X518319Y573344D02*
X524793D01*
X517919Y573744D02*
X524793D01*
X518119Y573544D02*
X524793D01*
X513093Y576820D02*
Y577270D01*
Y576820D02*
Y577270D01*
X513993Y575744D02*
X514743D01*
X507443Y576944D02*
X513093D01*
X507443Y577144D02*
X513093D01*
X507443Y577344D02*
X513167D01*
X513093Y577270D02*
X513318Y577495D01*
X513093Y577270D02*
X513318Y577495D01*
X513993Y575944D02*
X514743D01*
Y575545D02*
Y576245D01*
X513993Y576144D02*
X514743D01*
X513993Y576344D02*
X514842D01*
X513993Y576820D02*
X514218Y577045D01*
X514842Y576344D02*
Y577045D01*
X513993Y576544D02*
X515042D01*
X515042Y576544D02*
Y577045D01*
X507044Y578144D02*
X513543D01*
X484569Y578344D02*
X513543D01*
X461028Y578544D02*
X513543D01*
X461668Y578744D02*
X513742D01*
X462877Y579344D02*
X513543D01*
X463173Y579544D02*
X513543D01*
X462147Y578944D02*
X513844D01*
X462540Y579144D02*
X513644D01*
X507443Y577544D02*
X513367D01*
X513318Y577495D02*
X513543Y577720D01*
X507443Y577744D02*
X513543D01*
Y577720D02*
Y578545D01*
X507244Y577944D02*
X513543D01*
X513642Y578644D02*
Y579146D01*
X513543Y578545D02*
X513893Y578895D01*
X513543Y579245D02*
X513893Y578895D01*
X513842Y578844D02*
Y578946D01*
X514743Y576245D02*
X515243Y576745D01*
X513993Y576744D02*
X515242D01*
X515243Y576745D02*
X516243D01*
X515242Y576744D02*
Y577244D01*
X514218Y577045D02*
X515043D01*
X515342Y577344D02*
X520094D01*
X514117Y576944D02*
X524793D01*
X515142Y577144D02*
X524793D01*
X516743Y575544D02*
X524793D01*
X516743Y575744D02*
X524793D01*
X516743Y575944D02*
X524793D01*
X516743Y576144D02*
X524793D01*
X516243Y576745D02*
X516743Y576245D01*
X515442Y576745D02*
Y577444D01*
X516644Y576344D02*
X524793D01*
X516244Y576744D02*
X524793D01*
X516444Y576544D02*
X524793D01*
X515043Y577045D02*
X515543Y577545D01*
X515442Y578646D02*
Y579144D01*
X515344Y578744D02*
X519693D01*
X515193Y578895D02*
X515543Y578545D01*
X515242Y578846D02*
Y578944D01*
X515193Y578895D02*
X515543Y579245D01*
X515242Y578944D02*
X519892D01*
X515442Y579144D02*
X520092D01*
X515543Y577744D02*
X519694D01*
X515543Y577545D02*
Y578545D01*
X515542Y577544D02*
X519894D01*
X515543Y577944D02*
X519693D01*
X515543Y578144D02*
X519693D01*
X515543Y578344D02*
X519693D01*
X515543Y578544D02*
X519693D01*
X515543Y579344D02*
X524793D01*
X515543Y579544D02*
X524669D01*
X519019Y563144D02*
X519243D01*
Y562920D02*
Y563745D01*
X518819Y563344D02*
X519243D01*
Y563745D02*
X519743Y564245D01*
X520743D01*
X521243Y563745D01*
X521044Y563944D02*
X521667D01*
X520844Y564144D02*
X521867D01*
X521243Y563520D02*
Y563745D01*
Y563744D02*
X521467D01*
X521243Y563520D02*
X522493Y564770D01*
X522718Y564995D01*
X522493Y564770D02*
X522718Y564995D01*
X523168D01*
X522718D02*
X523168D01*
X525042D02*
Y569071D01*
X518793Y563370D02*
Y572420D01*
X519842Y564245D02*
Y577596D01*
X520842Y564146D02*
Y577245D01*
X521042Y563946D02*
Y577245D01*
X520242Y564245D02*
Y577245D01*
X520042Y564245D02*
Y577396D01*
X520442Y564245D02*
Y577245D01*
X520642Y564245D02*
Y577245D01*
X521242Y563746D02*
Y577294D01*
X521442Y563719D02*
Y577494D01*
X521642Y563919D02*
Y577694D01*
X524642Y564995D02*
Y579571D01*
X524842Y564995D02*
Y569271D01*
X524793Y569320D02*
Y569770D01*
Y569320D02*
X525018Y569095D01*
X524793Y569320D02*
X525018Y569095D01*
X524793Y569320D02*
Y569770D01*
X525817Y557744D02*
X533869D01*
X526017Y557944D02*
X533669D01*
X525417Y557344D02*
X534269D01*
X525617Y557544D02*
X534069D01*
X523168Y564995D02*
X528018D01*
X527518Y566595D02*
X527968D01*
X526168Y558095D02*
X533518D01*
X527518Y566595D02*
X527968D01*
X527642Y564995D02*
Y566595D01*
X527842Y564995D02*
Y566595D01*
X528018Y564995D02*
X528693Y565670D01*
X528042Y565019D02*
Y566595D01*
X528242Y565219D02*
Y566595D01*
X528442Y565419D02*
Y566595D01*
X527968D02*
X528518D01*
X528642Y565619D02*
Y566595D01*
X528693Y565670D02*
Y566595D01*
X525442Y564995D02*
Y568671D01*
X525242Y564995D02*
Y568871D01*
X525842Y564995D02*
Y568271D01*
X525642Y564995D02*
Y568471D01*
X526242Y564995D02*
Y567871D01*
X526042Y564995D02*
Y568071D01*
X526442Y564995D02*
Y567671D01*
X525018Y569095D02*
X527293Y566820D01*
X526842Y564995D02*
Y567271D01*
X526642Y564995D02*
Y567471D01*
X527242Y564995D02*
Y566871D01*
X527042Y564995D02*
Y567071D01*
X527442Y564995D02*
Y566671D01*
X527293Y566820D02*
X527518Y566595D01*
X528518D02*
X528693D01*
X527293Y566820D02*
X527518Y566595D01*
X528518D02*
X528693D01*
X518793Y571144D02*
X524793D01*
X518793Y571344D02*
X524793D01*
X518793Y571544D02*
X524793D01*
X518793Y571744D02*
X524793D01*
X518793Y571944D02*
X524793D01*
X518793Y572144D02*
X524793D01*
X518793Y572344D02*
X524793D01*
X518793Y572544D02*
X524793D01*
X518793Y572420D02*
Y572870D01*
Y572420D02*
Y572870D01*
Y572744D02*
X524793D01*
X527293Y574744D02*
X527367D01*
X520193Y577245D02*
X521193D01*
X521292Y577344D02*
X524793D01*
X527293Y574670D02*
X527393Y574770D01*
X527293Y574944D02*
X527567D01*
X519693Y577745D02*
X520193Y577245D01*
X519693Y577745D02*
Y578745D01*
X521492Y577544D02*
X524793D01*
X521193Y577245D02*
X521693Y577745D01*
X519693Y578745D02*
X520193Y579245D01*
X521193D01*
X521294Y579144D02*
X524793D01*
X521193Y579245D02*
X521693Y578745D01*
Y577745D02*
Y578745D01*
X524793Y569770D02*
Y579420D01*
X521692Y577744D02*
X524793D01*
X521693Y577944D02*
X524793D01*
X521693Y578144D02*
X524793D01*
X521693Y578344D02*
X524793D01*
X521693Y578544D02*
X524793D01*
X521494Y578944D02*
X524793D01*
X521693Y578744D02*
X524793D01*
X527293Y575144D02*
X528267D01*
X527293Y575344D02*
X528467D01*
X527293Y575544D02*
X528667D01*
X527293Y575744D02*
X528867D01*
X527293Y575944D02*
X529067D01*
X527293Y576144D02*
X529267D01*
X527293Y576344D02*
X529467D01*
X527293Y576544D02*
X529667D01*
X527393Y574770D02*
X527618Y574995D01*
X527393Y574770D02*
X527618Y574995D01*
X528068D01*
X527618D02*
X528068D01*
X528118D01*
X529893Y576770D01*
X527293Y576744D02*
X529867D01*
X529893Y576770D02*
X530118Y576995D01*
X529893Y576770D02*
X530118Y576995D01*
X527293Y576944D02*
X530067D01*
X527293Y577144D02*
X537493D01*
X527293Y577344D02*
X537493D01*
X527293Y577544D02*
X537493D01*
X527293Y577744D02*
X537493D01*
X527293Y578344D02*
X537244D01*
X527293Y577944D02*
X537493D01*
X527293Y578144D02*
X537493D01*
X530118Y576995D02*
X530568D01*
X530118D02*
X530568D01*
X537618D01*
X527293Y578544D02*
X537044D01*
X527293Y578744D02*
X536943D01*
X527293Y578944D02*
X536943D01*
X527293Y579144D02*
X536943D01*
X527293Y579344D02*
X536943D01*
X527293Y579544D02*
X536893D01*
X463437Y579744D02*
X513543D01*
Y579245D02*
Y580245D01*
X463675Y579944D02*
X513543D01*
X463892Y580144D02*
X513543D01*
X464090Y580344D02*
X513642D01*
X464272Y580544D02*
X513842D01*
X513543Y580245D02*
X514043Y580745D01*
X464439Y580744D02*
X514042D01*
X517042Y574621D02*
Y582771D01*
X516842Y574821D02*
Y582971D01*
X517442Y574221D02*
Y582371D01*
X517242Y574421D02*
Y582571D01*
X515543Y579245D02*
Y580245D01*
X514043Y580745D02*
X515043D01*
X515543Y580245D01*
X516042Y576745D02*
Y583045D01*
X513242Y577419D02*
Y586345D01*
X513442Y577619D02*
Y586345D01*
X513642Y580344D02*
Y586345D01*
X513842Y580544D02*
Y586345D01*
X514042Y580744D02*
Y586345D01*
X514242Y580745D02*
Y586345D01*
X514442Y580745D02*
Y586345D01*
X514642Y580745D02*
Y586345D01*
X515842Y576745D02*
Y583146D01*
X515642Y576745D02*
Y583346D01*
X516442Y576546D02*
Y583045D01*
X516642Y576346D02*
Y583045D01*
X514842Y580745D02*
Y586345D01*
X515042Y580745D02*
Y586345D01*
X516242Y576745D02*
Y583045D01*
X515242Y580546D02*
Y586345D01*
X515442Y580346D02*
Y586345D01*
X515244Y580544D02*
X523669D01*
X515044Y580744D02*
X523469D01*
X515543Y579744D02*
X524469D01*
X515444Y580344D02*
X523869D01*
X485943Y581344D02*
X522869D01*
X485943Y581544D02*
X522669D01*
X485642Y580944D02*
X523269D01*
X485842Y581144D02*
X523069D01*
X518442Y573221D02*
Y581595D01*
X518642Y573021D02*
Y581595D01*
X518842Y563321D02*
Y581595D01*
X519042Y563121D02*
Y581595D01*
X518242Y573421D02*
Y581595D01*
X518218D02*
X518668D01*
X515543Y579944D02*
X524269D01*
X515543Y580144D02*
X524069D01*
X518218Y581595D02*
X518668D01*
X517842Y573821D02*
Y581971D01*
X517642Y574021D02*
Y582171D01*
X518042Y573621D02*
Y581771D01*
X517993Y581820D02*
X518218Y581595D01*
X503667Y581744D02*
X518069D01*
X516768Y583045D02*
X517993Y581820D01*
X518668Y581595D02*
X522618D01*
X517993Y581820D02*
X518218Y581595D01*
X519242Y562921D02*
Y581595D01*
X519442Y563944D02*
Y581595D01*
X519642Y564144D02*
Y581595D01*
X519842Y578894D02*
Y581595D01*
X520042Y579094D02*
Y581595D01*
X520242Y579245D02*
Y581595D01*
X520442Y579245D02*
Y581595D01*
X520642Y579245D02*
Y581595D01*
X520842Y579245D02*
Y581595D01*
X504193Y582744D02*
X517069D01*
X504193Y582944D02*
X516869D01*
X504193Y582344D02*
X517469D01*
X504193Y582544D02*
X517269D01*
X504069Y584344D02*
X515443D01*
X503869Y584544D02*
X515443D01*
X504193Y583144D02*
X515844D01*
X503669Y584744D02*
X515642D01*
X504193Y583344D02*
X515644D01*
X504193Y583544D02*
X515444D01*
X515943Y583045D02*
X516768D01*
X515443Y583545D02*
X515943Y583045D01*
X504193Y583744D02*
X515443D01*
Y583545D02*
Y584545D01*
X504193Y583944D02*
X515443D01*
X504193Y584144D02*
X515443D01*
X485943Y584944D02*
X515842D01*
X515642Y584744D02*
Y586345D01*
X515443Y584545D02*
X515943Y585045D01*
X515842Y584944D02*
Y586345D01*
X516042Y585045D02*
Y586345D01*
X516242Y585045D02*
Y586345D01*
X515943Y585045D02*
X516943D01*
X485943Y585144D02*
X517442D01*
X516943Y585045D02*
X517143Y584845D01*
X517042Y584946D02*
Y586345D01*
X517044Y584944D02*
X517242D01*
X517143Y584845D02*
X517443Y585145D01*
X516442Y585045D02*
Y586345D01*
X516642Y585045D02*
Y586345D01*
X516842Y585045D02*
Y586345D01*
X517242Y584944D02*
Y586345D01*
X517442Y585144D02*
Y586345D01*
X503867Y581944D02*
X517869D01*
X504067Y582144D02*
X517669D01*
X517443Y585145D02*
X518443D01*
X485943Y585344D02*
X562043D01*
X485943Y585544D02*
X562043D01*
X485943Y585744D02*
X562043D01*
X485744Y585944D02*
X562043D01*
X485544Y586144D02*
X562043D01*
X518443Y585145D02*
X518643Y584945D01*
X518943Y585245D01*
X519943D02*
X520193Y584995D01*
X520443Y585245D01*
X518444Y585144D02*
X518842D01*
X517642Y585145D02*
Y586345D01*
X520044Y585144D02*
X520342D01*
X518943Y585245D02*
X519943D01*
X520443D02*
X521443D01*
X517842Y585145D02*
Y586345D01*
X518042Y585145D02*
Y586345D01*
X518242Y585145D02*
Y586345D01*
X518642Y584946D02*
Y586345D01*
X518442Y585145D02*
Y586345D01*
X518842Y585144D02*
Y586345D01*
X472843D02*
X562043D01*
X472843Y586344D02*
X562043D01*
X519042Y585245D02*
Y586345D01*
X519242Y585245D02*
Y586345D01*
X520042Y585146D02*
Y586345D01*
X520242Y585044D02*
Y586345D01*
X519442Y585245D02*
Y586345D01*
X519642Y585245D02*
Y586345D01*
X519842Y585245D02*
Y586345D01*
X520442Y585244D02*
Y586345D01*
X520642Y585245D02*
Y586345D01*
X522842Y564995D02*
Y581371D01*
X522642Y564919D02*
Y581571D01*
X523242Y564995D02*
Y580971D01*
X523042Y564995D02*
Y581171D01*
X523442Y564995D02*
Y580771D01*
X521042Y579245D02*
Y581595D01*
X523842Y564995D02*
Y580371D01*
X523642Y564995D02*
Y580571D01*
X524242Y564995D02*
Y579971D01*
X524042Y564995D02*
Y580171D01*
X524442Y564995D02*
Y579771D01*
X527293Y574670D02*
Y580320D01*
Y580770D01*
Y580320D02*
Y580770D01*
X527068Y580995D02*
X527293Y580770D01*
X527068Y580995D02*
X527293Y580770D01*
X521842Y564119D02*
Y581595D01*
X522042Y564319D02*
Y581595D01*
X522242Y564519D02*
Y581595D01*
X522442Y564719D02*
Y581595D01*
X521242Y579196D02*
Y581595D01*
X521442Y578996D02*
Y581595D01*
X521642Y578796D02*
Y581595D01*
X522618D02*
X524793Y579420D01*
X527442Y574819D02*
Y586345D01*
X527642Y574995D02*
Y586345D01*
X527842Y574995D02*
Y586345D01*
X528042Y574995D02*
Y586345D01*
X528242Y575119D02*
Y586345D01*
X528442Y575319D02*
Y586345D01*
X528642Y575519D02*
Y586345D01*
X528842Y575719D02*
Y586345D01*
X529042Y575919D02*
Y586345D01*
X529242Y576119D02*
Y586345D01*
X529442Y576319D02*
Y586345D01*
X527293Y579744D02*
X536893D01*
X527293Y579944D02*
X536893D01*
X527293Y580144D02*
X536893D01*
X527293Y580344D02*
X536893D01*
X527293Y580544D02*
X536893D01*
X527293Y580744D02*
X536893D01*
X529642Y576519D02*
Y586345D01*
X529842Y576719D02*
Y586345D01*
X530042Y576919D02*
Y586345D01*
X530242Y576995D02*
Y586345D01*
X530442Y576995D02*
Y586345D01*
X530642Y576995D02*
Y586345D01*
X530842Y576995D02*
Y586345D01*
X531042Y576995D02*
Y586345D01*
X531242Y576995D02*
Y586345D01*
X531442Y576995D02*
Y586345D01*
X531642Y576995D02*
Y586345D01*
X531842Y576995D02*
Y586345D01*
X532042Y576995D02*
Y586345D01*
X532242Y576995D02*
Y586345D01*
X532442Y576995D02*
Y586345D01*
X532642Y576995D02*
Y586345D01*
X532842Y576995D02*
Y586345D01*
X533042Y576995D02*
Y586345D01*
X533242Y576995D02*
Y586345D01*
X533442Y576995D02*
Y586345D01*
X533642Y576995D02*
Y586345D01*
X533842Y576995D02*
Y586345D01*
X534042Y576995D02*
Y586345D01*
X534242Y576995D02*
Y586345D01*
X534442Y576995D02*
Y586345D01*
X534642Y576995D02*
Y586345D01*
X521443Y585245D02*
X521693Y584995D01*
X521642Y585046D02*
Y586345D01*
X521544Y585144D02*
X521842D01*
X521693Y584995D02*
X521943Y585245D01*
X520842D02*
Y586345D01*
X521042Y585245D02*
Y586345D01*
X521242Y585245D02*
Y586345D01*
X521442Y585245D02*
Y586345D01*
X523443Y584095D02*
X523518D01*
X523443D02*
Y584745D01*
X523968Y584095D02*
X524193Y583870D01*
X523968Y584095D02*
X524193Y583870D01*
X521943Y585245D02*
X522943D01*
X523443Y584745D01*
X523518Y584095D02*
X523968D01*
X523518D02*
X523968D01*
X521842Y585144D02*
Y586345D01*
X522042Y585245D02*
Y586345D01*
X523042Y585146D02*
Y586345D01*
X523242Y584946D02*
Y586345D01*
X522242Y585245D02*
Y586345D01*
X522442Y585245D02*
Y586345D01*
X522642Y585245D02*
Y586345D01*
X522842Y585245D02*
Y586345D01*
X524442Y583621D02*
Y586345D01*
X524642Y583421D02*
Y586345D01*
X524842Y583221D02*
Y586345D01*
X525042Y583021D02*
Y586345D01*
X523442Y584746D02*
Y586345D01*
X523642Y584095D02*
Y586345D01*
X523842Y584095D02*
Y586345D01*
X524042Y584021D02*
Y586345D01*
X524242Y583821D02*
Y586345D01*
X525319Y582744D02*
X536893D01*
X524193Y583870D02*
X527068Y580995D01*
X525119Y582944D02*
X536893D01*
X524919Y583144D02*
X536893D01*
X524719Y583344D02*
X536893D01*
X524519Y583544D02*
X536893D01*
X524319Y583744D02*
X536893D01*
X524119Y583944D02*
X536943D01*
X527119Y580944D02*
X536893D01*
X526919Y581144D02*
X536893D01*
X526719Y581344D02*
X536893D01*
X526519Y581544D02*
X536893D01*
X526319Y581744D02*
X536893D01*
X526119Y581944D02*
X536893D01*
X525919Y582144D02*
X536893D01*
X525519Y582544D02*
X536893D01*
X525719Y582344D02*
X536893D01*
X525242Y582821D02*
Y586345D01*
X525442Y582621D02*
Y586345D01*
X523443Y584144D02*
X536943D01*
X523443Y584344D02*
X536943D01*
X523443Y584544D02*
X536943D01*
X523443Y584744D02*
X537042D01*
X523244Y584944D02*
X537242D01*
X523044Y585144D02*
X537442D01*
X526642Y581421D02*
Y586345D01*
X526842Y581221D02*
Y586345D01*
X527042Y581021D02*
Y586345D01*
X527242Y580821D02*
Y586345D01*
X525642Y582421D02*
Y586345D01*
X525842Y582221D02*
Y586345D01*
X526042Y582021D02*
Y586345D01*
X526242Y581821D02*
Y586345D01*
X526442Y581621D02*
Y586345D01*
X534842Y523145D02*
Y535095D01*
X535042Y523145D02*
Y535095D01*
X535242Y523145D02*
Y535095D01*
X535442Y523145D02*
Y535095D01*
X535642Y523145D02*
Y535095D01*
X535842Y523145D02*
Y535095D01*
X536042Y523145D02*
Y535095D01*
X536242Y523145D02*
Y535095D01*
X536442Y523145D02*
Y535095D01*
X536642Y523145D02*
Y535095D01*
X540042Y523145D02*
Y531046D01*
X536842Y523145D02*
Y535095D01*
X540242Y523145D02*
Y530846D01*
X539843Y531245D02*
Y532245D01*
Y531245D02*
X540343Y530745D01*
X539843Y532245D02*
X540343Y532745D01*
X537042Y523145D02*
Y535095D01*
X537242Y523145D02*
Y535095D01*
X537442Y523145D02*
Y535095D01*
X537642Y523145D02*
Y535095D01*
X537842Y523145D02*
Y535095D01*
X538042Y523145D02*
Y535095D01*
X538242Y523145D02*
Y535095D01*
X538442Y523145D02*
Y535095D01*
X538642Y523145D02*
Y535095D01*
X538842Y523145D02*
Y535095D01*
X539042Y523145D02*
Y535095D01*
X539242Y523145D02*
Y535095D01*
X539442Y523145D02*
Y535095D01*
X539642Y523145D02*
Y535095D01*
X539842Y523145D02*
Y535095D01*
X540042Y532444D02*
Y535095D01*
X540242Y532644D02*
Y535071D01*
X540442Y523145D02*
Y530745D01*
X540642Y523145D02*
Y530745D01*
X534785Y523145D02*
X562043D01*
X540842D02*
Y530745D01*
X541042Y523145D02*
Y530745D01*
X540343Y532745D02*
X541168D01*
X541242Y523145D02*
Y530745D01*
X540343D02*
X541343D01*
X541442Y523145D02*
Y530844D01*
X541642Y523145D02*
Y531044D01*
X541842Y523145D02*
Y531244D01*
X542042Y523145D02*
Y532269D01*
X541343Y530745D02*
X541843Y531245D01*
Y532070D01*
X542242Y523145D02*
Y532469D01*
X542442Y523145D02*
Y532669D01*
X542642Y523145D02*
Y532869D01*
X540442Y532745D02*
Y534871D01*
X541843Y532070D02*
X542668Y532895D01*
X542842Y523145D02*
Y533069D01*
X540842Y532745D02*
Y533646D01*
X540642Y532745D02*
Y533846D01*
X541042Y532745D02*
Y533545D01*
X541168Y532745D02*
X541993Y533570D01*
X543042Y523145D02*
Y535095D01*
X543242Y523145D02*
Y535095D01*
X543442Y523145D02*
Y535095D01*
X543642Y523145D02*
Y535095D01*
X544042Y523145D02*
Y534946D01*
X543842Y523145D02*
Y535095D01*
X544442Y523145D02*
Y534546D01*
X544242Y523145D02*
Y534746D01*
X544642Y523145D02*
Y534545D01*
X541242Y532819D02*
Y533545D01*
X540443Y534045D02*
X540943Y533545D01*
X541442Y533019D02*
Y533545D01*
X540943D02*
X541943D01*
X540443Y534045D02*
Y534870D01*
X540218Y535095D02*
X540443Y534870D01*
X541118Y535545D02*
X541168D01*
X541042Y535621D02*
Y535671D01*
X542668Y532895D02*
X542893Y533120D01*
X542668Y532895D02*
X542893Y533120D01*
Y533570D01*
Y533120D02*
Y533570D01*
X541642Y533219D02*
Y533545D01*
X541842Y533419D02*
Y533545D01*
X541943D02*
X541993Y533595D01*
X542893Y533570D02*
Y534720D01*
X540218Y535995D02*
X540668D01*
X540042D02*
Y536671D01*
X540218Y535995D02*
X540668D01*
X540118Y536595D02*
X541168Y535545D01*
X539893Y536820D02*
Y537270D01*
Y536820D02*
Y537270D01*
Y536820D02*
X540118Y536595D01*
X539893Y536820D02*
X540118Y536595D01*
X540668Y535995D02*
X540893Y535770D01*
X540668Y535995D02*
X540893Y535770D01*
X540919Y535744D02*
X540969D01*
X540893Y535770D02*
X541118Y535545D01*
X540442Y535995D02*
Y536271D01*
X540242Y535995D02*
Y536471D01*
X540842Y535821D02*
Y535871D01*
X540642Y535995D02*
Y536071D01*
X540719Y535944D02*
X540769D01*
X542893Y534720D02*
Y535095D01*
Y534720D02*
Y535095D01*
Y534744D02*
X544244D01*
X542893Y534944D02*
X544044D01*
X542893Y535095D02*
X543068D01*
X542893D02*
X543068D01*
X542719Y536344D02*
X544242D01*
X542519Y536544D02*
X544442D01*
X543943Y535045D02*
Y535095D01*
X543068D02*
X543943D01*
X544443Y534545D02*
X545443D01*
X543943Y535045D02*
X544443Y534545D01*
X543068Y535995D02*
X543943D01*
Y536045D01*
X542919Y536144D02*
X544042D01*
X543943Y536045D02*
X544443Y536545D01*
X545443D01*
X541793Y537270D02*
X543068Y535995D01*
X541793Y537544D02*
X554943D01*
X541793Y537344D02*
X555044D01*
X541793Y537744D02*
X554943D01*
X541793Y538344D02*
X554344D01*
X541793Y538544D02*
X554144D01*
X541793Y537944D02*
X554943D01*
X541793Y538144D02*
X554943D01*
X541919Y537144D02*
X555244D01*
X541793Y538744D02*
X554043D01*
X542319Y536744D02*
X558267D01*
X542119Y536944D02*
X558467D01*
X541793Y539544D02*
X553444D01*
X541793Y539744D02*
X553244D01*
X541793Y538944D02*
X554043D01*
X541793Y539144D02*
X554043D01*
X541793Y539344D02*
X554043D01*
X544842Y523145D02*
Y534545D01*
X545042Y523145D02*
Y534545D01*
X545242Y523145D02*
Y534545D01*
X545442Y523145D02*
Y534545D01*
X545642Y523145D02*
Y534744D01*
X545842Y523145D02*
Y534944D01*
X545642Y534744D02*
X557044D01*
X545443Y534545D02*
X545943Y535045D01*
X556842Y523145D02*
Y534946D01*
X555442Y523145D02*
Y536946D01*
X557242Y523145D02*
Y534546D01*
X557042Y523145D02*
Y534746D01*
X545943Y535045D02*
Y536045D01*
X556743Y535045D02*
Y536045D01*
X545842Y534944D02*
X556844D01*
X545943Y535144D02*
X556743D01*
X553442Y523145D02*
Y539546D01*
X553242Y523145D02*
Y539746D01*
X553642Y523145D02*
Y539346D01*
X553842Y523145D02*
Y539345D01*
X554242Y523145D02*
Y538446D01*
X554042Y523145D02*
Y539345D01*
X554642Y523145D02*
Y538145D01*
X554442Y523145D02*
Y538246D01*
X555042Y523145D02*
Y537346D01*
X554842Y523145D02*
Y538145D01*
X555642Y523145D02*
Y536945D01*
X555242Y523145D02*
Y537146D01*
X555842Y523145D02*
Y536945D01*
X556042Y523145D02*
Y536945D01*
X556242Y523145D02*
Y536945D01*
X556442Y523145D02*
Y536945D01*
X556642Y523145D02*
Y537144D01*
X557442Y523145D02*
Y534545D01*
X557642Y523145D02*
Y534545D01*
X557842Y523145D02*
Y534545D01*
X558042Y523145D02*
Y534545D01*
X558242Y523145D02*
Y534545D01*
X556743Y535045D02*
X557243Y534545D01*
X558243D01*
X558743Y535045D01*
X558442Y523145D02*
Y534744D01*
X558642Y523145D02*
Y534944D01*
X562043Y523145D02*
Y524745D01*
Y524945D01*
X558743Y535045D02*
Y535870D01*
X562242Y525892D02*
Y535646D01*
X562442Y526343D02*
Y535645D01*
X562642Y526672D02*
Y535645D01*
X558842Y523145D02*
Y535969D01*
X559042Y523145D02*
Y536169D01*
X559242Y523145D02*
Y536195D01*
X559442Y523145D02*
Y536195D01*
X559642Y523145D02*
Y536195D01*
X559842Y523145D02*
Y536195D01*
X560042Y523145D02*
Y536195D01*
X560242Y523145D02*
Y536195D01*
X560442Y523145D02*
Y536195D01*
X560642Y523145D02*
Y536195D01*
X560842Y523145D02*
Y536195D01*
X561042Y523145D02*
Y536195D01*
X561242Y523145D02*
Y536195D01*
X561442Y523145D02*
Y536195D01*
X562042Y523145D02*
Y535846D01*
X561642Y523145D02*
Y536195D01*
X561842Y523145D02*
Y536046D01*
X545943Y535344D02*
X556743D01*
X545943Y535544D02*
X556743D01*
X545943Y535744D02*
X556743D01*
X545943Y535944D02*
X556743D01*
X545844Y536144D02*
X556842D01*
X545443Y536545D02*
X545943Y536045D01*
X545644Y536344D02*
X557042D01*
X545444Y536544D02*
X557242D01*
X556743Y536045D02*
X557243Y536545D01*
X557242Y536544D02*
Y537195D01*
X557243Y536545D02*
X558068D01*
X557442D02*
Y537195D01*
X555443Y536945D02*
X556443D01*
X557642Y536545D02*
Y537195D01*
X557218D02*
X557668D01*
X557218D02*
X557668D01*
X554943Y537445D02*
Y538145D01*
X554043Y538645D02*
X554543Y538145D01*
X554943Y537445D02*
X555443Y536945D01*
X556443D02*
X556943Y537445D01*
X554043Y538645D02*
Y539345D01*
X553143Y539845D02*
X553643Y539345D01*
X554543Y538145D02*
X554943D01*
X553643Y539345D02*
X554043D01*
X556842Y536144D02*
Y537344D01*
X557042Y536344D02*
Y537371D01*
X557842Y536545D02*
Y537195D01*
X558042Y536545D02*
Y537195D01*
X556842Y537344D02*
X557069D01*
X556943Y537470D02*
X556993Y537420D01*
X558242Y536719D02*
Y537195D01*
X556993Y537420D02*
X557218Y537195D01*
X556993Y537420D02*
X557218Y537195D01*
X558068Y536545D02*
X558393Y536870D01*
X558442Y536919D02*
Y537195D01*
X558393Y536870D02*
X558618Y537095D01*
X558393Y536870D02*
X558618Y537095D01*
X559068D01*
X558642D02*
Y537195D01*
X558618Y537095D02*
X559068D01*
X556642Y537144D02*
X561743D01*
X558817Y535944D02*
X561944D01*
X558743Y535870D02*
X559068Y536195D01*
X558743Y535744D02*
X562144D01*
X561743Y536145D02*
X562243Y535645D01*
X559017Y536144D02*
X561744D01*
X559068Y536195D02*
X561743D01*
Y536145D02*
Y536195D01*
X559068Y537095D02*
X561743D01*
Y537145D01*
X558842Y537095D02*
Y537195D01*
X559042Y537095D02*
Y537195D01*
X559242Y537095D02*
Y537195D01*
X559442Y537095D02*
Y537195D01*
X559642Y537095D02*
Y537195D01*
X559842Y537095D02*
Y537195D01*
X560042Y537095D02*
Y537195D01*
X557668D02*
X561793D01*
X560242Y537095D02*
Y537195D01*
X560442Y537095D02*
Y537195D01*
X560642Y537095D02*
Y537195D01*
X560842Y537095D02*
Y537195D01*
X561042Y537095D02*
Y537195D01*
X561242Y537095D02*
Y537195D01*
X561442Y537095D02*
Y537195D01*
X561642Y537095D02*
Y537195D01*
X561743Y537145D02*
X561793Y537195D01*
X534842Y535995D02*
Y547944D01*
X535042Y535995D02*
Y548144D01*
X537442Y535995D02*
Y551546D01*
X535242Y535995D02*
Y551744D01*
X537842Y535995D02*
Y551345D01*
X537642Y535995D02*
Y551346D01*
X538042Y535995D02*
Y551345D01*
X538242Y535995D02*
Y551345D01*
X538442Y535995D02*
Y551345D01*
X538642Y535995D02*
Y551345D01*
X539893Y537270D02*
Y544620D01*
X538842Y535995D02*
Y551544D01*
X539893Y544620D02*
Y545070D01*
Y544620D02*
Y545070D01*
X540118Y545295D01*
X539893Y545070D02*
X540118Y545295D01*
X535442Y535995D02*
Y556895D01*
X535642Y535995D02*
Y556895D01*
X535842Y535995D02*
Y556895D01*
X536042Y535995D02*
Y556969D01*
X536242Y535995D02*
Y557169D01*
X536442Y535995D02*
Y557369D01*
X536642Y535995D02*
Y557569D01*
X536842Y535995D02*
Y561269D01*
X537242Y535995D02*
Y551746D01*
X537042Y535995D02*
Y561469D01*
X539042Y535995D02*
Y551744D01*
X539242Y535995D02*
Y564344D01*
X539442Y535995D02*
Y564544D01*
X539642Y535995D02*
Y564744D01*
X540242Y545419D02*
Y565471D01*
X539842Y535995D02*
Y565745D01*
X540042Y545219D02*
Y565944D01*
X541793Y539944D02*
X553143D01*
X541793Y540144D02*
X553143D01*
X541793Y540344D02*
X553143D01*
X541793Y540544D02*
X553143D01*
X541793Y541144D02*
X552243D01*
X541793Y541344D02*
X552243D01*
X541793Y540744D02*
X552544D01*
X541793Y540944D02*
X552344D01*
X541793Y541944D02*
X551644D01*
X541793Y542144D02*
X551444D01*
X541793Y541544D02*
X552243D01*
X541793Y541744D02*
X552243D01*
X541793Y542344D02*
X551343D01*
X541793Y543144D02*
X550744D01*
X541793Y542544D02*
X551343D01*
X541793Y542744D02*
X551343D01*
X541793Y542944D02*
X551343D01*
X541793Y537270D02*
Y543345D01*
X541842Y537221D02*
Y543345D01*
X541793D02*
X541843D01*
X541793Y543344D02*
X550544D01*
X540118Y545295D02*
X540343Y545520D01*
Y546345D01*
X541843Y543345D02*
X542343Y543845D01*
X540343Y546345D02*
X540843Y546845D01*
X542042Y537021D02*
Y543544D01*
X542242Y536821D02*
Y543744D01*
X542042Y543544D02*
X550443D01*
X542242Y543744D02*
X550443D01*
X542093Y545095D02*
X542343Y544845D01*
X542093Y545095D02*
X542343Y545345D01*
X542244Y544944D02*
X549543D01*
X541843Y546845D02*
X542343Y546345D01*
X542142Y545144D02*
X549543D01*
X535043Y548145D02*
Y549145D01*
X534842Y549346D02*
Y551345D01*
X535042Y549146D02*
Y551544D01*
X534843Y551345D02*
X535343Y551845D01*
X535242Y551744D02*
X537244D01*
X535343Y551944D02*
X537143D01*
X535042Y551544D02*
X537444D01*
X535244Y552944D02*
X537242D01*
X535343Y551845D02*
Y552845D01*
X537143Y551845D02*
Y552845D01*
X537643Y551345D02*
X538643D01*
X537143Y551845D02*
X537643Y551345D01*
X535343Y552144D02*
X537143D01*
X535343Y552344D02*
X537143D01*
X535343Y552544D02*
X537143D01*
X535343Y552744D02*
X537143D01*
X534843Y553345D02*
X535343Y552845D01*
X535242Y552946D02*
Y556895D01*
X537143Y552845D02*
X537643Y553345D01*
X537242Y552944D02*
Y561669D01*
X534842Y553345D02*
Y556895D01*
X535042Y553146D02*
Y556895D01*
X535044Y553144D02*
X537442D01*
X534844Y553344D02*
X537642D01*
X537442Y553144D02*
Y561869D01*
X537642Y553344D02*
Y561995D01*
X537643Y553345D02*
X538643D01*
X538842Y553146D02*
Y562769D01*
X537842Y553345D02*
Y561995D01*
X538042Y553345D02*
Y561995D01*
X538242Y553345D02*
Y562169D01*
X538442Y553345D02*
Y562369D01*
X538642Y553345D02*
Y562569D01*
X535043Y548344D02*
X546843D01*
X535043Y548544D02*
X546843D01*
X534842Y547944D02*
X547144D01*
X535042Y548144D02*
X546944D01*
X535043Y549144D02*
X546244D01*
X534844Y549344D02*
X546044D01*
X535043Y548744D02*
X546843D01*
X535043Y548944D02*
X546843D01*
X540843Y546845D02*
X541843D01*
X538643Y551345D02*
X539143Y551845D01*
X542144Y546544D02*
X548643D01*
X541944Y546744D02*
X548044D01*
X539143Y551944D02*
X544143D01*
X539143Y552144D02*
X544143D01*
X538842Y551544D02*
X544444D01*
X539042Y551744D02*
X544244D01*
X539143Y552344D02*
X544143D01*
X539143Y551845D02*
Y552845D01*
X538643Y553345D02*
X539143Y552845D01*
Y552544D02*
X544143D01*
X539143Y552744D02*
X543544D01*
X538844Y553144D02*
X543243D01*
X539042Y552946D02*
Y562969D01*
X539044Y552944D02*
X543344D01*
X538644Y553344D02*
X543243D01*
X540642Y546644D02*
Y565071D01*
X540442Y546444D02*
Y565271D01*
X542042Y546646D02*
Y554945D01*
X540842Y546844D02*
Y564871D01*
X541242Y546845D02*
Y564471D01*
X541042Y546845D02*
Y564671D01*
X541842Y546845D02*
Y555046D01*
X541442Y546845D02*
Y564271D01*
X541642Y546845D02*
Y555246D01*
X546242Y523145D02*
Y549146D01*
X546042Y523145D02*
Y549346D01*
X546442Y523145D02*
Y548946D01*
X546642Y523145D02*
Y548945D01*
X542343Y543845D02*
Y544845D01*
X545642Y536346D02*
Y550145D01*
X547042Y523145D02*
Y548046D01*
X546842Y523145D02*
Y548945D01*
X547442Y523145D02*
Y547745D01*
X547242Y523145D02*
Y547846D01*
X547842Y523145D02*
Y546946D01*
X547642Y523145D02*
Y547745D01*
X548242Y523145D02*
Y546546D01*
X548042Y523145D02*
Y546746D01*
X548442Y523145D02*
Y546545D01*
X548642Y523145D02*
Y546545D01*
X543042Y536021D02*
Y553745D01*
X543242Y535995D02*
Y553745D01*
X543642Y535995D02*
Y552646D01*
X543442Y535995D02*
Y552846D01*
X542642Y536421D02*
Y553946D01*
X542442Y536621D02*
Y554146D01*
X543842Y535995D02*
Y552545D01*
X542842Y536221D02*
Y553746D01*
X544242Y536344D02*
Y551746D01*
X544042Y536144D02*
Y552545D01*
X545842Y536146D02*
Y550145D01*
X544442Y536544D02*
Y551546D01*
X544842Y536545D02*
Y551345D01*
X544642Y536545D02*
Y551346D01*
X545442Y536545D02*
Y550246D01*
X545042Y536545D02*
Y551345D01*
X545242Y536545D02*
Y550446D01*
X551042Y523145D02*
Y542945D01*
X551242Y523145D02*
Y542945D01*
X551642Y523145D02*
Y541946D01*
X551442Y523145D02*
Y542146D01*
X551842Y523145D02*
Y541746D01*
X551343Y542245D02*
X551843Y541745D01*
X552042Y523145D02*
Y541745D01*
X551843D02*
X552243D01*
X552442Y523145D02*
Y540846D01*
X552242Y523145D02*
Y541745D01*
X552842Y523145D02*
Y540545D01*
X552642Y523145D02*
Y540646D01*
X552243Y541045D02*
X552743Y540545D01*
X552243Y541045D02*
Y541745D01*
X553042Y523145D02*
Y540545D01*
X552743D02*
X553143D01*
Y539845D02*
Y540545D01*
X549042Y523145D02*
Y545446D01*
X548842Y523145D02*
Y545646D01*
X549242Y523145D02*
Y545345D01*
X549442Y523145D02*
Y545345D01*
X549842Y523145D02*
Y544346D01*
X549642Y523145D02*
Y544546D01*
X542343Y543944D02*
X550443D01*
X542343Y544144D02*
X550443D01*
X550042Y523145D02*
Y544146D01*
X550242Y523145D02*
Y544145D01*
X550642Y523145D02*
Y543246D01*
X550442Y523145D02*
Y544145D01*
X550842Y523145D02*
Y543046D01*
X550443Y543445D02*
Y544145D01*
X551343Y542245D02*
Y542945D01*
X550443Y543445D02*
X550943Y542945D01*
X551343D01*
X542343Y544744D02*
X549543D01*
X542242Y544946D02*
Y545244D01*
X542343Y544544D02*
X549644D01*
X542342Y545344D02*
X549543D01*
X542343Y545944D02*
X548643D01*
X542343Y546144D02*
X548643D01*
X542343Y545544D02*
X548944D01*
X542343Y545744D02*
X548744D01*
X548643Y545845D02*
X549143Y545345D01*
X542343D02*
Y546345D01*
X549543Y544645D02*
Y545345D01*
X549143D02*
X549543D01*
X548643Y545845D02*
Y546545D01*
X547743Y547045D02*
X548243Y546545D01*
X542343Y546344D02*
X548643D01*
X548243Y546545D02*
X548643D01*
X544143Y551845D02*
X544643Y551345D01*
X542242Y546446D02*
Y554945D01*
X545043Y550645D02*
X545543Y550145D01*
X544643Y551345D02*
X545043D01*
X543243Y553045D02*
X543743Y552545D01*
X543243Y553045D02*
Y553745D01*
X544143Y551845D02*
Y552545D01*
X543743D02*
X544143D01*
X546843Y548245D02*
X547343Y547745D01*
X546843Y548245D02*
Y548945D01*
X547743Y547045D02*
Y547745D01*
X547343D02*
X547743D01*
X545943Y549445D02*
Y550145D01*
X545043Y550645D02*
Y551345D01*
X546443Y548945D02*
X546843D01*
X545543Y550145D02*
X545943D01*
Y549445D02*
X546443Y548945D01*
X542343Y544344D02*
X549844D01*
X549543Y544645D02*
X550043Y544145D01*
X550443D01*
X554693Y556170D02*
X557668Y553195D01*
X557242Y553621D02*
Y563995D01*
X557442Y553421D02*
Y563995D01*
X557519Y553344D02*
X561842D01*
X557319Y553544D02*
X562042D01*
X557842Y553195D02*
Y563995D01*
X558042Y553195D02*
Y563995D01*
X557668Y553195D02*
X561743D01*
X558242D02*
Y563995D01*
X557642Y553221D02*
Y563995D01*
X558442Y553195D02*
Y563995D01*
X561743Y553195D02*
Y553245D01*
X558642Y553195D02*
Y563995D01*
X561743Y553245D02*
X562243Y553745D01*
X558842Y553195D02*
Y563995D01*
X559042Y553195D02*
Y563995D01*
X559242Y553195D02*
Y563995D01*
X559442Y553195D02*
Y563995D01*
X559642Y553195D02*
Y563995D01*
X559842Y553195D02*
Y563995D01*
X560042Y553195D02*
Y563995D01*
X560242Y553195D02*
Y563995D01*
X560442Y553195D02*
Y563995D01*
X560642Y553195D02*
Y563995D01*
X560842Y553195D02*
Y563995D01*
X561042Y553195D02*
Y563995D01*
X561242Y553195D02*
Y563995D01*
X561442Y553195D02*
Y563995D01*
X561642Y553195D02*
Y564069D01*
X561842Y553344D02*
Y564269D01*
X562042Y553544D02*
Y564469D01*
X541542Y530944D02*
X565843D01*
X541742Y531144D02*
X565843D01*
X541843Y531344D02*
X565843D01*
X541843Y531544D02*
X565843D01*
X541843Y531744D02*
X565843D01*
X541843Y531944D02*
X565843D01*
X541917Y532144D02*
X565843D01*
X542117Y532344D02*
X565843D01*
X565642Y528139D02*
Y528846D01*
X565443Y529045D02*
Y530045D01*
X565842Y528121D02*
Y528646D01*
X565443Y530045D02*
X565843Y530445D01*
X542317Y532544D02*
X565843D01*
X542517Y532744D02*
X565843D01*
X542717Y532944D02*
X565843D01*
X542893Y533144D02*
X565843D01*
X562842Y526935D02*
Y535645D01*
X563042Y527152D02*
Y535645D01*
X563242Y527337D02*
Y535645D01*
X563442Y527494D02*
Y535844D01*
X562243Y535645D02*
X563243D01*
X563642Y527629D02*
Y536044D01*
X542893Y533344D02*
X565843D01*
X563243Y535645D02*
X563743Y536145D01*
X563842Y527745D02*
Y536645D01*
X564042Y527843D02*
Y536645D01*
X564242Y527926D02*
Y536645D01*
X564442Y527994D02*
Y536645D01*
X563743Y536145D02*
Y536645D01*
X564443D01*
X564642Y528049D02*
Y536844D01*
X564443Y536645D02*
X564943Y537145D01*
X564842Y528091D02*
Y537044D01*
X566442Y527995D02*
Y528545D01*
X566642Y527926D02*
Y528545D01*
X566594Y527944D02*
X569043D01*
X566042Y528092D02*
Y528545D01*
X566242Y528050D02*
Y528545D01*
X565511Y528144D02*
X569043D01*
X565943Y528545D02*
X566943D01*
X567442Y527495D02*
Y528646D01*
X567242Y527630D02*
Y528844D01*
X567373Y527544D02*
X569043D01*
X567044Y527744D02*
X569043D01*
X566842Y527844D02*
Y528545D01*
X567042Y527745D02*
Y528644D01*
X567142Y528744D02*
X567344D01*
X566943Y528545D02*
X567243Y528845D01*
X567243Y528845D02*
X567543Y528545D01*
X542893Y533544D02*
X565843D01*
X542893Y533744D02*
X565843D01*
X542893Y533944D02*
X565843D01*
X542893Y534144D02*
X565843D01*
X542893Y534344D02*
X565843D01*
X542893Y534544D02*
X565843D01*
X558442Y534744D02*
X565843D01*
X558642Y534944D02*
X565843D01*
X558743Y535144D02*
X565843D01*
X558743Y535344D02*
X565843D01*
X565443Y529045D02*
X565943Y528545D01*
X558743Y535544D02*
X565843D01*
X563342Y535744D02*
X565843D01*
X563542Y535944D02*
X565843D01*
X563742Y536144D02*
X565843D01*
X563743Y536344D02*
X565843D01*
X563743Y536544D02*
X565843D01*
X563743Y538645D02*
Y538745D01*
X563842Y538645D02*
Y538745D01*
X563743Y538645D02*
X564443D01*
X564943Y538145D01*
X564042Y538645D02*
Y538745D01*
X564242Y538645D02*
Y538745D01*
X564442Y538645D02*
Y538745D01*
X563743D02*
X564443D01*
X564542Y536744D02*
X565843D01*
X564943Y537145D02*
Y538145D01*
X564742Y536944D02*
X565843D01*
X564942Y537144D02*
X565843D01*
X564943Y537344D02*
X565843D01*
X564642Y538446D02*
Y538944D01*
X564943Y537544D02*
X565843D01*
X564943Y537744D02*
X565843D01*
X563743Y540745D02*
X564443D01*
X563743D02*
X564443D01*
X564443Y538745D02*
X564943Y539245D01*
X564443Y540745D02*
X564943Y540245D01*
X563743Y542745D02*
X564443D01*
X563743Y542745D02*
X564443D01*
Y540745D02*
X564943Y541245D01*
X564443Y542745D02*
X564943Y542245D01*
X564842Y538246D02*
Y539144D01*
X564642Y540546D02*
Y540944D01*
X564943Y539245D02*
Y540245D01*
X564842Y540346D02*
Y541144D01*
X564642Y542546D02*
Y542944D01*
X564842Y542346D02*
Y543144D01*
X564943Y541245D02*
Y542245D01*
X564443Y542745D02*
X564943Y543245D01*
Y544245D01*
X564744Y538344D02*
X565843D01*
X564544Y538544D02*
X565843D01*
X563743Y538744D02*
X565843D01*
X564642Y538944D02*
X565843D01*
X564842Y539144D02*
X565843D01*
X564644Y540544D02*
X565843D01*
X564444Y540744D02*
X565843D01*
X564642Y540944D02*
X565843D01*
X564943Y537944D02*
X565843D01*
X564943Y538144D02*
X565843D01*
X564943Y539344D02*
X565843D01*
X564943Y539544D02*
X565843D01*
X564943Y539744D02*
X565843D01*
X564943Y539944D02*
X565843D01*
X564943Y540144D02*
X565843D01*
X564844Y540344D02*
X565843D01*
X564842Y541144D02*
X565843D01*
X564943Y541344D02*
X565843D01*
X564844Y542344D02*
X565843D01*
X564644Y542544D02*
X565843D01*
X564444Y542744D02*
X565843D01*
X564642Y542944D02*
X565843D01*
X564842Y543144D02*
X565843D01*
X564844Y544344D02*
X565843D01*
X564644Y544544D02*
X565843D01*
X564943Y541544D02*
X565843D01*
X564943Y541744D02*
X565843D01*
X564943Y541944D02*
X565843D01*
X564943Y542144D02*
X565843D01*
X564943Y543344D02*
X565843D01*
X564943Y543544D02*
X565843D01*
X564943Y543744D02*
X565843D01*
X564943Y543944D02*
X565843D01*
X564943Y544144D02*
X565843D01*
X568843Y523145D02*
X569043D01*
X568843Y523344D02*
X569043D01*
X568843Y523544D02*
X569043D01*
X568843Y523744D02*
X569043D01*
X568843Y523944D02*
X569043D01*
X568790Y525344D02*
X569043D01*
X568748Y525544D02*
X569043D01*
X568693Y525744D02*
X569043D01*
X568843Y524144D02*
X569043D01*
X568843Y523145D02*
Y524945D01*
Y524344D02*
X569043D01*
X568843Y524544D02*
X569043D01*
X568843Y524744D02*
X569043D01*
X568843Y524944D02*
X569043D01*
X568820Y525144D02*
X569043D01*
X568443Y526344D02*
X569043D01*
X568242Y526675D02*
Y528545D01*
X568328Y526544D02*
X569043D01*
X568193Y526744D02*
X569043D01*
X567642Y527338D02*
Y528545D01*
X567842Y527154D02*
Y528545D01*
X568042Y526937D02*
Y528545D01*
X567543D02*
X568543D01*
X568642Y525896D02*
Y528644D01*
X568842Y524820D02*
Y528844D01*
X569043Y529045D02*
X569043Y523145D01*
X569042D02*
Y529044D01*
X568442Y526346D02*
Y528545D01*
X568643Y530445D02*
Y543045D01*
X568625Y525944D02*
X569043D01*
X568542Y526144D02*
X569043D01*
X568842Y530246D02*
Y542846D01*
X568036Y526944D02*
X569043D01*
X567852Y527144D02*
X569043D01*
X567635Y527344D02*
X569043D01*
X568543Y528545D02*
X569043Y529045D01*
X568643Y530445D02*
X569043Y530045D01*
X568643Y530544D02*
X569043D01*
X568643Y530744D02*
X569043D01*
X568643Y530944D02*
X569046D01*
X568742Y528744D02*
X569043D01*
X568942Y528944D02*
X569043D01*
Y529045D02*
Y530045D01*
Y529045D02*
Y530045D01*
X568944Y530144D02*
X569043D01*
Y530045D02*
Y530745D01*
X568744Y530344D02*
X569043D01*
X568643Y531144D02*
X569056D01*
X568643Y531344D02*
X569071D01*
X568643Y531544D02*
X569093D01*
X568643Y531744D02*
X569122D01*
X568643Y531944D02*
X569156D01*
X568643Y532144D02*
X569198D01*
X568643Y532344D02*
X569246D01*
X568643Y532544D02*
X569301D01*
X568643Y532744D02*
X569363D01*
X568643Y532944D02*
X569433D01*
X569042Y530046D02*
Y542745D01*
X569242Y532329D02*
Y542745D01*
X569442Y532970D02*
Y542745D01*
X568643Y533144D02*
X569510D01*
X568643Y533344D02*
X569595D01*
X568643Y533544D02*
X569688D01*
X568643Y533744D02*
X569789D01*
X569642Y533449D02*
Y542745D01*
X568643Y533944D02*
X569900D01*
X568643Y534144D02*
X570021D01*
X568643Y534344D02*
X570151D01*
X568643Y534544D02*
X570293D01*
X568643Y534744D02*
X570447D01*
X568643Y534944D02*
X570613D01*
X568643Y535144D02*
X570795D01*
X568643Y535344D02*
X570993D01*
X568643Y535544D02*
X571209D01*
X568643Y535744D02*
X571447D01*
X568643Y535944D02*
X571711D01*
X568643Y536144D02*
X572007D01*
X568643Y536344D02*
X572344D01*
X568643Y536544D02*
X572736D01*
X568643Y536744D02*
X573214D01*
X568643Y536944D02*
X573853D01*
X568643Y537144D02*
X575349D01*
X568643Y537344D02*
X577043D01*
X568643Y537544D02*
X577043D01*
X568643Y537744D02*
X577043D01*
X568643Y542944D02*
X568744D01*
X568643Y544544D02*
X568742D01*
X568943Y542745D02*
X569943D01*
X568643Y543045D02*
X568943Y542745D01*
X569842Y533842D02*
Y542745D01*
X570042Y534179D02*
Y542844D01*
X570242Y534475D02*
Y543044D01*
X570442Y534739D02*
Y543244D01*
X569943Y542745D02*
X570443Y543245D01*
Y544245D01*
X575243Y537145D02*
X575443D01*
X577043D01*
X568643Y537944D02*
X577043D01*
X568643Y538144D02*
X577043D01*
X568643Y538344D02*
X577043D01*
X568643Y538544D02*
X577043D01*
X568643Y538744D02*
X577043D01*
X568643Y538944D02*
X577043D01*
X568643Y539144D02*
X577043D01*
X568643Y539344D02*
X577043D01*
X568643Y539544D02*
X577043D01*
X568643Y539744D02*
X577043D01*
X568643Y539944D02*
X577043D01*
X568643Y540144D02*
X577043D01*
X568643Y540344D02*
X577043D01*
X568643Y540544D02*
X577043D01*
X568643Y540744D02*
X577043D01*
X568643Y540944D02*
X577043D01*
X568643Y541144D02*
X577043D01*
X568643Y541344D02*
X577043D01*
X568643Y541544D02*
X577043D01*
X568643Y541744D02*
X577043D01*
X568643Y541944D02*
X577043D01*
X568643Y542144D02*
X577043D01*
X568643Y542344D02*
X577043D01*
X568643Y542544D02*
X577043D01*
X568643Y542744D02*
X577043D01*
X570142Y542944D02*
X577043D01*
X570342Y543144D02*
X577043D01*
X570443Y543344D02*
X577043D01*
X570443Y543544D02*
X577043D01*
X570443Y543744D02*
X577043D01*
X570443Y543944D02*
X577043D01*
X570443Y544144D02*
X577043D01*
X570144Y544544D02*
X577043D01*
X570344Y544344D02*
X577043D01*
X563743Y544745D02*
X564443D01*
X563743D02*
X564443D01*
X564943Y544245D01*
X564642Y544546D02*
Y544944D01*
X564443Y544745D02*
X564943Y545245D01*
X563743Y546745D02*
X564443D01*
X564444Y544744D02*
X565843D01*
X564642Y544944D02*
X565843D01*
X564842Y544346D02*
Y545144D01*
X564943Y545245D02*
Y546245D01*
X564842Y545144D02*
X565843D01*
X564943Y545344D02*
X565843D01*
X564943Y545544D02*
X565843D01*
X564943Y545744D02*
X565843D01*
X564943Y545944D02*
X565843D01*
X564943Y546144D02*
X565843D01*
X563743Y546745D02*
X564443D01*
X564642Y546546D02*
Y546944D01*
X564443Y546745D02*
X564943Y546245D01*
X564443Y546745D02*
X564943Y547245D01*
X563743Y548745D02*
X564443D01*
X563743D02*
X564443D01*
X564943Y548245D01*
X564642Y548546D02*
Y548944D01*
X565042Y528121D02*
Y567469D01*
X565242Y528139D02*
Y567669D01*
X565442Y528145D02*
Y567869D01*
X565642Y530244D02*
Y568069D01*
X564842Y546346D02*
Y547144D01*
Y548346D02*
Y549144D01*
X564943Y547245D02*
Y548245D01*
X565843Y530445D02*
Y554595D01*
X565842Y530444D02*
Y568845D01*
X568643Y544445D02*
X568943Y544745D01*
X568643Y544744D02*
X568942D01*
X568643Y544944D02*
X577043D01*
X568643Y545144D02*
X577043D01*
X564844Y546344D02*
X565843D01*
X564644Y546544D02*
X565843D01*
X564444Y546744D02*
X565843D01*
X564642Y546944D02*
X565843D01*
X568643Y545344D02*
X577043D01*
X568643Y545544D02*
X577043D01*
X568643Y545744D02*
X577043D01*
X568643Y545944D02*
X577043D01*
X568643Y546744D02*
X569023D01*
X568643Y546944D02*
X569023D01*
X568643Y546144D02*
X569549D01*
X568643Y546344D02*
X569349D01*
X568643Y546544D02*
X569149D01*
X564842Y547144D02*
X565843D01*
X564943Y547344D02*
X565843D01*
X564943Y547544D02*
X565843D01*
X564943Y547744D02*
X565843D01*
X564943Y547944D02*
X565843D01*
X564943Y548144D02*
X565843D01*
X564844Y548344D02*
X565843D01*
X564644Y548544D02*
X565843D01*
X568643Y547144D02*
X569023D01*
X568643Y544445D02*
Y550445D01*
Y547344D02*
X569023D01*
X568643Y547544D02*
X569023D01*
X568643Y547744D02*
X569023D01*
X568643Y547944D02*
X569147D01*
X568643Y548144D02*
X569347D01*
X568643Y548344D02*
X569547D01*
X568643Y548544D02*
X577043D01*
X564443Y548745D02*
X564943Y549245D01*
X564443Y550745D02*
X564943Y550245D01*
X564444Y548744D02*
X565843D01*
X564642Y548944D02*
X565843D01*
X563743Y550745D02*
X564443D01*
X563743Y550745D02*
X564443D01*
X564644Y550544D02*
X565843D01*
X564444Y550744D02*
X565843D01*
X564842Y549144D02*
X565843D01*
X564943Y549245D02*
Y550245D01*
Y549344D02*
X565843D01*
X564943Y549544D02*
X565843D01*
X564943Y549744D02*
X565843D01*
X564943Y549944D02*
X565843D01*
X564943Y550144D02*
X565843D01*
X564844Y550344D02*
X565843D01*
X563743Y552745D02*
Y553245D01*
X563842Y552745D02*
Y566269D01*
X563743Y552745D02*
X564443D01*
X564042D02*
Y566469D01*
X563442Y553546D02*
Y565869D01*
X563642Y553346D02*
Y566069D01*
X563243Y553745D02*
X563743Y553245D01*
X564242Y552745D02*
Y566669D01*
X564642Y550546D02*
Y550944D01*
X564842Y550346D02*
Y551144D01*
X564642Y550944D02*
X565843D01*
X564443Y550745D02*
X564943Y551245D01*
X564442Y552745D02*
Y566869D01*
X564642Y552546D02*
Y567069D01*
X564943Y551245D02*
Y552245D01*
X564443Y552745D02*
X564943Y552245D01*
X564842Y552346D02*
Y567269D01*
X564842Y551144D02*
X565843D01*
X564943Y551344D02*
X565843D01*
X568643Y548744D02*
X577043D01*
X568643Y548944D02*
X577043D01*
X564943Y551544D02*
X565843D01*
X564943Y551744D02*
X565843D01*
X564943Y551944D02*
X565843D01*
X564943Y552144D02*
X565843D01*
X568643Y549144D02*
X577043D01*
X568643Y549344D02*
X577043D01*
X568643Y549544D02*
X577043D01*
X568643Y549744D02*
X577043D01*
X568643Y550344D02*
X568744D01*
X568643Y551944D02*
X568742D01*
X568643Y549944D02*
X577043D01*
X568643Y550144D02*
X577043D01*
X568643Y550445D02*
X568943Y550145D01*
X564844Y552344D02*
X565843D01*
X564644Y552544D02*
X565843D01*
X568643Y551845D02*
X568943Y552145D01*
X564444Y552744D02*
X565843D01*
X563743Y552944D02*
X565843D01*
X563743Y553144D02*
X565843D01*
X563644Y553344D02*
X565843D01*
X563444Y553544D02*
X565843D01*
X568643Y552144D02*
X568942D01*
X568643Y551845D02*
Y554370D01*
Y552344D02*
X577043D01*
X568643Y552544D02*
X577043D01*
X568643Y552744D02*
X577043D01*
X568643Y552944D02*
X577043D01*
X568643Y553144D02*
X577043D01*
X568643Y553344D02*
X577043D01*
X568643Y553544D02*
X577043D01*
X568943Y544745D02*
X569943D01*
X569242D02*
Y546451D01*
X569943Y544745D02*
X570443Y544245D01*
X570042Y544646D02*
Y546095D01*
X569642Y544745D02*
Y546095D01*
X569442Y544745D02*
Y546251D01*
X569842Y544745D02*
Y546095D01*
X569598D02*
X570748D01*
X570642Y534977D02*
Y546095D01*
X570842Y535194D02*
Y546189D01*
X572242Y536287D02*
Y546095D01*
X572042Y536167D02*
Y546191D01*
X570242Y544446D02*
Y546095D01*
X570442Y544246D02*
Y546095D01*
X570797Y546144D02*
X572089D01*
X570997Y546344D02*
X571889D01*
X569042Y544745D02*
Y546651D01*
X568842Y544644D02*
Y550246D01*
X571042Y535392D02*
Y546389D01*
X571242Y535573D02*
Y546589D01*
X569023Y546670D02*
X569598Y546095D01*
X569023Y546670D02*
Y547820D01*
X571197Y546544D02*
X571689D01*
X570748Y546095D02*
X571323Y546670D01*
X571642Y535894D02*
Y546591D01*
X571442Y535740D02*
Y571494D01*
X571842Y536036D02*
Y546391D01*
X571563Y546670D02*
X572138Y546095D01*
X571323Y546670D02*
Y547820D01*
X571563Y546670D02*
Y547820D01*
X571323Y546744D02*
X571563D01*
X571323Y546944D02*
X571563D01*
X571323Y547144D02*
X571563D01*
X572442Y536398D02*
Y546095D01*
X572642Y536500D02*
Y546095D01*
X572842Y536593D02*
Y546095D01*
X573042Y536678D02*
Y546095D01*
X573242Y536755D02*
Y546095D01*
X572138D02*
X573288D01*
X569944Y544744D02*
X577043D01*
X573288Y546095D02*
X573863Y546670D01*
X573442Y536824D02*
Y546249D01*
X573642Y536886D02*
Y546449D01*
X573337Y546144D02*
X577043D01*
X573842Y536941D02*
Y546649D01*
X573537Y546344D02*
X577043D01*
X573863Y546670D02*
Y547820D01*
X573737Y546544D02*
X577043D01*
X573863Y546744D02*
X577043D01*
X573863Y546944D02*
X577043D01*
X574042Y536990D02*
Y572500D01*
X574242Y537031D02*
Y572459D01*
X574442Y537066D02*
Y572424D01*
X574642Y537095D02*
Y572395D01*
X574842Y537117D02*
Y572373D01*
X575042Y537132D02*
Y572357D01*
X575242Y537142D02*
Y572348D01*
X575442Y537145D02*
Y572345D01*
X575642Y537145D02*
Y572345D01*
X575842Y537145D02*
Y572345D01*
X576042Y537145D02*
Y572345D01*
X576242Y537145D02*
Y572345D01*
X576442Y537145D02*
Y572345D01*
X576642Y537145D02*
Y572345D01*
X576842Y537145D02*
Y572345D01*
X577043Y537145D02*
Y572345D01*
X577042Y537145D02*
Y572345D01*
X569042Y547839D02*
Y550145D01*
X569242Y548039D02*
Y550145D01*
X569023Y547820D02*
X569598Y548395D01*
X569442Y548239D02*
Y550145D01*
X569642Y548395D02*
Y550145D01*
X569842Y548395D02*
Y550145D01*
X569598Y548395D02*
X570748D01*
X568943Y550145D02*
X569943D01*
X571323Y547344D02*
X571563D01*
X570748Y548395D02*
X571323Y547820D01*
Y547544D02*
X571563D01*
X571323Y547744D02*
X571563D01*
X570042Y548395D02*
Y550244D01*
X570242Y548395D02*
Y550444D01*
X570442Y548395D02*
Y550644D01*
X569943Y550145D02*
X570443Y550645D01*
X568842Y552044D02*
Y554569D01*
X569042Y552145D02*
Y554769D01*
X568943Y552145D02*
X569943D01*
X570443Y551645D01*
X569242Y552145D02*
Y554969D01*
X569442Y552145D02*
Y554995D01*
X569642Y552145D02*
Y554995D01*
X569842Y552145D02*
Y554995D01*
X570842Y548301D02*
Y561189D01*
X571042Y548101D02*
Y561389D01*
X571242Y547901D02*
Y561589D01*
X571642Y547899D02*
Y561591D01*
X570042Y552046D02*
Y555169D01*
X570242Y551846D02*
Y555369D01*
X570443Y550645D02*
Y551645D01*
X570442Y551646D02*
Y561095D01*
X570642Y548395D02*
Y561095D01*
X571199Y547944D02*
X571687D01*
X570999Y548144D02*
X571887D01*
X571563Y547820D02*
X572138Y548395D01*
X570799Y548344D02*
X572087D01*
X570142Y550344D02*
X577043D01*
X570342Y550544D02*
X577043D01*
X570443Y550744D02*
X577043D01*
X570443Y550944D02*
X577043D01*
X573863Y547144D02*
X577043D01*
X573863Y547344D02*
X577043D01*
X573863Y547544D02*
X577043D01*
X573863Y547744D02*
X577043D01*
X572138Y548395D02*
X573288D01*
X573863Y547820D01*
X573739Y547944D02*
X577043D01*
X573339Y548344D02*
X577043D01*
X573539Y548144D02*
X577043D01*
X572042Y548299D02*
Y561191D01*
X571842Y548099D02*
Y561391D01*
X570443Y551144D02*
X577043D01*
X570443Y551344D02*
X577043D01*
X570443Y551544D02*
X577043D01*
X570344Y551744D02*
X577043D01*
X570144Y551944D02*
X577043D01*
X569944Y552144D02*
X577043D01*
X572242Y548395D02*
Y561095D01*
X573442Y548241D02*
Y561249D01*
X573642Y548041D02*
Y561449D01*
X573842Y547841D02*
Y561649D01*
X572442Y548395D02*
Y561095D01*
X572642Y548395D02*
Y561095D01*
X572842Y548395D02*
Y561095D01*
X573042Y548395D02*
Y561095D01*
X573242Y548395D02*
Y561095D01*
X535168Y556895D02*
X535518D01*
X535968D01*
X535518D02*
X535968D01*
X536193Y557120D01*
X535968Y556895D02*
X536193Y557120D01*
X536568Y557495D01*
X536017Y556944D02*
X541942D01*
X536568Y557495D02*
X536793Y557720D01*
X541443Y555445D02*
X541943Y554945D01*
X541443Y555445D02*
Y556445D01*
X542343Y554245D02*
Y554945D01*
X541943D02*
X542343D01*
X536568Y557495D02*
X536793Y557720D01*
Y558170D01*
X541443Y556445D02*
X541943Y556945D01*
X536793Y557720D02*
Y558170D01*
Y561220D01*
X537568Y561995D01*
X537618D01*
X538068D01*
X537618D02*
X538068D01*
X538293Y562220D01*
X538068Y561995D02*
X538293Y562220D01*
X538868Y562795D01*
X541842Y556844D02*
Y563871D01*
X541642Y556644D02*
Y564071D01*
X542242Y556945D02*
Y563471D01*
X542042Y556945D02*
Y563671D01*
X538868Y562795D02*
X539093Y563020D01*
X538868Y562795D02*
X539093Y563020D01*
X542442Y556945D02*
Y563271D01*
X539093Y563020D02*
Y563470D01*
Y563020D02*
Y563470D01*
X536793Y559544D02*
X547744D01*
X536793Y559744D02*
X547743D01*
X536793Y559144D02*
X548144D01*
X536793Y559344D02*
X547944D01*
X536793Y559944D02*
X547743D01*
X536793Y560144D02*
X547743D01*
X536793Y560344D02*
X547743D01*
X536793Y560544D02*
X547743D01*
X542843Y553745D02*
X543243D01*
X542343Y554245D02*
X542843Y553745D01*
X543443Y556395D02*
Y556445D01*
X542943Y556945D02*
X543443Y556445D01*
X541943Y556945D02*
X542943D01*
X536793Y560744D02*
X547942D01*
X543443Y556395D02*
X554018D01*
X536793Y560944D02*
X548142D01*
X542642Y556945D02*
Y563071D01*
X542493Y563220D02*
X542718Y562995D01*
X542842Y556945D02*
Y562995D01*
X542493Y563220D02*
X542718Y562995D01*
X539093Y563144D02*
X542569D01*
X540318Y565395D02*
X542493Y563220D01*
X542718Y562995D02*
X543168D01*
X542718D02*
X543168D01*
X543442Y556446D02*
Y562995D01*
X543642Y556395D02*
Y562995D01*
X543842Y556395D02*
Y562995D01*
X544042Y556395D02*
Y562995D01*
X543042Y556846D02*
Y562995D01*
X543242Y556646D02*
Y562995D01*
X544242Y556395D02*
Y562995D01*
X543168D02*
X550318D01*
X544442Y556395D02*
Y562995D01*
X539093Y563744D02*
X541969D01*
X539093Y563470D02*
Y564245D01*
Y563344D02*
X542369D01*
X539093Y563544D02*
X542169D01*
X539093Y564245D02*
X539143D01*
X539643Y564745D01*
X539093Y563944D02*
X541769D01*
X539093Y564144D02*
X541569D01*
X539642Y564744D02*
X540969D01*
X539643Y564944D02*
X540769D01*
X539242Y564344D02*
X541369D01*
X539442Y564544D02*
X541169D01*
X539643Y565544D02*
X540169D01*
X540093Y565620D02*
X540318Y565395D01*
X539643Y565144D02*
X540569D01*
X539643Y565344D02*
X540369D01*
X539643Y564745D02*
Y565745D01*
X540093Y565620D02*
Y565995D01*
Y565620D02*
X540318Y565395D01*
X540093Y565620D02*
Y565995D01*
X539643Y565745D02*
X539843D01*
X539643Y565744D02*
X540093D01*
X539843Y565745D02*
X540093Y565995D01*
X540042Y565944D02*
X540093D01*
Y565995D02*
Y566070D01*
Y565995D02*
Y566070D01*
X544593Y567870D02*
Y572220D01*
Y572670D01*
X543042Y574221D02*
Y576745D01*
X543242Y574021D02*
Y576745D01*
X544593Y572220D02*
Y572670D01*
X544368Y572895D02*
X544593Y572670D01*
X544368Y572895D02*
X544593Y572670D01*
Y567870D02*
X544968Y567495D01*
X544593Y567944D02*
X548867D01*
X544593Y568144D02*
X549067D01*
X544593Y568344D02*
X549267D01*
X544593Y568544D02*
X549467D01*
X544593Y568744D02*
X549667D01*
X544593Y568944D02*
X549867D01*
X544593Y569144D02*
X550067D01*
X544593Y569344D02*
X550267D01*
X544593Y569544D02*
X550467D01*
X544593Y569744D02*
X550667D01*
X544593Y569944D02*
X550867D01*
X544593Y570144D02*
X551067D01*
X544593Y570344D02*
X551267D01*
X544593Y570544D02*
X551467D01*
X544593Y570744D02*
X551667D01*
X544593Y570944D02*
X551867D01*
X543319Y573944D02*
X551143D01*
X543119Y574144D02*
X551143D01*
X542919Y574344D02*
X551143D01*
X542719Y574544D02*
X551143D01*
X542519Y574744D02*
X551143D01*
X542319Y574944D02*
X551242D01*
X542119Y575144D02*
X551442D01*
X541919Y575344D02*
X551642D01*
X544593Y571144D02*
X552067D01*
X544593Y571344D02*
X552267D01*
X544593Y571544D02*
X552467D01*
X544593Y571744D02*
X552667D01*
X543719Y573544D02*
X551444D01*
X543519Y573744D02*
X551244D01*
X544593Y571944D02*
X552867D01*
X544593Y572144D02*
X553067D01*
X544593Y572344D02*
X553267D01*
X544642Y556395D02*
Y562995D01*
X544842Y556395D02*
Y562995D01*
X545042Y556395D02*
Y562995D01*
X545242Y556395D02*
Y562995D01*
X545442Y556395D02*
Y562995D01*
X545642Y556395D02*
Y562995D01*
X548042Y556395D02*
Y559246D01*
X547842Y556395D02*
Y559446D01*
X548242Y556395D02*
Y559046D01*
X548442Y556395D02*
Y559045D01*
X548642Y556395D02*
Y559045D01*
X548842Y556395D02*
Y559045D01*
X549042Y556395D02*
Y559045D01*
X549242Y556395D02*
Y559045D01*
X549442Y556395D02*
Y559244D01*
X549642Y556395D02*
Y559444D01*
X545842Y556395D02*
Y562995D01*
X546042Y556395D02*
Y562995D01*
X546242Y556395D02*
Y562995D01*
X546442Y556395D02*
Y562995D01*
X546642Y556395D02*
Y562995D01*
X546842Y556395D02*
Y562995D01*
X547042Y556395D02*
Y562995D01*
X547242Y556395D02*
Y562995D01*
X547442Y556395D02*
Y562995D01*
X547642Y556395D02*
Y562995D01*
X549842Y556395D02*
Y562995D01*
X550042Y556395D02*
Y562995D01*
X550242Y556395D02*
Y562995D01*
X550442Y556395D02*
Y562995D01*
X550642Y556395D02*
Y562995D01*
X550842Y556395D02*
Y563069D01*
X551042Y556395D02*
Y563269D01*
X551242Y556395D02*
Y563469D01*
X551442Y556395D02*
Y563669D01*
X551642Y556395D02*
Y563869D01*
X553642Y556395D02*
Y564046D01*
X553842Y556395D02*
Y564045D01*
X554042Y556395D02*
Y564045D01*
X554018Y556395D02*
X554468D01*
X554018D02*
X554468D01*
X554842Y556021D02*
Y563995D01*
X555042Y555821D02*
Y563995D01*
X555242Y555621D02*
Y563995D01*
X555442Y555421D02*
Y563995D01*
X554242Y556395D02*
Y564045D01*
X554442Y556395D02*
Y564045D01*
X554468Y556395D02*
X554693Y556170D01*
X554468Y556395D02*
X554693Y556170D01*
X554642Y556221D02*
Y563995D01*
X551842Y556395D02*
Y564069D01*
X552042Y556395D02*
Y564269D01*
X552242Y556395D02*
Y564469D01*
X552442Y556395D02*
Y564669D01*
X552642Y556395D02*
Y564869D01*
X552842Y556395D02*
Y565069D01*
X553242Y556395D02*
Y564446D01*
X553042Y556395D02*
Y565269D01*
X556442Y554421D02*
Y563995D01*
X556642Y554221D02*
Y563995D01*
X556842Y554021D02*
Y563995D01*
X557042Y553821D02*
Y563995D01*
X555642Y555221D02*
Y563995D01*
X553442Y556395D02*
Y564246D01*
X555842Y555021D02*
Y563995D01*
X556042Y554821D02*
Y563995D01*
X556242Y554621D02*
Y563995D01*
X547743Y559545D02*
X548243Y559045D01*
X547743Y559545D02*
Y560545D01*
X548243Y559045D02*
X549243D01*
X547743Y560545D02*
X548243Y561045D01*
X547842Y560644D02*
Y562995D01*
X548042Y560844D02*
Y562995D01*
X548243Y561045D02*
X549243D01*
X548242Y561044D02*
Y562995D01*
X549243Y559045D02*
X549743Y559545D01*
X548442Y561045D02*
Y562995D01*
X549743Y559545D02*
Y560545D01*
X549243Y561045D02*
X549743Y560545D01*
X548642Y561045D02*
Y562995D01*
X548842Y561045D02*
Y562995D01*
X549042Y561045D02*
Y562995D01*
X549242Y561045D02*
Y562995D01*
X549442Y560846D02*
Y562995D01*
X549642Y560646D02*
Y562995D01*
X550318D02*
X550768D01*
X550318D02*
X550768D01*
X544968Y567495D02*
X548418D01*
X544919Y567544D02*
X548467D01*
X550768Y562995D02*
X550993Y563220D01*
X544719Y567744D02*
X548667D01*
X550768Y562995D02*
X550993Y563220D01*
X551242Y570319D02*
Y573746D01*
X551642Y570719D02*
Y573346D01*
X551442Y570519D02*
Y573546D01*
X551143Y573845D02*
X551643Y573345D01*
X551143Y573845D02*
Y574845D01*
X551842Y570919D02*
Y573345D01*
X551143Y574845D02*
X551643Y575345D01*
X552042Y571119D02*
Y573345D01*
X551917Y564144D02*
X553544D01*
X552117Y564344D02*
X553344D01*
X553643Y564045D02*
X554468D01*
X553143Y564545D02*
X553643Y564045D01*
X552317Y564544D02*
X553144D01*
X552517Y564744D02*
X553143D01*
X552717Y564944D02*
X553143D01*
X552917Y565144D02*
X553143D01*
X554468Y564045D02*
X554518Y563995D01*
X554468Y564045D02*
X554518Y563995D01*
X554968D01*
X554518D02*
X554968D01*
X561118D01*
X561568D01*
X561118D02*
X561568D01*
X561793Y564220D01*
X561568Y563995D02*
X561793Y564220D01*
X552242Y571319D02*
Y573345D01*
X552442Y571519D02*
Y573345D01*
X550993Y563220D02*
X553143Y565370D01*
X548418Y567495D02*
X553193Y572270D01*
X552642Y571719D02*
Y573345D01*
X551643D02*
X552643D01*
X553143Y573845D01*
X551643Y575345D02*
X552643D01*
X552842Y571919D02*
Y573544D01*
X553042Y572119D02*
Y573744D01*
X553143Y564545D02*
Y565370D01*
X553193Y572270D02*
X553418Y572495D01*
X553143Y573845D02*
Y574845D01*
X552643Y575345D02*
X553143Y574845D01*
X553193Y572270D02*
X553418Y572495D01*
X553868D01*
X553418D02*
X553868D01*
X537242Y576995D02*
Y578346D01*
X537042Y576995D02*
Y578546D01*
X537493Y577120D02*
X537618Y576995D01*
X537442D02*
Y578146D01*
X537493Y577120D02*
Y577570D01*
Y577120D02*
Y577570D01*
Y577120D02*
X537618Y576995D01*
X537443Y578145D02*
X537493D01*
X538393Y577570D02*
X538568Y577395D01*
X538642D02*
Y578344D01*
X538568Y577395D02*
X539418D01*
X539868D01*
X537493Y577570D02*
Y578145D01*
X538393Y577570D02*
Y578145D01*
X538442Y577521D02*
Y578145D01*
X538393D02*
X538443D01*
X534842Y576995D02*
Y586345D01*
X535042Y576995D02*
Y586345D01*
X535242Y576995D02*
Y586345D01*
X535442Y576995D02*
Y586345D01*
X535642Y576995D02*
Y586345D01*
X535842Y576995D02*
Y586345D01*
X536042Y576995D02*
Y586345D01*
X536242Y576995D02*
Y586345D01*
X536442Y576995D02*
Y586345D01*
X536642Y576995D02*
Y586345D01*
X538842Y577395D02*
Y578544D01*
X536842Y576995D02*
Y586345D01*
X536943Y578645D02*
X537443Y578145D01*
X539042Y577395D02*
Y586345D01*
X539242Y577395D02*
Y586345D01*
X539442Y577395D02*
Y586345D01*
X539642Y577395D02*
Y586345D01*
X540119Y577144D02*
X542544D01*
X539868Y577395D02*
X540093Y577170D01*
X540319Y576944D02*
X542744D01*
X540093Y577170D02*
X544368Y572895D01*
X539418Y577395D02*
X539868D01*
X540093Y577170D01*
X539919Y577344D02*
X542443D01*
X538419Y577544D02*
X542443D01*
X543442Y573821D02*
Y576745D01*
X543642Y573621D02*
Y576745D01*
X543842Y573421D02*
Y576745D01*
X544042Y573221D02*
Y576844D01*
X542842Y574421D02*
Y576846D01*
X542642Y574621D02*
Y577046D01*
X542943Y576745D02*
X543943D01*
X542443Y577245D02*
X542943Y576745D01*
X543943D02*
X544443Y577245D01*
X540242Y577021D02*
Y586345D01*
X540442Y576821D02*
Y586345D01*
X540642Y576621D02*
Y586345D01*
X540842Y576421D02*
Y586345D01*
X539842Y577395D02*
Y586345D01*
X540042Y577221D02*
Y586345D01*
X538393Y577744D02*
X542443D01*
X538393Y577944D02*
X542443D01*
X541842Y575421D02*
Y586345D01*
X542042Y575221D02*
Y586345D01*
X542242Y575021D02*
Y586345D01*
X542442Y574821D02*
Y586345D01*
X541042Y576221D02*
Y586345D01*
X541242Y576021D02*
Y586345D01*
X542443Y577245D02*
Y578245D01*
X541442Y575821D02*
Y586345D01*
X541642Y575621D02*
Y586345D01*
X536943Y578645D02*
Y579470D01*
X536893Y579520D02*
X536943Y579470D01*
X536893Y579520D02*
X536943Y579470D01*
X536893Y579520D02*
Y579970D01*
Y579520D02*
Y579970D01*
Y583320D01*
X537793Y580145D02*
X538443D01*
X537793D02*
Y583145D01*
X537842Y580145D02*
Y583145D01*
X538642Y579946D02*
Y583344D01*
X538443Y578145D02*
X538943Y578645D01*
X538842Y579746D02*
Y583544D01*
X538042Y580145D02*
Y583145D01*
X538242Y580145D02*
Y583145D01*
X538442Y580145D02*
Y583145D01*
X537793D02*
X538443D01*
X536893Y583320D02*
Y583770D01*
Y583320D02*
Y583770D01*
X536943Y583820D01*
X536893Y583770D02*
X536943Y583820D01*
Y584645D01*
X537042Y584744D02*
Y586345D01*
X536943Y584645D02*
X537443Y585145D01*
X537242Y584944D02*
Y586345D01*
X537443Y585145D02*
X538443D01*
X537442Y585144D02*
Y586345D01*
X538642Y584946D02*
Y586345D01*
X538842Y584746D02*
Y586345D01*
X537642Y585145D02*
Y586345D01*
X537842Y585145D02*
Y586345D01*
X538042Y585145D02*
Y586345D01*
X538242Y585145D02*
Y586345D01*
X538442Y585145D02*
Y586345D01*
X538393Y578144D02*
X542443D01*
X538443Y580145D02*
X538943Y579645D01*
X538642Y578344D02*
X542542D01*
X538842Y578544D02*
X542742D01*
X537793Y582944D02*
X551244D01*
X537793Y583144D02*
X551193D01*
X537793Y582544D02*
X551644D01*
X537793Y582744D02*
X551444D01*
X542443Y578245D02*
X542943Y578745D01*
X538943Y578645D02*
Y579645D01*
X544144Y578544D02*
X546243D01*
X543943Y578745D02*
X544443Y578245D01*
X538943Y578744D02*
X542942D01*
X542943Y578745D02*
X543943D01*
X543944Y578744D02*
X546342D01*
X538943Y578944D02*
X546542D01*
X538943Y579144D02*
X546742D01*
X538642Y583344D02*
X551193D01*
X538443Y583145D02*
X538943Y583645D01*
X538842Y583544D02*
X551193D01*
X538943Y583744D02*
X551193D01*
X538943Y583944D02*
X551193D01*
X538443Y585145D02*
X538943Y584645D01*
Y584144D02*
X551342D01*
X538943Y584344D02*
X551542D01*
X542642Y578444D02*
Y586345D01*
X542842Y578644D02*
Y586345D01*
X543042Y578745D02*
Y586345D01*
X544042Y578646D02*
Y586345D01*
X538943Y583645D02*
Y584645D01*
X543242Y578745D02*
Y586345D01*
X543442Y578745D02*
Y586345D01*
X543642Y578745D02*
Y586345D01*
X543842Y578745D02*
Y586345D01*
X545042Y567495D02*
Y586345D01*
X545242Y567495D02*
Y586345D01*
X545442Y567495D02*
Y586345D01*
X545642Y567495D02*
Y586345D01*
X544642Y567821D02*
Y586345D01*
X544842Y567621D02*
Y586345D01*
X546642Y567495D02*
Y577246D01*
X546442Y567495D02*
Y577446D01*
X546842Y567495D02*
Y577145D01*
X547042Y567495D02*
Y577145D01*
X547242Y567495D02*
Y577145D01*
X547442Y567495D02*
Y577145D01*
X547642Y567495D02*
Y577145D01*
X547842Y567495D02*
Y577244D01*
X548042Y567495D02*
Y577444D01*
X548242Y567495D02*
Y577644D01*
X545842Y567495D02*
Y586345D01*
X546042Y567495D02*
Y586345D01*
X546242Y567495D02*
Y586345D01*
X548442Y567519D02*
Y586345D01*
X548642Y567719D02*
Y586345D01*
X548842Y567919D02*
Y586345D01*
X549042Y568119D02*
Y586345D01*
X549242Y568319D02*
Y586345D01*
X549442Y568519D02*
Y586345D01*
X549642Y568719D02*
Y586345D01*
X549842Y568919D02*
Y586345D01*
X550042Y569119D02*
Y586345D01*
X550242Y569319D02*
Y586345D01*
X550442Y569519D02*
Y586345D01*
X550642Y569719D02*
Y586345D01*
X550842Y569919D02*
Y586345D01*
X551042Y570119D02*
Y586345D01*
X553242Y572319D02*
Y586345D01*
X553442Y572495D02*
Y586345D01*
X553642Y572495D02*
Y586345D01*
X553842Y572495D02*
Y586345D01*
X554042Y572495D02*
Y586345D01*
X554242Y572495D02*
Y586345D01*
X554442Y572495D02*
Y586345D01*
X554642Y572495D02*
Y586345D01*
X554842Y572495D02*
Y586345D01*
X555042Y572495D02*
Y586345D01*
X555242Y572495D02*
Y586345D01*
X555442Y572495D02*
Y586345D01*
X555642Y572495D02*
Y586345D01*
X555842Y572495D02*
Y586345D01*
X556042Y572495D02*
Y586345D01*
X556242Y572495D02*
Y586345D01*
X556442Y572495D02*
Y586345D01*
X556642Y572495D02*
Y586345D01*
X556842Y572495D02*
Y586345D01*
X557042Y572495D02*
Y586345D01*
X557242Y572495D02*
Y586345D01*
X557442Y572495D02*
Y586345D01*
X557642Y572495D02*
Y586345D01*
X557842Y572495D02*
Y586345D01*
X558042Y572495D02*
Y586345D01*
X558242Y572495D02*
Y586345D01*
X558442Y572495D02*
Y586345D01*
X558642Y572495D02*
Y586345D01*
X558842Y572495D02*
Y586345D01*
X559042Y572495D02*
Y586345D01*
X559242Y572495D02*
Y586345D01*
X559442Y572495D02*
Y586345D01*
X559642Y572495D02*
Y586345D01*
X559842Y572495D02*
Y586345D01*
X544242Y573021D02*
Y577044D01*
X544442Y572821D02*
Y577244D01*
X544443Y577344D02*
X546544D01*
X544443Y577544D02*
X546344D01*
X544443Y577744D02*
X546243D01*
X544443Y577944D02*
X546243D01*
X544443Y578144D02*
X546243D01*
X544344Y578344D02*
X546243D01*
Y577645D02*
X546743Y577145D01*
X544443Y577245D02*
Y578245D01*
X546743Y577145D02*
X547743D01*
X548243Y577645D01*
X546243D02*
Y578645D01*
X546743Y579145D01*
X548243Y577645D02*
Y578645D01*
X546743Y579145D02*
X547743D01*
X544242Y578446D02*
Y586345D01*
X544442Y578246D02*
Y586345D01*
X546442Y578844D02*
Y586345D01*
X546642Y579044D02*
Y586345D01*
X546842Y579145D02*
Y586345D01*
X547042Y579145D02*
Y586345D01*
X547242Y579145D02*
Y586345D01*
X547442Y579145D02*
Y586345D01*
X547743Y579145D02*
X548243Y578645D01*
X548242Y578646D02*
Y586345D01*
X551442Y575144D02*
Y582746D01*
X551242Y574944D02*
Y582946D01*
X547642Y579145D02*
Y586345D01*
X547842Y579046D02*
Y586345D01*
X551193Y582995D02*
Y583995D01*
X548042Y578846D02*
Y586345D01*
X551242Y584044D02*
Y586345D01*
X551642Y575344D02*
Y582546D01*
X551193Y582995D02*
X551693Y582495D01*
X551842Y575345D02*
Y582495D01*
X551693D02*
X552693D01*
X551442Y584244D02*
Y586345D01*
X551642Y584444D02*
Y586345D01*
X551193Y583995D02*
X551693Y584495D01*
X552693D01*
X552042Y575345D02*
Y582495D01*
X552242Y575345D02*
Y582495D01*
X552842Y575146D02*
Y582644D01*
X553042Y574946D02*
Y582844D01*
X552442Y575345D02*
Y582495D01*
X552642Y575345D02*
Y582495D01*
X552693D02*
X553193Y582995D01*
X552693Y584495D02*
X553193Y583995D01*
Y582995D02*
Y583995D01*
X551842Y584495D02*
Y586345D01*
X552842Y584346D02*
Y586345D01*
X553042Y584146D02*
Y586345D01*
X560042Y572495D02*
Y586345D01*
X552042Y584495D02*
Y586345D01*
X552242Y584495D02*
Y586345D01*
X552442Y584495D02*
Y586345D01*
X552642Y584495D02*
Y586345D01*
X560242Y572495D02*
Y586345D01*
X560442Y572495D02*
Y586345D01*
X560642Y572495D02*
Y586345D01*
X560842Y572495D02*
Y586345D01*
X561042Y572495D02*
Y586345D01*
X561242Y572495D02*
Y586345D01*
X561442Y572495D02*
Y586345D01*
X561642Y572495D02*
Y586345D01*
X561842Y572495D02*
Y586345D01*
X556719Y554144D02*
X565843D01*
X556519Y554344D02*
X565843D01*
X556319Y554544D02*
X565843D01*
X556119Y554744D02*
X565843D01*
X555919Y554944D02*
X565843D01*
X555719Y555144D02*
X565843D01*
X555519Y555344D02*
X565992D01*
X555319Y555544D02*
X566192D01*
X557119Y553744D02*
X562242D01*
X562243Y553745D02*
X563243D01*
X563244Y553744D02*
X565843D01*
X556919Y553944D02*
X565843D01*
Y554595D02*
Y555195D01*
Y554595D02*
Y555195D01*
X566143Y555495D01*
X565843Y555195D02*
X566143Y555495D01*
X562242Y553744D02*
Y564669D01*
X562442Y553745D02*
Y564869D01*
X555119Y555744D02*
X566392D01*
X554919Y555944D02*
X566592D01*
X536793Y561144D02*
X566119D01*
X536917Y561344D02*
X566093D01*
X549544Y560744D02*
X566519D01*
X549344Y560944D02*
X566319D01*
X562642Y553745D02*
Y565069D01*
X562842Y553745D02*
Y565269D01*
X563042Y553745D02*
Y565469D01*
X563242Y553745D02*
Y565669D01*
X566093Y561170D02*
Y562320D01*
X566042Y555394D02*
Y569044D01*
X566642Y555994D02*
Y560621D01*
X566242Y555594D02*
Y561021D01*
X566442Y555794D02*
Y560821D01*
X536217Y557144D02*
X567792D01*
X536417Y557344D02*
X567992D01*
X536617Y557544D02*
X568192D01*
X536793Y557744D02*
X568368D01*
X536793Y557944D02*
X568368D01*
X536793Y558144D02*
X568368D01*
X536793Y558344D02*
X568392D01*
X536793Y558544D02*
X568592D01*
X554719Y556144D02*
X566792D01*
X554519Y556344D02*
X566992D01*
X543344Y556544D02*
X567192D01*
X566143Y555495D02*
X568368Y557720D01*
X543144Y556744D02*
X567392D01*
X542944Y556944D02*
X567592D01*
X536793Y558744D02*
X568792D01*
X536793Y558944D02*
X577043D01*
X549342Y559144D02*
X577043D01*
X549542Y559344D02*
X577043D01*
X549742Y559544D02*
X577043D01*
X549743Y559744D02*
X577043D01*
X549743Y559944D02*
X577043D01*
X549743Y560144D02*
X577043D01*
X566093Y561170D02*
X566668Y560595D01*
X549743Y560344D02*
X577043D01*
X549743Y560544D02*
X577043D01*
X566842Y556194D02*
Y560595D01*
X567042Y556394D02*
Y560595D01*
X567242Y556594D02*
Y560595D01*
X567442Y556794D02*
Y560595D01*
X567642Y556994D02*
Y560595D01*
X567842Y557194D02*
Y560619D01*
X566668Y560595D02*
X567818D01*
X568393Y561170D01*
X567967Y560744D02*
X577043D01*
X537117Y561544D02*
X566093D01*
X537317Y561744D02*
X566093D01*
X537517Y561944D02*
X566093D01*
X538217Y562144D02*
X566093D01*
X538417Y562344D02*
X566117D01*
X561793Y564220D02*
X565568Y567995D01*
X538617Y562544D02*
X566317D01*
X538817Y562744D02*
X566517D01*
X566093Y562320D02*
X566668Y562895D01*
X565568Y567995D02*
X565793Y568220D01*
X566668Y562895D02*
X567818D01*
X568393Y562320D01*
X565568Y567995D02*
X565793Y568220D01*
Y568670D01*
Y568344D02*
X568444D01*
X565793Y568544D02*
X568443D01*
X565793Y568220D02*
Y568670D01*
Y568845D01*
Y568744D02*
X568443D01*
X566242Y562469D02*
Y569244D01*
X565793Y568845D02*
X565843D01*
X566343Y569345D01*
X565942Y568944D02*
X568443D01*
X566293Y570395D02*
X566343Y570345D01*
X566442Y562669D02*
Y570395D01*
X566642Y562869D02*
Y570395D01*
X566842Y562895D02*
Y570395D01*
X567842Y562871D02*
Y570395D01*
X566343Y569345D02*
Y570345D01*
X567042Y562895D02*
Y570395D01*
X567242Y562895D02*
Y570395D01*
X567442Y562895D02*
Y570395D01*
X567642Y562895D02*
Y570395D01*
X539017Y562944D02*
X569147D01*
X550917Y563144D02*
X569347D01*
X551117Y563344D02*
X569547D01*
X551317Y563544D02*
X577043D01*
X551517Y563744D02*
X577043D01*
X551717Y563944D02*
X577043D01*
X561717Y564144D02*
X577043D01*
X561917Y564344D02*
X577043D01*
X567969Y562744D02*
X569023D01*
X562117Y564544D02*
X577043D01*
X562317Y564744D02*
X577043D01*
X562517Y564944D02*
X577043D01*
X562717Y565144D02*
X577043D01*
X562917Y565344D02*
X577043D01*
X563117Y565544D02*
X577043D01*
X563317Y565744D02*
X577043D01*
X563517Y565944D02*
X577043D01*
X563717Y566144D02*
X577043D01*
X563917Y566344D02*
X577043D01*
X564117Y566544D02*
X577043D01*
X564317Y566744D02*
X577043D01*
X564517Y566944D02*
X577043D01*
X564717Y567144D02*
X577043D01*
X564917Y567344D02*
X577043D01*
X565117Y567544D02*
X577043D01*
X565717Y568144D02*
X568644D01*
X566142Y569144D02*
X568443D01*
X565317Y567744D02*
X577043D01*
X565517Y567944D02*
X568844D01*
X566342Y569344D02*
X568443D01*
X566343Y569544D02*
X568642D01*
X566343Y569744D02*
X568842D01*
X566343Y569944D02*
X568844D01*
X566343Y570144D02*
X568644D01*
X568042Y557394D02*
Y560819D01*
X568242Y557594D02*
Y561019D01*
X568643Y554370D02*
X569268Y554995D01*
X569868D01*
X568368Y557720D02*
Y558320D01*
X568868Y558820D01*
X569868D01*
X569642D02*
Y561095D01*
X569868Y554995D02*
X570368Y555495D01*
X570242Y556621D02*
Y557194D01*
X570368Y555495D02*
Y556495D01*
X569956Y556907D02*
X570368Y556495D01*
X570042Y556821D02*
Y556994D01*
X569956Y556907D02*
X570368Y557320D01*
Y558320D01*
X569868Y558820D02*
X570368Y558320D01*
X568842Y558794D02*
Y567946D01*
X568642Y558594D02*
Y568146D01*
X569042Y558820D02*
Y561651D01*
X569023Y561670D02*
X569598Y561095D01*
X568393Y561544D02*
X569149D01*
X568393Y561170D02*
Y562320D01*
X568367Y561144D02*
X569549D01*
X568393Y561344D02*
X569349D01*
X569442Y558820D02*
Y561251D01*
X569242Y558820D02*
Y561451D01*
X570042Y558646D02*
Y561095D01*
X570242Y558446D02*
Y561095D01*
X569842Y558820D02*
Y561095D01*
X569598D02*
X570748D01*
X570997Y561344D02*
X571889D01*
X570748Y561095D02*
X571323Y561670D01*
X571197Y561544D02*
X571689D01*
X568643Y553744D02*
X577043D01*
X568643Y553944D02*
X577043D01*
X568643Y554144D02*
X577043D01*
X568643Y554344D02*
X577043D01*
X568817Y554544D02*
X577043D01*
X569017Y554744D02*
X577043D01*
X569217Y554944D02*
X577043D01*
X570017Y555144D02*
X577043D01*
X570217Y555344D02*
X577043D01*
X570368Y555544D02*
X577043D01*
X570368Y555744D02*
X577043D01*
X570368Y555944D02*
X577043D01*
X570368Y556144D02*
X577043D01*
X570368Y556344D02*
X577043D01*
X570319Y556544D02*
X577043D01*
X569992Y556944D02*
X577043D01*
X570119Y556744D02*
X577043D01*
X570192Y557144D02*
X577043D01*
X570368Y557344D02*
X577043D01*
X570368Y557544D02*
X577043D01*
X570368Y557744D02*
X577043D01*
X570344Y558344D02*
X577043D01*
X570144Y558544D02*
X577043D01*
X569944Y558744D02*
X577043D01*
X568167Y560944D02*
X577043D01*
X572138Y561095D02*
X573288D01*
X571563Y561670D02*
X572138Y561095D01*
X570368Y557944D02*
X577043D01*
X570368Y558144D02*
X577043D01*
X570797Y561144D02*
X572089D01*
X573288Y561095D02*
X573863Y561670D01*
X573337Y561144D02*
X577043D01*
X573537Y561344D02*
X577043D01*
X573737Y561544D02*
X577043D01*
X568393Y561744D02*
X569023D01*
Y561670D02*
Y562820D01*
X568393Y561944D02*
X569023D01*
X568393Y562144D02*
X569023D01*
X568369Y562344D02*
X569023D01*
X568169Y562544D02*
X569023D01*
Y562820D02*
X569598Y563395D01*
X569042Y562839D02*
Y567845D01*
X571323Y561670D02*
Y562820D01*
X569242Y563039D02*
Y567845D01*
X571563Y561670D02*
Y562820D01*
X570748Y563395D02*
X571323Y562820D01*
X569442Y563239D02*
Y567845D01*
X569642Y563395D02*
Y567845D01*
X569598Y563395D02*
X570748D01*
X569842D02*
Y567845D01*
X568443Y568345D02*
Y569345D01*
X568042Y562671D02*
Y570395D01*
X568943Y567845D02*
X569943D01*
X568443Y568345D02*
X568943Y567845D01*
X568842Y569744D02*
Y569946D01*
X568642Y569544D02*
Y570146D01*
X568443Y569345D02*
X568943Y569845D01*
X569943D01*
X570042Y563395D02*
Y567944D01*
X570242Y563395D02*
Y568144D01*
X570442Y563395D02*
Y568344D01*
X569943Y567845D02*
X570443Y568345D01*
X568943Y569845D02*
X569943D01*
X570042Y569746D02*
Y569944D01*
X570443Y568345D02*
Y569345D01*
X569943Y569845D02*
X570443Y569345D01*
X570242Y569546D02*
Y570144D01*
X571323Y561744D02*
X571563D01*
X571323Y561944D02*
X571563D01*
X571323Y562144D02*
X571563D01*
X571323Y562344D02*
X571563D01*
X571323Y562544D02*
X571563D01*
X571323Y562744D02*
X571563D01*
X571199Y562944D02*
X571687D01*
X570999Y563144D02*
X571887D01*
X573863Y561744D02*
X577043D01*
X573863Y561670D02*
Y562820D01*
Y561944D02*
X577043D01*
X573863Y562144D02*
X577043D01*
X573863Y562344D02*
X577043D01*
X573863Y562544D02*
X577043D01*
X573863Y562744D02*
X577043D01*
X573539Y563144D02*
X577043D01*
X573739Y562944D02*
X577043D01*
X570042Y567944D02*
X577043D01*
X570242Y568144D02*
X577043D01*
X570442Y568344D02*
X577043D01*
X570443Y568544D02*
X577043D01*
X570244Y569544D02*
X577043D01*
X570044Y569744D02*
X577043D01*
X570042Y569944D02*
X577043D01*
X570242Y570144D02*
X577043D01*
X570799Y563344D02*
X572087D01*
X571563Y562820D02*
X572138Y563395D01*
X573339Y563344D02*
X577043D01*
X573288Y563395D02*
X573863Y562820D01*
X572138Y563395D02*
X573288D01*
X570443Y568744D02*
X577043D01*
X570443Y568944D02*
X577043D01*
X570443Y569144D02*
X577043D01*
X570443Y569344D02*
X577043D01*
X544593Y572544D02*
X562167D01*
X544519Y572744D02*
X562193D01*
X544319Y572944D02*
X562193D01*
X544119Y573144D02*
X562193D01*
X543919Y573344D02*
X562193D01*
X552842Y573544D02*
X562193D01*
X553042Y573744D02*
X562193D01*
X553143Y573944D02*
X562367D01*
X553868Y572495D02*
X562118D01*
X562193Y572570D01*
Y573770D01*
X553143Y574144D02*
X562567D01*
X562642Y574219D02*
Y574611D01*
X553143Y574744D02*
X562509D01*
X553143Y574344D02*
X562767D01*
X553143Y574544D02*
X562709D01*
X552644Y575344D02*
X562193D01*
X541719Y575544D02*
X562193D01*
X541519Y575744D02*
X562193D01*
X541319Y575944D02*
X562193D01*
X541119Y576144D02*
X562193D01*
X540919Y576344D02*
X562227D01*
X540719Y576544D02*
X562427D01*
X540519Y576744D02*
X562627D01*
X562242Y573819D02*
Y575011D01*
X562042Y572495D02*
Y586345D01*
X562442Y574019D02*
Y574811D01*
X553044Y574944D02*
X562309D01*
X552844Y575144D02*
X562193D01*
Y575060D02*
Y576310D01*
X562642Y576759D02*
Y577151D01*
X562242Y576359D02*
Y577551D01*
X562442Y576559D02*
Y577351D01*
X562193Y573770D02*
X562818Y574395D01*
X564242Y574221D02*
Y574609D01*
X564319Y574144D02*
X570994D01*
X564068Y574395D02*
X564693Y573770D01*
X562818Y574395D02*
X564068D01*
X562818Y574435D02*
X564068D01*
X564119Y574344D02*
X570796D01*
X564177Y574544D02*
X570615D01*
X564693Y572744D02*
X569693D01*
X564693Y572670D02*
Y573770D01*
Y572944D02*
X569892D01*
X564693Y573144D02*
X570092D01*
X564519Y573944D02*
X571211D01*
X564377Y574744D02*
X570448D01*
X564693Y573344D02*
X572009D01*
X564693Y573544D02*
X571713D01*
X564693Y573744D02*
X571449D01*
X562193Y575060D02*
X562818Y574435D01*
X562193Y576310D02*
X562818Y576935D01*
X564068Y574435D02*
X564693Y575060D01*
X564068Y576935D02*
X564693Y576310D01*
X562818Y576935D02*
X564068D01*
X562193Y577600D02*
X562818Y576975D01*
X564068D01*
X544142Y576944D02*
X569302D01*
X564442Y574021D02*
Y574809D01*
X564642Y573821D02*
Y575009D01*
X564577Y574944D02*
X570294D01*
X564693Y575144D02*
X570152D01*
X564242Y576761D02*
Y577149D01*
X564442Y576561D02*
Y577349D01*
X564693Y575344D02*
X570021D01*
X564259Y576744D02*
X569364D01*
X564459Y576544D02*
X569433D01*
X548142Y577544D02*
X562249D01*
X548243Y577744D02*
X562193D01*
X544342Y577144D02*
X562649D01*
X547942Y577344D02*
X562449D01*
X548144Y578744D02*
X562193D01*
X547944Y578944D02*
X562287D01*
X547744Y579144D02*
X562487D01*
X538943Y579344D02*
X562687D01*
X548243Y577944D02*
X562193D01*
Y577600D02*
Y578850D01*
X548243Y578144D02*
X562193D01*
X548243Y578344D02*
X562193D01*
X548243Y578544D02*
X562193D01*
X562642Y579299D02*
Y582817D01*
X562193Y578850D02*
X562818Y579475D01*
X552942Y582744D02*
X562694D01*
X553044Y584144D02*
X562097D01*
X552844Y584344D02*
X562067D01*
X553142Y582944D02*
X562559D01*
X553193Y583144D02*
X562444D01*
X538943Y584544D02*
X562049D01*
X538844Y584744D02*
X562043D01*
X538644Y584944D02*
X562043D01*
X538444Y585144D02*
X562043D01*
X553193Y583544D02*
X562262D01*
X562242Y578899D02*
Y583598D01*
X562442Y579099D02*
Y583146D01*
X553193Y583344D02*
X562345D01*
X562043Y584545D02*
Y584745D01*
X553193Y583744D02*
X562194D01*
X553193Y583944D02*
X562139D01*
X562043Y584745D02*
Y586345D01*
X538844Y579744D02*
X569043D01*
X538644Y579944D02*
X569043D01*
X538444Y580144D02*
X569043D01*
X537793Y580344D02*
X569043D01*
X537793Y580544D02*
X569043D01*
X537793Y580744D02*
X569043D01*
X537793Y580944D02*
X569043D01*
X537793Y581144D02*
X569043D01*
X564068Y576975D02*
X564693Y577600D01*
X564068Y579475D02*
X564693Y578850D01*
X564237Y577144D02*
X569247D01*
X564437Y577344D02*
X569198D01*
X564599Y578944D02*
X569043D01*
X562818Y579475D02*
X564068D01*
X564399Y579144D02*
X569043D01*
X538943Y579544D02*
X569043D01*
X564199Y579344D02*
X569043D01*
X537793Y581544D02*
X564296D01*
X537793Y581744D02*
X563845D01*
X537793Y581344D02*
X569043D01*
X537793Y582344D02*
X563036D01*
X552742Y582544D02*
X562852D01*
X537793Y581944D02*
X563516D01*
X537793Y582144D02*
X563253D01*
X563042Y579475D02*
Y582337D01*
X562842Y579475D02*
Y582555D01*
X564442Y579101D02*
Y581496D01*
X564242Y579301D02*
Y581564D01*
X563442Y579475D02*
Y581996D01*
X563242Y579475D02*
Y582153D01*
X564042Y579475D02*
Y581647D01*
X563642Y579475D02*
Y581861D01*
X563842Y579475D02*
Y581745D01*
X564718Y572695D02*
X565168D01*
X564718D02*
X565168D01*
X566293Y570395D02*
X568443D01*
X566343Y570344D02*
X568444D01*
X564842Y572695D02*
Y581398D01*
X565042Y572695D02*
Y581369D01*
X565168Y572695D02*
X569693D01*
X565242D02*
Y581351D01*
X568242Y562471D02*
Y570395D01*
X568442Y558394D02*
Y570395D01*
X570442Y569346D02*
Y570344D01*
X570642Y563395D02*
Y571245D01*
X568443Y570345D02*
Y570395D01*
Y570345D02*
X568943Y569845D01*
X569943D02*
X570443Y570345D01*
Y571245D01*
X565442Y572695D02*
Y581345D01*
X565642Y572695D02*
Y581351D01*
X565842Y572695D02*
Y581368D01*
X566042Y572695D02*
Y581398D01*
X566242Y572695D02*
Y581440D01*
X566442Y572695D02*
Y581495D01*
X566642Y572695D02*
Y581563D01*
X566842Y572695D02*
Y581646D01*
X567042Y572695D02*
Y581745D01*
X567242Y572695D02*
Y581860D01*
X567442Y572695D02*
Y581995D01*
X567642Y572695D02*
Y582152D01*
X567842Y572695D02*
Y582336D01*
X568042Y572695D02*
Y582553D01*
X568242Y572695D02*
Y582815D01*
X568442Y572695D02*
Y583143D01*
X568642Y572695D02*
Y583594D01*
X570842Y563301D02*
Y571245D01*
X571042Y563101D02*
Y571245D01*
X570442Y570344D02*
X577043D01*
X570443Y570544D02*
X577043D01*
X570443Y570744D02*
X577043D01*
X570443Y571245D02*
X571193D01*
X570443Y570944D02*
X577043D01*
X570443Y571144D02*
X577043D01*
X571242Y562901D02*
Y571294D01*
X571642Y562899D02*
Y571694D01*
X571292Y571344D02*
X577043D01*
X571193Y571245D02*
X571693Y571745D01*
X571492Y571544D02*
X577043D01*
X571692Y571744D02*
X577043D01*
X571693Y571944D02*
X577043D01*
X571693Y572144D02*
X577043D01*
X572042Y563299D02*
Y573323D01*
X571842Y563099D02*
Y573454D01*
X572442Y563395D02*
Y573092D01*
X572242Y563395D02*
Y573203D01*
X571693Y572544D02*
X573859D01*
X571693Y571745D02*
Y572745D01*
Y572344D02*
X577043D01*
X573442Y563241D02*
Y572666D01*
X572642Y563395D02*
Y572990D01*
X573842Y562841D02*
Y572548D01*
X573642Y563041D02*
Y572604D01*
X573042Y563395D02*
Y572812D01*
X572842Y563395D02*
Y572897D01*
X575243Y572345D02*
X575443D01*
X573242Y563395D02*
Y572735D01*
X575443Y572345D02*
X577043D01*
X564693Y575060D02*
Y576310D01*
X564642Y576361D02*
Y577549D01*
X564693Y578544D02*
X569046D01*
X564693Y577600D02*
Y578850D01*
Y578744D02*
X569043D01*
X564642Y578901D02*
Y581441D01*
X566590Y581544D02*
X569043D01*
X567042Y581744D02*
X569043D01*
X567371Y581944D02*
X569043D01*
X567633Y582144D02*
X569043D01*
X567851Y582344D02*
X569043D01*
X568035Y582544D02*
X569043D01*
X568192Y582744D02*
X569043D01*
X568327Y582944D02*
X569043D01*
X568443Y583144D02*
X569043D01*
X568541Y583344D02*
X569043D01*
X568624Y583544D02*
X569043D01*
X568842Y572695D02*
Y584669D01*
X568693Y583744D02*
X569043D01*
X568747Y583944D02*
X569043D01*
X568790Y584144D02*
X569043D01*
X568819Y584344D02*
X569043D01*
X568837Y584544D02*
X569043D01*
X568843Y584545D02*
Y586345D01*
X569042Y572695D02*
Y586345D01*
X568843Y584744D02*
X569043D01*
X569043Y578745D02*
X569043Y586345D01*
X568843Y584944D02*
X569043D01*
X568843Y585144D02*
X569043D01*
X568843Y585344D02*
X569043D01*
X568843Y585544D02*
X569043D01*
X568843Y585744D02*
X569043D01*
X569693Y572695D02*
Y572745D01*
X570042Y573094D02*
Y575311D01*
X569693Y572745D02*
X570193Y573245D01*
X571193D01*
X570242D02*
Y575015D01*
X564693Y575544D02*
X569901D01*
X570642Y573245D02*
Y574513D01*
X570442Y573245D02*
Y574751D01*
X571193Y573245D02*
X571693Y572745D01*
X571642Y572796D02*
Y573596D01*
X571693Y572744D02*
X573218D01*
X571494Y572944D02*
X572739D01*
X571042Y573245D02*
Y574098D01*
X570842Y573245D02*
Y574296D01*
X571294Y573144D02*
X572346D01*
X571242Y573196D02*
Y573917D01*
X571442Y572996D02*
Y573750D01*
X564693Y576144D02*
X569595D01*
X564659Y576344D02*
X569510D01*
X564693Y575744D02*
X569790D01*
X564693Y575944D02*
X569689D01*
X564693Y577744D02*
X569122D01*
X564693Y577944D02*
X569093D01*
X564637Y577544D02*
X569157D01*
X564693Y578144D02*
X569071D01*
X569442Y572695D02*
Y576520D01*
X569242Y572695D02*
Y577161D01*
X569842Y572894D02*
Y575648D01*
X569642Y572695D02*
Y576041D01*
X568843Y585944D02*
X569043D01*
X568843Y586144D02*
X569043D01*
X564693Y578344D02*
X569056D01*
X568843Y586345D02*
X569043D01*
X568843Y586344D02*
X569043D01*
D56*
X503443Y529245D02*
X504943D01*
X504193Y526995D02*
Y529995D01*
X492643Y526245D02*
X503443D01*
X491143Y523745D02*
X492693D01*
X504193Y528495D02*
X504943Y529245D01*
X503443D02*
X504193Y528495D01*
X491943Y525545D02*
X492643Y526245D01*
X491943Y524495D02*
Y525545D01*
X504943Y529245D02*
Y530745D01*
X503443Y529245D02*
Y530745D01*
X504943D01*
X503443Y526245D02*
X504193Y526995D01*
X491143Y523745D02*
X491893Y524495D01*
X491943D02*
X492693Y523745D01*
X487443Y524545D02*
X488243Y523745D01*
X486643D02*
X487443Y524545D01*
X486643Y523745D02*
X488193D01*
X487443D02*
Y528345D01*
X482543Y533245D02*
X487443Y528345D01*
X479443Y533245D02*
X482543D01*
X468943Y535745D02*
X471943D01*
X468943Y533245D02*
Y535745D01*
X462943Y542245D02*
X466893D01*
X460443Y539745D02*
X462943Y542245D01*
X460443Y537245D02*
Y539745D01*
X457943Y534745D02*
X460443Y537245D01*
X456943Y534745D02*
X457943D01*
X471943Y533245D02*
Y535745D01*
X474993Y538795D02*
Y542245D01*
X471943Y535745D02*
X474993Y538795D01*
D58*
X456943Y564745D02*
D03*
Y562245D02*
D03*
Y559745D02*
D03*
Y557245D02*
D03*
Y532245D02*
D03*
Y534745D02*
D03*
Y539745D02*
D03*
Y552245D02*
D03*
Y549745D02*
D03*
Y547245D02*
D03*
Y544745D02*
D03*
Y542245D02*
D03*
D59*
X563443Y575685D02*
D03*
Y573145D02*
D03*
Y578225D02*
D03*
D60*
X471943Y533245D02*
D03*
X468943D02*
D03*
X479443D02*
D03*
X461443D02*
D03*
D61*
X474993Y542245D02*
D03*
X466893D02*
D03*
D62*
X470943Y539645D02*
D03*
D63*
X492693Y523745D02*
D03*
X491143D02*
D03*
X488243D02*
D03*
X486643D02*
D03*
X533443Y527945D02*
D03*
Y524745D02*
D03*
D64*
X469443D02*
D03*
Y584745D02*
D03*
X565443D02*
D03*
Y524745D02*
D03*
D65*
X502943Y583245D02*
D03*
X500443D02*
D03*
D66*
X572713Y547245D02*
D03*
X570173D02*
D03*
X572713Y562245D02*
D03*
X570173D02*
D03*
X563343Y564845D02*
D03*
X567243Y561745D02*
D03*
X571743Y568745D02*
D03*
Y553745D02*
D03*
D67*
X468443Y564045D02*
D03*
X470443Y546345D02*
D03*
X537943Y584145D02*
D03*
X480443Y563245D02*
D03*
X546143Y531745D02*
D03*
X503443Y530745D02*
D03*
X504943Y529245D02*
D03*
X459943Y567745D02*
D03*
X522543Y574345D02*
D03*
X529543Y572645D02*
D03*
X534343Y552345D02*
D03*
X541343Y545845D02*
D03*
X514543Y579745D02*
D03*
Y578045D02*
D03*
X540443Y562545D02*
D03*
X537843Y566545D02*
D03*
X539343Y566745D02*
D03*
X536143Y570745D02*
D03*
X534543Y568345D02*
D03*
X529343Y569045D02*
D03*
X532243Y570745D02*
D03*
X536043Y568645D02*
D03*
X537243Y563845D02*
D03*
X537543Y568945D02*
D03*
X533743Y570745D02*
D03*
X531043Y572445D02*
D03*
X533843Y573145D02*
D03*
X538043Y574745D02*
D03*
X532743Y574345D02*
D03*
X530343Y573945D02*
D03*
X537643Y570745D02*
D03*
X531743Y565545D02*
D03*
X531643Y563545D02*
D03*
X528143Y572045D02*
D03*
X522943Y571545D02*
D03*
X554143Y565045D02*
D03*
X565343Y569845D02*
D03*
X545143Y568045D02*
D03*
X548943Y570145D02*
D03*
Y571995D02*
D03*
X515743Y575745D02*
D03*
X514543Y534545D02*
D03*
Y532045D02*
D03*
X520693Y578245D02*
D03*
X547243Y578145D02*
D03*
X543443Y577745D02*
D03*
X547243Y560045D02*
D03*
X514543Y564545D02*
D03*
X538143Y552345D02*
D03*
X535843Y552345D02*
D03*
X520243Y563245D02*
D03*
X528143Y565845D02*
D03*
Y552345D02*
D03*
X530643D02*
D03*
X533943Y532045D02*
D03*
X528643D02*
D03*
X534043Y548645D02*
D03*
X528743D02*
D03*
X501043Y548140D02*
D03*
X498443Y567245D02*
D03*
X496443Y571090D02*
D03*
X470443Y552845D02*
D03*
X472443Y560345D02*
D03*
Y558445D02*
D03*
X475443Y553245D02*
D03*
X489943Y551445D02*
D03*
X488443Y565345D02*
D03*
Y567245D02*
D03*
X487943Y560745D02*
D03*
X493043D02*
D03*
X489043Y555445D02*
D03*
X494943Y554745D02*
D03*
X487943Y574145D02*
D03*
Y572245D02*
D03*
X494318Y565545D02*
D03*
X483943Y577470D02*
D03*
Y579370D02*
D03*
X506443Y577245D02*
D03*
X501343D02*
D03*
X499443Y529245D02*
D03*
Y530745D02*
D03*
X500943D02*
D03*
Y529245D02*
D03*
X503443D02*
D03*
X504943Y530745D02*
D03*
X472443Y581245D02*
D03*
X484943Y581745D02*
D03*
Y585245D02*
D03*
X541343Y544345D02*
D03*
X526943Y537145D02*
D03*
X541443Y534545D02*
D03*
X544943Y535545D02*
D03*
X514543Y537045D02*
D03*
Y539545D02*
D03*
Y547045D02*
D03*
Y549545D02*
D03*
Y552045D02*
D03*
Y567045D02*
D03*
Y569545D02*
D03*
Y572045D02*
D03*
Y574545D02*
D03*
X514943Y583245D02*
D03*
X508943Y526245D02*
D03*
X507443D02*
D03*
Y524745D02*
D03*
X508943D02*
D03*
X525643Y552345D02*
D03*
X562743Y552745D02*
D03*
X563943Y551745D02*
D03*
X562743Y550745D02*
D03*
X563943Y549745D02*
D03*
X562743Y548745D02*
D03*
X563943Y547745D02*
D03*
X562743Y546745D02*
D03*
X563943Y545745D02*
D03*
X562743Y544745D02*
D03*
X563943Y543745D02*
D03*
X562743Y542745D02*
D03*
X563943Y541745D02*
D03*
X562743Y540745D02*
D03*
X563943Y539745D02*
D03*
X562743Y538745D02*
D03*
X563943Y537645D02*
D03*
X562743Y536645D02*
D03*
X564643Y531645D02*
D03*
Y533145D02*
D03*
X566443Y529545D02*
D03*
X568043D02*
D03*
X545143Y552345D02*
D03*
X542443Y555945D02*
D03*
X544243Y553545D02*
D03*
X546943Y549945D02*
D03*
X547843Y548745D02*
D03*
X552343Y542745D02*
D03*
X553243Y541545D02*
D03*
X548743Y547545D02*
D03*
X549643Y546345D02*
D03*
X550543Y545145D02*
D03*
X555943Y537945D02*
D03*
X555043Y539145D02*
D03*
X543343Y554745D02*
D03*
X551443Y543945D02*
D03*
X554143Y540345D02*
D03*
X546043Y551145D02*
D03*
X548743Y560045D02*
D03*
X557743Y535545D02*
D03*
X569368Y555995D02*
D03*
Y557820D02*
D03*
X540843Y531745D02*
D03*
X569443Y542045D02*
D03*
Y538445D02*
D03*
X521243Y581045D02*
D03*
X552193Y583495D02*
D03*
X544843Y583745D02*
D03*
X569443Y570845D02*
D03*
X539043Y580345D02*
D03*
X528143Y568045D02*
D03*
X563943Y569245D02*
D03*
X555543Y565645D02*
D03*
X556943Y566245D02*
D03*
X558343Y566845D02*
D03*
X559743Y567445D02*
D03*
X561143Y568045D02*
D03*
X562543Y568645D02*
D03*
X565643Y576745D02*
D03*
X514543Y559545D02*
D03*
Y562045D02*
D03*
Y557045D02*
D03*
Y554545D02*
D03*
X536543Y574745D02*
D03*
X535043D02*
D03*
X528243Y573545D02*
D03*
X534143Y565945D02*
D03*
X528143Y570045D02*
D03*
X529343Y571045D02*
D03*
X531343Y567045D02*
D03*
X538643Y565245D02*
D03*
X537943Y579145D02*
D03*
X514543Y544545D02*
D03*
Y542045D02*
D03*
X506943Y548245D02*
D03*
X532843Y557445D02*
D03*
X535343Y558345D02*
D03*
X530543Y557445D02*
D03*
X516443Y584045D02*
D03*
X517943Y584145D02*
D03*
X519443Y584245D02*
D03*
X520943D02*
D03*
X522443D02*
D03*
X548943Y573745D02*
D03*
X570693Y572245D02*
D03*
X515743Y573245D02*
D03*
Y533245D02*
D03*
Y535745D02*
D03*
Y538245D02*
D03*
Y540745D02*
D03*
Y543245D02*
D03*
Y545745D02*
D03*
Y548245D02*
D03*
Y550745D02*
D03*
Y553245D02*
D03*
Y555745D02*
D03*
Y558245D02*
D03*
Y560745D02*
D03*
Y563245D02*
D03*
Y565745D02*
D03*
Y568245D02*
D03*
Y570745D02*
D03*
X569443Y568845D02*
D03*
X569443Y551145D02*
D03*
X569443Y543745D02*
D03*
X520443Y568145D02*
D03*
X552143Y574345D02*
D03*
M02*
