%FSLAX43Y43*%
%MOMM*%
G71*
G01*
G75*
%ADD10C,0.300*%
%ADD11C,0.200*%
%ADD12C,0.500*%
%ADD13R,0.800X1.200*%
%ADD14R,0.700X1.100*%
%ADD15R,0.825X2.000*%
%ADD16R,2.200X2.500*%
%ADD17R,1.800X0.800*%
%ADD18R,1.800X1.200*%
%ADD19R,1.600X1.100*%
%ADD20R,1.100X1.600*%
%ADD21R,1.000X0.400*%
%ADD22O,0.200X0.400*%
%ADD23O,0.400X0.200*%
%ADD24C,1.000*%
%ADD25R,1.600X0.200*%
%ADD26R,0.200X1.600*%
%ADD27R,2.300X0.400*%
%ADD28R,3.250X0.700*%
%ADD29R,2.000X0.500*%
%ADD30R,0.500X1.700*%
%ADD31R,0.500X1.700*%
%ADD32R,0.350X1.800*%
%ADD33R,1.100X0.700*%
%ADD34R,1.200X1.800*%
%ADD35R,2.600X2.600*%
%ADD36R,0.500X2.200*%
%ADD37R,1.500X2.900*%
%ADD38R,2.900X1.500*%
%ADD39R,1.500X2.900*%
%ADD40R,2.900X1.500*%
%ADD41R,0.350X1.600*%
%ADD42R,2.270X0.550*%
%ADD43R,1.400X0.900*%
%ADD44R,0.600X1.550*%
%ADD45R,1.200X0.220*%
%ADD46R,0.400X2.300*%
%ADD47R,1.220X0.620*%
%ADD48R,1.000X0.450*%
%ADD49R,1.600X0.300*%
%ADD50R,1.400X1.000*%
%ADD51R,1.800X0.500*%
%ADD52C,0.200*%
%ADD53C,0.300*%
%ADD54C,0.400*%
%ADD55C,0.254*%
%ADD56C,1.500*%
%ADD57C,1.000*%
%ADD58O,2.500X1.800*%
%ADD59C,1.800*%
%ADD60R,2.500X3.000*%
%ADD61C,3.200*%
%ADD62C,1.270*%
%ADD63C,1.500*%
%ADD64C,2.000*%
%ADD65O,1.800X2.500*%
%ADD66C,1.600*%
%ADD67C,1.300*%
%ADD68C,0.500*%
%ADD69C,0.750*%
%ADD70C,0.210*%
%ADD71C,0.180*%
%ADD72C,0.250*%
%ADD73C,0.150*%
%ADD74R,16.750X1.000*%
%ADD75R,16.750X1.000*%
%ADD76R,3.500X2.500*%
%ADD77R,1.800X1.800*%
%ADD78R,1.000X1.400*%
%ADD79R,0.900X1.300*%
%ADD80R,1.025X2.200*%
%ADD81R,2.400X2.700*%
%ADD82R,2.000X1.000*%
%ADD83R,2.000X1.400*%
%ADD84R,1.800X1.300*%
%ADD85R,1.300X1.800*%
%ADD86R,1.200X0.600*%
%ADD87O,0.400X0.600*%
%ADD88O,0.600X0.400*%
%ADD89C,1.200*%
%ADD90R,1.800X0.400*%
%ADD91R,0.400X1.800*%
%ADD92R,2.500X0.600*%
%ADD93R,3.450X0.900*%
%ADD94R,2.200X0.700*%
%ADD95R,0.700X1.900*%
%ADD96R,0.700X1.900*%
%ADD97R,0.550X2.000*%
%ADD98R,1.300X0.900*%
%ADD99R,1.400X2.000*%
%ADD100R,2.800X2.800*%
%ADD101R,0.700X2.400*%
%ADD102R,1.700X3.100*%
%ADD103R,3.100X1.700*%
%ADD104R,1.700X3.100*%
%ADD105R,3.100X1.700*%
%ADD106R,0.550X1.800*%
%ADD107R,2.470X0.750*%
%ADD108R,0.800X1.750*%
%ADD109R,1.400X0.420*%
%ADD110R,0.600X2.500*%
%ADD111R,1.420X0.820*%
%ADD112R,1.200X0.650*%
%ADD113R,1.600X1.200*%
%ADD114R,2.000X0.700*%
%ADD115O,2.700X2.000*%
%ADD116C,2.000*%
%ADD117R,2.700X3.200*%
%ADD118C,3.400*%
%ADD119C,1.470*%
%ADD120C,1.700*%
%ADD121C,2.200*%
%ADD122O,2.000X2.700*%
%ADD123C,0.700*%
%ADD124R,16.750X1.000*%
%ADD125R,16.750X1.000*%
%ADD126C,2.000*%
%ADD127C,3.000*%
%ADD128R,6.000X4.000*%
%ADD129R,9.700X36.100*%
%ADD130R,14.800X25.400*%
%ADD131R,18.200X23.300*%
%ADD132R,7.800X14.700*%
%ADD133R,2.500X2.600*%
%ADD134R,3.400X2.400*%
%ADD135C,2.100*%
%ADD136C,2.300*%
%ADD137C,2.500*%
%ADD138C,2.800*%
%ADD139C,3.600*%
%ADD140C,1.950*%
%ADD141C,3.800*%
%ADD142C,1.900*%
%ADD143C,1.700*%
%ADD144C,1.800*%
%ADD145R,18.200X23.300*%
D12*
X495443Y522745D02*
X495184Y522711D01*
X494943Y522611D01*
X494736Y522452D01*
X494577Y522245D01*
X494477Y522004D01*
X494443Y521745D01*
X533443D02*
X533409Y522004D01*
X533309Y522245D01*
X533150Y522452D01*
X532943Y522611D01*
X532702Y522711D01*
X532443Y522745D01*
X570443Y578745D02*
X570450Y578492D01*
X570469Y578239D01*
X570501Y577988D01*
X570545Y577738D01*
X570603Y577492D01*
X570672Y577248D01*
X570754Y577008D01*
X570848Y576773D01*
X570954Y576543D01*
X571071Y576318D01*
X571200Y576100D01*
X571339Y575889D01*
X571489Y575684D01*
X571649Y575488D01*
X571819Y575300D01*
X571998Y575121D01*
X572186Y574951D01*
X572383Y574791D01*
X572587Y574641D01*
X572798Y574502D01*
X573017Y574373D01*
X573241Y574256D01*
X573471Y574150D01*
X573707Y574056D01*
X573946Y573974D01*
X574190Y573905D01*
X574437Y573847D01*
X574686Y573803D01*
X574937Y573771D01*
X575190Y573751D01*
X575443Y573745D01*
Y535745D02*
X575190Y535739D01*
X574937Y535719D01*
X574686Y535687D01*
X574437Y535643D01*
X574190Y535585D01*
X573946Y535516D01*
X573707Y535434D01*
X573471Y535340D01*
X573241Y535234D01*
X573017Y535117D01*
X572798Y534988D01*
X572587Y534849D01*
X572383Y534699D01*
X572186Y534539D01*
X571998Y534369D01*
X571819Y534190D01*
X571649Y534002D01*
X571489Y533805D01*
X571339Y533601D01*
X571200Y533390D01*
X571071Y533171D01*
X570954Y532947D01*
X570848Y532717D01*
X570754Y532481D01*
X570672Y532242D01*
X570603Y531998D01*
X570545Y531751D01*
X570501Y531502D01*
X570469Y531251D01*
X570450Y530998D01*
X570443Y530745D01*
X464443Y524745D02*
X464437Y524998D01*
X464417Y525251D01*
X464385Y525502D01*
X464341Y525751D01*
X464284Y525998D01*
X464214Y526242D01*
X464132Y526481D01*
X464038Y526717D01*
X463932Y526947D01*
X463815Y527171D01*
X463686Y527390D01*
X463547Y527601D01*
X463397Y527805D01*
X463237Y528002D01*
X463067Y528190D01*
X462888Y528369D01*
X462700Y528539D01*
X462504Y528699D01*
X462299Y528849D01*
X462088Y528988D01*
X461870Y529117D01*
X461645Y529234D01*
X461415Y529340D01*
X461180Y529434D01*
X460940Y529516D01*
X460696Y529585D01*
X460450Y529643D01*
X460200Y529687D01*
X459949Y529719D01*
X459696Y529739D01*
X459443Y529745D01*
Y579745D02*
X459696Y579751D01*
X459949Y579771D01*
X460200Y579803D01*
X460450Y579847D01*
X460696Y579905D01*
X460940Y579974D01*
X461180Y580056D01*
X461415Y580150D01*
X461645Y580256D01*
X461870Y580373D01*
X462088Y580502D01*
X462299Y580641D01*
X462504Y580791D01*
X462700Y580951D01*
X462888Y581121D01*
X463067Y581300D01*
X463237Y581488D01*
X463397Y581684D01*
X463547Y581889D01*
X463686Y582100D01*
X463815Y582318D01*
X463932Y582543D01*
X464038Y582773D01*
X464132Y583008D01*
X464214Y583248D01*
X464284Y583492D01*
X464341Y583738D01*
X464385Y583988D01*
X464417Y584239D01*
X464437Y584492D01*
X464443Y584745D01*
Y521745D02*
X494443D01*
X495443Y522745D02*
X532443D01*
X533443Y521745D02*
X570443D01*
X464443Y587745D02*
X570443D01*
X570443Y578745D01*
X575443Y573745D02*
X578443D01*
X570443Y521745D02*
X570443Y530745D01*
X575443Y535745D02*
X578443D01*
X464443Y521745D02*
X464443Y524745D01*
X464443Y587745D02*
X464443Y584745D01*
X448443Y529745D02*
X459443D01*
X448443Y579745D02*
X459443D01*
X448443Y529745D02*
Y579745D01*
X578443Y535745D02*
Y573745D01*
D73*
X456493Y564745D02*
X457393D01*
X456943Y564295D02*
Y565195D01*
X456493Y562245D02*
X457393D01*
X456943Y561795D02*
Y562695D01*
X456493Y559745D02*
X457393D01*
X456943Y559295D02*
Y560195D01*
X456493Y557245D02*
X457393D01*
X456943Y556795D02*
Y557695D01*
X562893Y575685D02*
X563993D01*
X563443Y575135D02*
Y576235D01*
X562893Y573145D02*
X563993D01*
X563443Y572595D02*
Y573695D01*
X562893Y578225D02*
X563993D01*
X563443Y577675D02*
Y578775D01*
X471293Y533245D02*
X472593D01*
X471943Y532595D02*
Y533895D01*
X468293Y533245D02*
X469593D01*
X468943Y532595D02*
Y533895D01*
X478793Y533245D02*
X480093D01*
X479443Y532595D02*
Y533895D01*
X460793Y533245D02*
X462093D01*
X461443Y532595D02*
Y533895D01*
X474193Y542245D02*
X475793D01*
X474993Y541445D02*
Y543045D01*
X466093Y542245D02*
X467693D01*
X466893Y541445D02*
Y543045D01*
X469743Y539645D02*
X472143D01*
X470943Y538445D02*
Y540845D01*
X492318Y523745D02*
X493068D01*
X492693Y523370D02*
Y524120D01*
X490768Y523745D02*
X491518D01*
X491143Y523370D02*
Y524120D01*
X487868Y523745D02*
X488618D01*
X488243Y523370D02*
Y524120D01*
X486268Y523745D02*
X487018D01*
X486643Y523370D02*
Y524120D01*
X468143Y524745D02*
X470743D01*
X469443Y523445D02*
Y526045D01*
X468143Y584745D02*
X470743D01*
X469443Y583445D02*
Y586045D01*
X564143Y584745D02*
X566743D01*
X565443Y583445D02*
Y586045D01*
X456493Y532245D02*
X457393D01*
X456943Y531795D02*
Y532695D01*
X456493Y534745D02*
X457393D01*
X456943Y534295D02*
Y535195D01*
X502493Y583245D02*
X503393D01*
X502943Y582795D02*
Y583695D01*
X499993Y583245D02*
X500893D01*
X500443Y582795D02*
Y583695D01*
X456493Y539745D02*
X457393D01*
X456943Y539295D02*
Y540195D01*
X456493Y552245D02*
X457393D01*
X456943Y551795D02*
Y552695D01*
X456493Y549745D02*
X457393D01*
X456943Y549295D02*
Y550195D01*
X456493Y547245D02*
X457393D01*
X456943Y546795D02*
Y547695D01*
X456493Y544745D02*
X457393D01*
X456943Y544295D02*
Y545195D01*
X456493Y542245D02*
X457393D01*
X456943Y541795D02*
Y542695D01*
X533068Y527945D02*
X533818D01*
X533443Y527570D02*
Y528320D01*
X533068Y524745D02*
X533818D01*
X533443Y524370D02*
Y525120D01*
X572363Y547245D02*
X573063D01*
X572713Y546895D02*
Y547595D01*
X569823Y547245D02*
X570523D01*
X570173Y546895D02*
Y547595D01*
X572363Y562245D02*
X573063D01*
X572713Y561895D02*
Y562595D01*
X569823Y562245D02*
X570523D01*
X570173Y561895D02*
Y562595D01*
X564143Y524745D02*
X566743D01*
X565443Y523445D02*
Y526045D01*
X468193Y564045D02*
X468693D01*
X468443Y563795D02*
Y564295D01*
X470193Y546345D02*
X470693D01*
X470443Y546095D02*
Y546595D01*
X537693Y584145D02*
X538193D01*
X537943Y583895D02*
Y584395D01*
X480193Y563245D02*
X480693D01*
X480443Y562995D02*
Y563495D01*
X545893Y531745D02*
X546393D01*
X546143Y531495D02*
Y531995D01*
X503193Y530745D02*
X503693D01*
X503443Y530495D02*
Y530995D01*
X504693Y529245D02*
X505193D01*
X504943Y528995D02*
Y529495D01*
X459693Y567745D02*
X460193D01*
X459943Y567495D02*
Y567995D01*
X522293Y574345D02*
X522793D01*
X522543Y574095D02*
Y574595D01*
X529293Y572645D02*
X529793D01*
X529543Y572395D02*
Y572895D01*
X534093Y552345D02*
X534593D01*
X534343Y552095D02*
Y552595D01*
X541093Y545845D02*
X541593D01*
X541343Y545595D02*
Y546095D01*
X514293Y579745D02*
X514793D01*
X514543Y579495D02*
Y579995D01*
X514293Y578045D02*
X514793D01*
X514543Y577795D02*
Y578295D01*
X540193Y562545D02*
X540693D01*
X540443Y562295D02*
Y562795D01*
X537593Y566545D02*
X538093D01*
X537843Y566295D02*
Y566795D01*
X539093Y566745D02*
X539593D01*
X539343Y566495D02*
Y566995D01*
X535893Y570745D02*
X536393D01*
X536143Y570495D02*
Y570995D01*
X534293Y568345D02*
X534793D01*
X534543Y568095D02*
Y568595D01*
X529093Y569045D02*
X529593D01*
X529343Y568795D02*
Y569295D01*
X531993Y570745D02*
X532493D01*
X532243Y570495D02*
Y570995D01*
X535793Y568645D02*
X536293D01*
X536043Y568395D02*
Y568895D01*
X536993Y563845D02*
X537493D01*
X537243Y563595D02*
Y564095D01*
X537293Y568945D02*
X537793D01*
X537543Y568695D02*
Y569195D01*
X533493Y570745D02*
X533993D01*
X533743Y570495D02*
Y570995D01*
X530793Y572445D02*
X531293D01*
X531043Y572195D02*
Y572695D01*
X533593Y573145D02*
X534093D01*
X533843Y572895D02*
Y573395D01*
X537793Y574745D02*
X538293D01*
X538043Y574495D02*
Y574995D01*
X532493Y574345D02*
X532993D01*
X532743Y574095D02*
Y574595D01*
X530093Y573945D02*
X530593D01*
X530343Y573695D02*
Y574195D01*
X537393Y570745D02*
X537893D01*
X537643Y570495D02*
Y570995D01*
X531493Y565545D02*
X531993D01*
X531743Y565295D02*
Y565795D01*
X531393Y563545D02*
X531893D01*
X531643Y563295D02*
Y563795D01*
X527893Y572045D02*
X528393D01*
X528143Y571795D02*
Y572295D01*
X522693Y571545D02*
X523193D01*
X522943Y571295D02*
Y571795D01*
X553893Y565045D02*
X554393D01*
X554143Y564795D02*
Y565295D01*
X565093Y569845D02*
X565593D01*
X565343Y569595D02*
Y570095D01*
X544893Y568045D02*
X545393D01*
X545143Y567795D02*
Y568295D01*
X548693Y570145D02*
X549193D01*
X548943Y569895D02*
Y570395D01*
X548693Y571995D02*
X549193D01*
X548943Y571745D02*
Y572245D01*
X515493Y575745D02*
X515993D01*
X515743Y575495D02*
Y575995D01*
X514293Y534545D02*
X514793D01*
X514543Y534295D02*
Y534795D01*
X514293Y532045D02*
X514793D01*
X514543Y531795D02*
Y532295D01*
X563043Y564845D02*
X563643D01*
X563343Y564545D02*
Y565145D01*
X520443Y578245D02*
X520943D01*
X520693Y577995D02*
Y578495D01*
X546993Y578145D02*
X547493D01*
X547243Y577895D02*
Y578395D01*
X543193Y577745D02*
X543693D01*
X543443Y577495D02*
Y577995D01*
X546993Y560045D02*
X547493D01*
X547243Y559795D02*
Y560295D01*
X514293Y564545D02*
X514793D01*
X514543Y564295D02*
Y564795D01*
X537893Y552345D02*
X538393D01*
X538143Y552095D02*
Y552595D01*
X535593Y552345D02*
X536093D01*
X535843Y552095D02*
Y552595D01*
X519993Y563245D02*
X520493D01*
X520243Y562995D02*
Y563495D01*
X527893Y565845D02*
X528393D01*
X528143Y565595D02*
Y566095D01*
X527893Y552345D02*
X528393D01*
X528143Y552095D02*
Y552595D01*
X530393Y552345D02*
X530893D01*
X530643Y552095D02*
Y552595D01*
X533693Y532045D02*
X534193D01*
X533943Y531795D02*
Y532295D01*
X528393Y532045D02*
X528893D01*
X528643Y531795D02*
Y532295D01*
X533793Y548645D02*
X534293D01*
X534043Y548395D02*
Y548895D01*
X528493Y548645D02*
X528993D01*
X528743Y548395D02*
Y548895D01*
X500793Y548140D02*
X501293D01*
X501043Y547890D02*
Y548390D01*
X498193Y567245D02*
X498693D01*
X498443Y566995D02*
Y567495D01*
X496193Y571090D02*
X496693D01*
X496443Y570840D02*
Y571340D01*
X470193Y552845D02*
X470693D01*
X470443Y552595D02*
Y553095D01*
X472193Y560345D02*
X472693D01*
X472443Y560095D02*
Y560595D01*
X472193Y558445D02*
X472693D01*
X472443Y558195D02*
Y558695D01*
X475193Y553245D02*
X475693D01*
X475443Y552995D02*
Y553495D01*
X489693Y551445D02*
X490193D01*
X489943Y551195D02*
Y551695D01*
X488193Y565345D02*
X488693D01*
X488443Y565095D02*
Y565595D01*
X488193Y567245D02*
X488693D01*
X488443Y566995D02*
Y567495D01*
X487693Y560745D02*
X488193D01*
X487943Y560495D02*
Y560995D01*
X492793Y560745D02*
X493293D01*
X493043Y560495D02*
Y560995D01*
X488793Y555445D02*
X489293D01*
X489043Y555195D02*
Y555695D01*
X494693Y554745D02*
X495193D01*
X494943Y554495D02*
Y554995D01*
X487693Y574145D02*
X488193D01*
X487943Y573895D02*
Y574395D01*
X487693Y572245D02*
X488193D01*
X487943Y571995D02*
Y572495D01*
X494068Y565545D02*
X494568D01*
X494318Y565295D02*
Y565795D01*
X483693Y577470D02*
X484193D01*
X483943Y577220D02*
Y577720D01*
X483693Y579370D02*
X484193D01*
X483943Y579120D02*
Y579620D01*
X506193Y577245D02*
X506693D01*
X506443Y576995D02*
Y577495D01*
X501093Y577245D02*
X501593D01*
X501343Y576995D02*
Y577495D01*
X499193Y529245D02*
X499693D01*
X499443Y528995D02*
Y529495D01*
X499193Y530745D02*
X499693D01*
X499443Y530495D02*
Y530995D01*
X500693Y530745D02*
X501193D01*
X500943Y530495D02*
Y530995D01*
X500693Y529245D02*
X501193D01*
X500943Y528995D02*
Y529495D01*
X503193Y529245D02*
X503693D01*
X503443Y528995D02*
Y529495D01*
X504693Y530745D02*
X505193D01*
X504943Y530495D02*
Y530995D01*
X472193Y581245D02*
X472693D01*
X472443Y580995D02*
Y581495D01*
X484693Y581745D02*
X485193D01*
X484943Y581495D02*
Y581995D01*
X484693Y585245D02*
X485193D01*
X484943Y584995D02*
Y585495D01*
X541093Y544345D02*
X541593D01*
X541343Y544095D02*
Y544595D01*
X526693Y537145D02*
X527193D01*
X526943Y536895D02*
Y537395D01*
X541193Y534545D02*
X541693D01*
X541443Y534295D02*
Y534795D01*
X544693Y535545D02*
X545193D01*
X544943Y535295D02*
Y535795D01*
X514293Y537045D02*
X514793D01*
X514543Y536795D02*
Y537295D01*
X514293Y539545D02*
X514793D01*
X514543Y539295D02*
Y539795D01*
X514293Y547045D02*
X514793D01*
X514543Y546795D02*
Y547295D01*
X514293Y549545D02*
X514793D01*
X514543Y549295D02*
Y549795D01*
X514293Y552045D02*
X514793D01*
X514543Y551795D02*
Y552295D01*
X514293Y567045D02*
X514793D01*
X514543Y566795D02*
Y567295D01*
X514293Y569545D02*
X514793D01*
X514543Y569295D02*
Y569795D01*
X514293Y572045D02*
X514793D01*
X514543Y571795D02*
Y572295D01*
X514293Y574545D02*
X514793D01*
X514543Y574295D02*
Y574795D01*
X514693Y583245D02*
X515193D01*
X514943Y582995D02*
Y583495D01*
X508693Y526245D02*
X509193D01*
X508943Y525995D02*
Y526495D01*
X507193Y526245D02*
X507693D01*
X507443Y525995D02*
Y526495D01*
X507193Y524745D02*
X507693D01*
X507443Y524495D02*
Y524995D01*
X508693Y524745D02*
X509193D01*
X508943Y524495D02*
Y524995D01*
X525393Y552345D02*
X525893D01*
X525643Y552095D02*
Y552595D01*
X562493Y552745D02*
X562993D01*
X562743Y552495D02*
Y552995D01*
X563693Y551745D02*
X564193D01*
X563943Y551495D02*
Y551995D01*
X562493Y550745D02*
X562993D01*
X562743Y550495D02*
Y550995D01*
X563693Y549745D02*
X564193D01*
X563943Y549495D02*
Y549995D01*
X562493Y548745D02*
X562993D01*
X562743Y548495D02*
Y548995D01*
X563693Y547745D02*
X564193D01*
X563943Y547495D02*
Y547995D01*
X562493Y546745D02*
X562993D01*
X562743Y546495D02*
Y546995D01*
X563693Y545745D02*
X564193D01*
X563943Y545495D02*
Y545995D01*
X562493Y544745D02*
X562993D01*
X562743Y544495D02*
Y544995D01*
X563693Y543745D02*
X564193D01*
X563943Y543495D02*
Y543995D01*
X562493Y542745D02*
X562993D01*
X562743Y542495D02*
Y542995D01*
X563693Y541745D02*
X564193D01*
X563943Y541495D02*
Y541995D01*
X562493Y540745D02*
X562993D01*
X562743Y540495D02*
Y540995D01*
X563693Y539745D02*
X564193D01*
X563943Y539495D02*
Y539995D01*
X562493Y538745D02*
X562993D01*
X562743Y538495D02*
Y538995D01*
X563693Y537645D02*
X564193D01*
X563943Y537395D02*
Y537895D01*
X562493Y536645D02*
X562993D01*
X562743Y536395D02*
Y536895D01*
X564393Y531645D02*
X564893D01*
X564643Y531395D02*
Y531895D01*
X564393Y533145D02*
X564893D01*
X564643Y532895D02*
Y533395D01*
X566193Y529545D02*
X566693D01*
X566443Y529295D02*
Y529795D01*
X567793Y529545D02*
X568293D01*
X568043Y529295D02*
Y529795D01*
X544893Y552345D02*
X545393D01*
X545143Y552095D02*
Y552595D01*
X542193Y555945D02*
X542693D01*
X542443Y555695D02*
Y556195D01*
X543993Y553545D02*
X544493D01*
X544243Y553295D02*
Y553795D01*
X546693Y549945D02*
X547193D01*
X546943Y549695D02*
Y550195D01*
X547593Y548745D02*
X548093D01*
X547843Y548495D02*
Y548995D01*
X552093Y542745D02*
X552593D01*
X552343Y542495D02*
Y542995D01*
X552993Y541545D02*
X553493D01*
X553243Y541295D02*
Y541795D01*
X548493Y547545D02*
X548993D01*
X548743Y547295D02*
Y547795D01*
X549393Y546345D02*
X549893D01*
X549643Y546095D02*
Y546595D01*
X550293Y545145D02*
X550793D01*
X550543Y544895D02*
Y545395D01*
X555693Y537945D02*
X556193D01*
X555943Y537695D02*
Y538195D01*
X554793Y539145D02*
X555293D01*
X555043Y538895D02*
Y539395D01*
X543093Y554745D02*
X543593D01*
X543343Y554495D02*
Y554995D01*
X551193Y543945D02*
X551693D01*
X551443Y543695D02*
Y544195D01*
X553893Y540345D02*
X554393D01*
X554143Y540095D02*
Y540595D01*
X545793Y551145D02*
X546293D01*
X546043Y550895D02*
Y551395D01*
X548493Y560045D02*
X548993D01*
X548743Y559795D02*
Y560295D01*
X557493Y535545D02*
X557993D01*
X557743Y535295D02*
Y535795D01*
X569118Y555995D02*
X569618D01*
X569368Y555745D02*
Y556245D01*
X569118Y557820D02*
X569618D01*
X569368Y557570D02*
Y558070D01*
X540593Y531745D02*
X541093D01*
X540843Y531495D02*
Y531995D01*
X569193Y542045D02*
X569693D01*
X569443Y541795D02*
Y542295D01*
X569193Y538445D02*
X569693D01*
X569443Y538195D02*
Y538695D01*
X520993Y581045D02*
X521493D01*
X521243Y580795D02*
Y581295D01*
X551943Y583495D02*
X552443D01*
X552193Y583245D02*
Y583745D01*
X544593D02*
X545093D01*
X544843Y583495D02*
Y583995D01*
X569193Y570845D02*
X569693D01*
X569443Y570595D02*
Y571095D01*
X538793Y580345D02*
X539293D01*
X539043Y580095D02*
Y580595D01*
X527893Y568045D02*
X528393D01*
X528143Y567795D02*
Y568295D01*
X563693Y569245D02*
X564193D01*
X563943Y568995D02*
Y569495D01*
X555293Y565645D02*
X555793D01*
X555543Y565395D02*
Y565895D01*
X556693Y566245D02*
X557193D01*
X556943Y565995D02*
Y566495D01*
X558093Y566845D02*
X558593D01*
X558343Y566595D02*
Y567095D01*
X559493Y567445D02*
X559993D01*
X559743Y567195D02*
Y567695D01*
X560893Y568045D02*
X561393D01*
X561143Y567795D02*
Y568295D01*
X562293Y568645D02*
X562793D01*
X562543Y568395D02*
Y568895D01*
X565393Y576745D02*
X565893D01*
X565643Y576495D02*
Y576995D01*
X514293Y559545D02*
X514793D01*
X514543Y559295D02*
Y559795D01*
X514293Y562045D02*
X514793D01*
X514543Y561795D02*
Y562295D01*
X514293Y557045D02*
X514793D01*
X514543Y556795D02*
Y557295D01*
X514293Y554545D02*
X514793D01*
X514543Y554295D02*
Y554795D01*
X536293Y574745D02*
X536793D01*
X536543Y574495D02*
Y574995D01*
X534793Y574745D02*
X535293D01*
X535043Y574495D02*
Y574995D01*
X527993Y573545D02*
X528493D01*
X528243Y573295D02*
Y573795D01*
X533893Y565945D02*
X534393D01*
X534143Y565695D02*
Y566195D01*
X527893Y570045D02*
X528393D01*
X528143Y569795D02*
Y570295D01*
X529093Y571045D02*
X529593D01*
X529343Y570795D02*
Y571295D01*
X531093Y567045D02*
X531593D01*
X531343Y566795D02*
Y567295D01*
X538393Y565245D02*
X538893D01*
X538643Y564995D02*
Y565495D01*
X537693Y579145D02*
X538193D01*
X537943Y578895D02*
Y579395D01*
X514293Y544545D02*
X514793D01*
X514543Y544295D02*
Y544795D01*
X514293Y542045D02*
X514793D01*
X514543Y541795D02*
Y542295D01*
X506693Y548245D02*
X507193D01*
X506943Y547995D02*
Y548495D01*
X532593Y557445D02*
X533093D01*
X532843Y557195D02*
Y557695D01*
X535093Y558345D02*
X535593D01*
X535343Y558095D02*
Y558595D01*
X530293Y557445D02*
X530793D01*
X530543Y557195D02*
Y557695D01*
X516193Y584045D02*
X516693D01*
X516443Y583795D02*
Y584295D01*
X517693Y584145D02*
X518193D01*
X517943Y583895D02*
Y584395D01*
X519193Y584245D02*
X519693D01*
X519443Y583995D02*
Y584495D01*
X520693Y584245D02*
X521193D01*
X520943Y583995D02*
Y584495D01*
X522193Y584245D02*
X522693D01*
X522443Y583995D02*
Y584495D01*
X566943Y561745D02*
X567543D01*
X567243Y561445D02*
Y562045D01*
X548693Y573745D02*
X549193D01*
X548943Y573495D02*
Y573995D01*
X570443Y572245D02*
X570943D01*
X570693Y571995D02*
Y572495D01*
X515493Y573245D02*
X515993D01*
X515743Y572995D02*
Y573495D01*
X515493Y533245D02*
X515993D01*
X515743Y532995D02*
Y533495D01*
X515493Y535745D02*
X515993D01*
X515743Y535495D02*
Y535995D01*
X515493Y538245D02*
X515993D01*
X515743Y537995D02*
Y538495D01*
X515493Y540745D02*
X515993D01*
X515743Y540495D02*
Y540995D01*
X515493Y543245D02*
X515993D01*
X515743Y542995D02*
Y543495D01*
X515493Y545745D02*
X515993D01*
X515743Y545495D02*
Y545995D01*
X515493Y548245D02*
X515993D01*
X515743Y547995D02*
Y548495D01*
X515493Y550745D02*
X515993D01*
X515743Y550495D02*
Y550995D01*
X515493Y553245D02*
X515993D01*
X515743Y552995D02*
Y553495D01*
X515493Y555745D02*
X515993D01*
X515743Y555495D02*
Y555995D01*
X515493Y558245D02*
X515993D01*
X515743Y557995D02*
Y558495D01*
X515493Y560745D02*
X515993D01*
X515743Y560495D02*
Y560995D01*
X515493Y563245D02*
X515993D01*
X515743Y562995D02*
Y563495D01*
X515493Y565745D02*
X515993D01*
X515743Y565495D02*
Y565995D01*
X515493Y568245D02*
X515993D01*
X515743Y567995D02*
Y568495D01*
X515493Y570745D02*
X515993D01*
X515743Y570495D02*
Y570995D01*
X571443Y568745D02*
X572043D01*
X571743Y568445D02*
Y569045D01*
X569193Y568845D02*
X569693D01*
X569443Y568595D02*
Y569095D01*
X569193Y551145D02*
X569693D01*
X569443Y550895D02*
Y551395D01*
X569193Y543745D02*
X569693D01*
X569443Y543495D02*
Y543995D01*
X520193Y568145D02*
X520693D01*
X520443Y567895D02*
Y568395D01*
X571443Y553745D02*
X572043D01*
X571743Y553445D02*
Y554045D01*
X551893Y574345D02*
X552393D01*
X552143Y574095D02*
Y574595D01*
M02*
