%FSLAX43Y43*%
%MOMM*%
G71*
G01*
G75*
%ADD10C,0.300*%
%ADD11C,0.200*%
%ADD12C,0.500*%
%ADD13R,0.800X1.200*%
%ADD14R,0.700X1.100*%
%ADD15R,0.825X2.000*%
%ADD16R,2.200X2.500*%
%ADD17R,1.800X0.800*%
%ADD18R,1.800X1.200*%
%ADD19R,1.600X1.100*%
%ADD20R,1.100X1.600*%
%ADD21R,1.000X0.400*%
%ADD22O,0.200X0.400*%
%ADD23O,0.400X0.200*%
%ADD24C,1.000*%
%ADD25R,1.600X0.200*%
%ADD26R,0.200X1.600*%
%ADD27R,2.300X0.400*%
%ADD28R,3.250X0.700*%
%ADD29R,2.000X0.500*%
%ADD30R,0.500X1.700*%
%ADD31R,0.500X1.700*%
%ADD32R,0.350X1.800*%
%ADD33R,1.100X0.700*%
%ADD34R,1.200X1.800*%
%ADD35R,2.600X2.600*%
%ADD36R,0.500X2.200*%
%ADD37R,1.500X2.900*%
%ADD38R,2.900X1.500*%
%ADD39R,1.500X2.900*%
%ADD40R,2.900X1.500*%
%ADD41R,0.350X1.600*%
%ADD42R,2.270X0.550*%
%ADD43R,1.400X0.900*%
%ADD44R,0.600X1.550*%
%ADD45R,1.200X0.220*%
%ADD46R,0.400X2.300*%
%ADD47R,1.220X0.620*%
%ADD48R,1.000X0.450*%
%ADD49R,1.600X0.300*%
%ADD50R,1.400X1.000*%
%ADD51R,1.800X0.500*%
%ADD52C,0.200*%
%ADD53C,0.300*%
%ADD54C,0.400*%
%ADD55C,0.254*%
%ADD56C,1.500*%
%ADD57C,1.000*%
%ADD58O,2.500X1.800*%
%ADD59C,1.800*%
%ADD60R,2.500X3.000*%
%ADD61C,3.200*%
%ADD62C,1.270*%
%ADD63C,1.500*%
%ADD64C,2.000*%
%ADD65O,1.800X2.500*%
%ADD66C,1.600*%
%ADD67C,1.300*%
%ADD68C,0.500*%
%ADD69C,0.750*%
%ADD70C,0.210*%
%ADD71C,0.180*%
%ADD72C,0.250*%
%ADD73C,0.150*%
%ADD74R,16.750X1.000*%
%ADD75R,16.750X1.000*%
%ADD76R,3.500X2.500*%
%ADD77R,1.800X1.800*%
%ADD78R,1.000X1.400*%
%ADD79R,0.900X1.300*%
%ADD80R,1.025X2.200*%
%ADD81R,2.400X2.700*%
%ADD82R,2.000X1.000*%
%ADD83R,2.000X1.400*%
%ADD84R,1.800X1.300*%
%ADD85R,1.300X1.800*%
%ADD86R,1.200X0.600*%
%ADD87O,0.400X0.600*%
%ADD88O,0.600X0.400*%
%ADD89C,1.200*%
%ADD90R,1.800X0.400*%
%ADD91R,0.400X1.800*%
%ADD92R,2.500X0.600*%
%ADD93R,3.450X0.900*%
%ADD94R,2.200X0.700*%
%ADD95R,0.700X1.900*%
%ADD96R,0.700X1.900*%
%ADD97R,0.550X2.000*%
%ADD98R,1.300X0.900*%
%ADD99R,1.400X2.000*%
%ADD100R,2.800X2.800*%
%ADD101R,0.700X2.400*%
%ADD102R,1.700X3.100*%
%ADD103R,3.100X1.700*%
%ADD104R,1.700X3.100*%
%ADD105R,3.100X1.700*%
%ADD106R,0.550X1.800*%
%ADD107R,2.470X0.750*%
%ADD108R,0.800X1.750*%
%ADD109R,1.400X0.420*%
%ADD110R,0.600X2.500*%
%ADD111R,1.420X0.820*%
%ADD112R,1.200X0.650*%
%ADD113R,1.600X1.200*%
%ADD114R,2.000X0.700*%
%ADD115O,2.700X2.000*%
%ADD116C,2.000*%
%ADD117R,2.700X3.200*%
%ADD118C,3.400*%
%ADD119C,1.470*%
%ADD120C,1.700*%
%ADD121C,2.200*%
%ADD122O,2.000X2.700*%
%ADD123C,0.700*%
%ADD124R,16.750X1.000*%
%ADD125R,16.750X1.000*%
%ADD126C,2.000*%
%ADD127C,3.000*%
%ADD128R,6.000X4.000*%
%ADD129R,9.700X36.100*%
%ADD130R,14.800X25.400*%
%ADD131R,18.200X23.300*%
%ADD132R,7.800X14.700*%
%ADD133R,2.500X2.600*%
%ADD134R,3.400X2.400*%
%ADD135C,2.100*%
%ADD136C,2.300*%
%ADD137C,2.500*%
%ADD138C,2.800*%
%ADD139C,3.600*%
%ADD140C,1.950*%
%ADD141C,3.800*%
%ADD142C,1.900*%
%ADD143C,1.700*%
%ADD144C,1.800*%
%ADD145R,18.200X23.300*%
D12*
X495443Y522745D02*
X495184Y522711D01*
X494943Y522611D01*
X494736Y522452D01*
X494577Y522245D01*
X494477Y522004D01*
X494443Y521745D01*
X533443D02*
X533409Y522004D01*
X533309Y522245D01*
X533150Y522452D01*
X532943Y522611D01*
X532702Y522711D01*
X532443Y522745D01*
X570443Y578745D02*
X570450Y578492D01*
X570469Y578239D01*
X570501Y577988D01*
X570545Y577738D01*
X570603Y577492D01*
X570672Y577248D01*
X570754Y577008D01*
X570848Y576773D01*
X570954Y576543D01*
X571071Y576318D01*
X571200Y576100D01*
X571339Y575889D01*
X571489Y575684D01*
X571649Y575488D01*
X571819Y575300D01*
X571998Y575121D01*
X572186Y574951D01*
X572383Y574791D01*
X572587Y574641D01*
X572798Y574502D01*
X573017Y574373D01*
X573241Y574256D01*
X573471Y574150D01*
X573707Y574056D01*
X573946Y573974D01*
X574190Y573905D01*
X574437Y573847D01*
X574686Y573803D01*
X574937Y573771D01*
X575190Y573751D01*
X575443Y573745D01*
Y535745D02*
X575190Y535739D01*
X574937Y535719D01*
X574686Y535687D01*
X574437Y535643D01*
X574190Y535585D01*
X573946Y535516D01*
X573707Y535434D01*
X573471Y535340D01*
X573241Y535234D01*
X573017Y535117D01*
X572798Y534988D01*
X572587Y534849D01*
X572383Y534699D01*
X572186Y534539D01*
X571998Y534369D01*
X571819Y534190D01*
X571649Y534002D01*
X571489Y533805D01*
X571339Y533601D01*
X571200Y533390D01*
X571071Y533171D01*
X570954Y532947D01*
X570848Y532717D01*
X570754Y532481D01*
X570672Y532242D01*
X570603Y531998D01*
X570545Y531751D01*
X570501Y531502D01*
X570469Y531251D01*
X570450Y530998D01*
X570443Y530745D01*
X464443Y524745D02*
X464437Y524998D01*
X464417Y525251D01*
X464385Y525502D01*
X464341Y525751D01*
X464284Y525998D01*
X464214Y526242D01*
X464132Y526481D01*
X464038Y526717D01*
X463932Y526947D01*
X463815Y527171D01*
X463686Y527390D01*
X463547Y527601D01*
X463397Y527805D01*
X463237Y528002D01*
X463067Y528190D01*
X462888Y528369D01*
X462700Y528539D01*
X462504Y528699D01*
X462299Y528849D01*
X462088Y528988D01*
X461870Y529117D01*
X461645Y529234D01*
X461415Y529340D01*
X461180Y529434D01*
X460940Y529516D01*
X460696Y529585D01*
X460450Y529643D01*
X460200Y529687D01*
X459949Y529719D01*
X459696Y529739D01*
X459443Y529745D01*
Y579745D02*
X459696Y579751D01*
X459949Y579771D01*
X460200Y579803D01*
X460450Y579847D01*
X460696Y579905D01*
X460940Y579974D01*
X461180Y580056D01*
X461415Y580150D01*
X461645Y580256D01*
X461870Y580373D01*
X462088Y580502D01*
X462299Y580641D01*
X462504Y580791D01*
X462700Y580951D01*
X462888Y581121D01*
X463067Y581300D01*
X463237Y581488D01*
X463397Y581684D01*
X463547Y581889D01*
X463686Y582100D01*
X463815Y582318D01*
X463932Y582543D01*
X464038Y582773D01*
X464132Y583008D01*
X464214Y583248D01*
X464284Y583492D01*
X464341Y583738D01*
X464385Y583988D01*
X464417Y584239D01*
X464437Y584492D01*
X464443Y584745D01*
Y521745D02*
X494443D01*
X495443Y522745D02*
X532443D01*
X533443Y521745D02*
X570443D01*
X464443Y587745D02*
X570443D01*
X570443Y578745D01*
X575443Y573745D02*
X578443D01*
X570443Y521745D02*
X570443Y530745D01*
X575443Y535745D02*
X578443D01*
X464443Y521745D02*
X464443Y524745D01*
X464443Y587745D02*
X464443Y584745D01*
X448443Y529745D02*
X459443D01*
X448443Y579745D02*
X459443D01*
X448443Y529745D02*
Y579745D01*
X578443Y535745D02*
Y573745D01*
D73*
X456943Y564745D02*
Y565591D01*
X457366Y566015D01*
X457790Y565591D01*
Y564745D01*
Y565380D01*
X456943D01*
Y562245D02*
Y563091D01*
X457366Y563515D01*
X457790Y563091D01*
Y562245D01*
Y562880D01*
X456943D01*
Y559745D02*
Y560591D01*
X457366Y561015D01*
X457790Y560591D01*
Y559745D01*
Y560380D01*
X456943D01*
Y557245D02*
Y558091D01*
X457366Y558515D01*
X457790Y558091D01*
Y557245D01*
Y557880D01*
X456943D01*
X563443Y576955D02*
Y575685D01*
X564078D01*
X564290Y575897D01*
Y576108D01*
X564078Y576320D01*
X563443D01*
X564078D01*
X564290Y576531D01*
Y576743D01*
X564078Y576955D01*
X563443D01*
Y574414D02*
Y573145D01*
X564078D01*
X564290Y573357D01*
Y573568D01*
X564078Y573780D01*
X563443D01*
X564078D01*
X564290Y573991D01*
Y574203D01*
X564078Y574414D01*
X563443D01*
Y579495D02*
Y578225D01*
X564078D01*
X564290Y578437D01*
Y578648D01*
X564078Y578860D01*
X563443D01*
X564078D01*
X564290Y579071D01*
Y579283D01*
X564078Y579495D01*
X563443D01*
X472790Y534303D02*
X472578Y534515D01*
X472155D01*
X471943Y534303D01*
Y533457D01*
X472155Y533245D01*
X472578D01*
X472790Y533457D01*
X469790Y534303D02*
X469578Y534515D01*
X469155D01*
X468943Y534303D01*
Y533457D01*
X469155Y533245D01*
X469578D01*
X469790Y533457D01*
X480290Y534303D02*
X480078Y534515D01*
X479655D01*
X479443Y534303D01*
Y533457D01*
X479655Y533245D01*
X480078D01*
X480290Y533457D01*
X462290Y534303D02*
X462078Y534515D01*
X461655D01*
X461443Y534303D01*
Y533457D01*
X461655Y533245D01*
X462078D01*
X462290Y533457D01*
X474993Y543515D02*
Y542245D01*
X475628D01*
X475840Y542457D01*
Y543303D01*
X475628Y543515D01*
X474993D01*
X466893D02*
Y542245D01*
X467528D01*
X467740Y542457D01*
Y543303D01*
X467528Y543515D01*
X466893D01*
X471790Y540914D02*
X470943D01*
Y539645D01*
X471790D01*
X470943Y540280D02*
X471366D01*
X493540Y525015D02*
X492693D01*
Y524380D01*
X493116D01*
X492693D01*
Y523745D01*
X491990Y525015D02*
X491143D01*
Y524380D01*
X491566D01*
X491143D01*
Y523745D01*
X489090Y525015D02*
X488243D01*
Y524380D01*
X488666D01*
X488243D01*
Y523745D01*
X487490Y525015D02*
X486643D01*
Y524380D01*
X487066D01*
X486643D01*
Y523745D01*
X470290Y525803D02*
X470078Y526015D01*
X469655D01*
X469443Y525803D01*
Y524957D01*
X469655Y524745D01*
X470078D01*
X470290Y524957D01*
Y525380D01*
X469866D01*
X470290Y585803D02*
X470078Y586015D01*
X469655D01*
X469443Y585803D01*
Y584957D01*
X469655Y584745D01*
X470078D01*
X470290Y584957D01*
Y585380D01*
X469866D01*
X566290Y585803D02*
X566078Y586015D01*
X565655D01*
X565443Y585803D01*
Y584957D01*
X565655Y584745D01*
X566078D01*
X566290Y584957D01*
Y585380D01*
X565866D01*
X456943Y532245D02*
Y533091D01*
X457366Y533515D01*
X457790Y533091D01*
Y532245D01*
Y532880D01*
X456943D01*
Y534745D02*
Y535591D01*
X457366Y536015D01*
X457790Y535591D01*
Y534745D01*
Y535380D01*
X456943D01*
X502943Y583245D02*
Y584091D01*
X503366Y584515D01*
X503790Y584091D01*
Y583245D01*
Y583880D01*
X502943D01*
X500443Y583245D02*
Y584091D01*
X500866Y584515D01*
X501290Y584091D01*
Y583245D01*
Y583880D01*
X500443D01*
X456943Y539745D02*
Y540591D01*
X457366Y541015D01*
X457790Y540591D01*
Y539745D01*
Y540380D01*
X456943D01*
Y552245D02*
Y553091D01*
X457366Y553515D01*
X457790Y553091D01*
Y552245D01*
Y552880D01*
X456943D01*
Y549745D02*
Y550591D01*
X457366Y551015D01*
X457790Y550591D01*
Y549745D01*
Y550380D01*
X456943D01*
Y547245D02*
Y548091D01*
X457366Y548515D01*
X457790Y548091D01*
Y547245D01*
Y547880D01*
X456943D01*
Y544745D02*
Y545591D01*
X457366Y546015D01*
X457790Y545591D01*
Y544745D01*
Y545380D01*
X456943D01*
Y542245D02*
Y543091D01*
X457366Y543515D01*
X457790Y543091D01*
Y542245D01*
Y542880D01*
X456943D01*
X534290Y529215D02*
X533443D01*
Y528580D01*
X533866D01*
X533443D01*
Y527945D01*
X534290Y526015D02*
X533443D01*
Y525380D01*
X533866D01*
X533443D01*
Y524745D01*
X572713Y548515D02*
Y547245D01*
Y547880D01*
X573560D01*
Y548515D01*
Y547245D01*
X570173Y548515D02*
Y547245D01*
Y547880D01*
X571020D01*
Y548515D01*
Y547245D01*
X572713Y563515D02*
Y562245D01*
Y562880D01*
X573560D01*
Y563515D01*
Y562245D01*
X570173Y563515D02*
Y562245D01*
Y562880D01*
X571020D01*
Y563515D01*
Y562245D01*
X566290Y525803D02*
X566078Y526015D01*
X565655D01*
X565443Y525803D01*
Y524957D01*
X565655Y524745D01*
X566078D01*
X566290Y524957D01*
Y525380D01*
X565866D01*
X468443Y565315D02*
X468866D01*
X468655D01*
Y564045D01*
X468443D01*
X468866D01*
X470443Y547615D02*
X470866D01*
X470655D01*
Y546345D01*
X470443D01*
X470866D01*
X537943Y585414D02*
X538366D01*
X538155D01*
Y584145D01*
X537943D01*
X538366D01*
X480443Y564515D02*
X480866D01*
X480655D01*
Y563245D01*
X480443D01*
X480866D01*
X546143Y533015D02*
X546566D01*
X546355D01*
Y531745D01*
X546143D01*
X546566D01*
X503443Y532015D02*
X503866D01*
X503655D01*
Y530745D01*
X503443D01*
X503866D01*
X504943Y530515D02*
X505366D01*
X505155D01*
Y529245D01*
X504943D01*
X505366D01*
X459943Y569015D02*
X460366D01*
X460155D01*
Y567745D01*
X459943D01*
X460366D01*
X522543Y575615D02*
X522966D01*
X522755D01*
Y574345D01*
X522543D01*
X522966D01*
X529543Y573914D02*
X529966D01*
X529755D01*
Y572645D01*
X529543D01*
X529966D01*
X534343Y553615D02*
X534766D01*
X534555D01*
Y552345D01*
X534343D01*
X534766D01*
X541343Y547115D02*
X541766D01*
X541555D01*
Y545845D01*
X541343D01*
X541766D01*
X514543Y581015D02*
X514966D01*
X514755D01*
Y579745D01*
X514543D01*
X514966D01*
X514543Y579315D02*
X514966D01*
X514755D01*
Y578045D01*
X514543D01*
X514966D01*
X540443Y563815D02*
X540866D01*
X540655D01*
Y562545D01*
X540443D01*
X540866D01*
X537843Y567815D02*
X538266D01*
X538055D01*
Y566545D01*
X537843D01*
X538266D01*
X539343Y568015D02*
X539766D01*
X539555D01*
Y566745D01*
X539343D01*
X539766D01*
X536143Y572015D02*
X536566D01*
X536355D01*
Y570745D01*
X536143D01*
X536566D01*
X534543Y569615D02*
X534966D01*
X534755D01*
Y568345D01*
X534543D01*
X534966D01*
X529343Y570315D02*
X529766D01*
X529555D01*
Y569045D01*
X529343D01*
X529766D01*
X532243Y572015D02*
X532666D01*
X532455D01*
Y570745D01*
X532243D01*
X532666D01*
X536043Y569914D02*
X536466D01*
X536255D01*
Y568645D01*
X536043D01*
X536466D01*
X537243Y565115D02*
X537666D01*
X537455D01*
Y563845D01*
X537243D01*
X537666D01*
X537543Y570215D02*
X537966D01*
X537755D01*
Y568945D01*
X537543D01*
X537966D01*
X533743Y572015D02*
X534166D01*
X533955D01*
Y570745D01*
X533743D01*
X534166D01*
X531043Y573715D02*
X531466D01*
X531255D01*
Y572445D01*
X531043D01*
X531466D01*
X533843Y574414D02*
X534266D01*
X534055D01*
Y573145D01*
X533843D01*
X534266D01*
X538043Y576015D02*
X538466D01*
X538255D01*
Y574745D01*
X538043D01*
X538466D01*
X532743Y575615D02*
X533166D01*
X532955D01*
Y574345D01*
X532743D01*
X533166D01*
X530343Y575215D02*
X530766D01*
X530555D01*
Y573945D01*
X530343D01*
X530766D01*
X537643Y572015D02*
X538066D01*
X537855D01*
Y570745D01*
X537643D01*
X538066D01*
X531743Y566815D02*
X532166D01*
X531955D01*
Y565545D01*
X531743D01*
X532166D01*
X531643Y564815D02*
X532066D01*
X531855D01*
Y563545D01*
X531643D01*
X532066D01*
X528143Y573315D02*
X528566D01*
X528355D01*
Y572045D01*
X528143D01*
X528566D01*
X522943Y572815D02*
X523366D01*
X523155D01*
Y571545D01*
X522943D01*
X523366D01*
X554143Y566315D02*
X554566D01*
X554355D01*
Y565045D01*
X554143D01*
X554566D01*
X565343Y571115D02*
X565766D01*
X565555D01*
Y569845D01*
X565343D01*
X565766D01*
X545143Y569315D02*
X545566D01*
X545355D01*
Y568045D01*
X545143D01*
X545566D01*
X548943Y571414D02*
X549366D01*
X549155D01*
Y570145D01*
X548943D01*
X549366D01*
X548943Y573265D02*
X549366D01*
X549155D01*
Y571995D01*
X548943D01*
X549366D01*
X515743Y577015D02*
X516166D01*
X515955D01*
Y575745D01*
X515743D01*
X516166D01*
X514543Y535815D02*
X514966D01*
X514755D01*
Y534545D01*
X514543D01*
X514966D01*
X514543Y533315D02*
X514966D01*
X514755D01*
Y532045D01*
X514543D01*
X514966D01*
X564190Y566115D02*
X563766D01*
X563978D01*
Y565057D01*
X563766Y564845D01*
X563555D01*
X563343Y565057D01*
X520693Y579515D02*
X521116D01*
X520905D01*
Y578245D01*
X520693D01*
X521116D01*
X547243Y579414D02*
X547666D01*
X547455D01*
Y578145D01*
X547243D01*
X547666D01*
X543443Y579015D02*
X543866D01*
X543655D01*
Y577745D01*
X543443D01*
X543866D01*
X547243Y561315D02*
X547666D01*
X547455D01*
Y560045D01*
X547243D01*
X547666D01*
X514543Y565815D02*
X514966D01*
X514755D01*
Y564545D01*
X514543D01*
X514966D01*
X538143Y553615D02*
X538566D01*
X538355D01*
Y552345D01*
X538143D01*
X538566D01*
X535843Y553615D02*
X536266D01*
X536055D01*
Y552345D01*
X535843D01*
X536266D01*
X520243Y564515D02*
X520666D01*
X520455D01*
Y563245D01*
X520243D01*
X520666D01*
X528143Y567115D02*
X528566D01*
X528355D01*
Y565845D01*
X528143D01*
X528566D01*
X528143Y553615D02*
X528566D01*
X528355D01*
Y552345D01*
X528143D01*
X528566D01*
X530643Y553615D02*
X531066D01*
X530855D01*
Y552345D01*
X530643D01*
X531066D01*
X533943Y533315D02*
X534366D01*
X534155D01*
Y532045D01*
X533943D01*
X534366D01*
X528643Y533315D02*
X529066D01*
X528855D01*
Y532045D01*
X528643D01*
X529066D01*
X534043Y549914D02*
X534466D01*
X534255D01*
Y548645D01*
X534043D01*
X534466D01*
X528743Y549914D02*
X529166D01*
X528955D01*
Y548645D01*
X528743D01*
X529166D01*
X501043Y549410D02*
X501466D01*
X501255D01*
Y548140D01*
X501043D01*
X501466D01*
X498443Y568515D02*
X498866D01*
X498655D01*
Y567245D01*
X498443D01*
X498866D01*
X496443Y572359D02*
X496866D01*
X496655D01*
Y571090D01*
X496443D01*
X496866D01*
X470443Y554115D02*
X470866D01*
X470655D01*
Y552845D01*
X470443D01*
X470866D01*
X472443Y561615D02*
X472866D01*
X472655D01*
Y560345D01*
X472443D01*
X472866D01*
X472443Y559715D02*
X472866D01*
X472655D01*
Y558445D01*
X472443D01*
X472866D01*
X475443Y554515D02*
X475866D01*
X475655D01*
Y553245D01*
X475443D01*
X475866D01*
X489943Y552715D02*
X490366D01*
X490155D01*
Y551445D01*
X489943D01*
X490366D01*
X488443Y566615D02*
X488866D01*
X488655D01*
Y565345D01*
X488443D01*
X488866D01*
X488443Y568515D02*
X488866D01*
X488655D01*
Y567245D01*
X488443D01*
X488866D01*
X487943Y562015D02*
X488366D01*
X488155D01*
Y560745D01*
X487943D01*
X488366D01*
X493043Y562015D02*
X493466D01*
X493255D01*
Y560745D01*
X493043D01*
X493466D01*
X489043Y556715D02*
X489466D01*
X489255D01*
Y555445D01*
X489043D01*
X489466D01*
X494943Y556015D02*
X495366D01*
X495155D01*
Y554745D01*
X494943D01*
X495366D01*
X487943Y575414D02*
X488366D01*
X488155D01*
Y574145D01*
X487943D01*
X488366D01*
X487943Y573515D02*
X488366D01*
X488155D01*
Y572245D01*
X487943D01*
X488366D01*
X494318Y566815D02*
X494741D01*
X494530D01*
Y565545D01*
X494318D01*
X494741D01*
X483943Y578740D02*
X484366D01*
X484155D01*
Y577470D01*
X483943D01*
X484366D01*
X483943Y580640D02*
X484366D01*
X484155D01*
Y579370D01*
X483943D01*
X484366D01*
X506443Y578515D02*
X506866D01*
X506655D01*
Y577245D01*
X506443D01*
X506866D01*
X501343Y578515D02*
X501766D01*
X501555D01*
Y577245D01*
X501343D01*
X501766D01*
X499443Y530515D02*
X499866D01*
X499655D01*
Y529245D01*
X499443D01*
X499866D01*
X499443Y532015D02*
X499866D01*
X499655D01*
Y530745D01*
X499443D01*
X499866D01*
X500943Y532015D02*
X501366D01*
X501155D01*
Y530745D01*
X500943D01*
X501366D01*
X500943Y530515D02*
X501366D01*
X501155D01*
Y529245D01*
X500943D01*
X501366D01*
X503443Y530515D02*
X503866D01*
X503655D01*
Y529245D01*
X503443D01*
X503866D01*
X504943Y532015D02*
X505366D01*
X505155D01*
Y530745D01*
X504943D01*
X505366D01*
X472443Y582515D02*
X472866D01*
X472655D01*
Y581245D01*
X472443D01*
X472866D01*
X484943Y583015D02*
X485366D01*
X485155D01*
Y581745D01*
X484943D01*
X485366D01*
X484943Y586515D02*
X485366D01*
X485155D01*
Y585245D01*
X484943D01*
X485366D01*
X541343Y545615D02*
X541766D01*
X541555D01*
Y544345D01*
X541343D01*
X541766D01*
X526943Y538414D02*
X527366D01*
X527155D01*
Y537145D01*
X526943D01*
X527366D01*
X541443Y535815D02*
X541866D01*
X541655D01*
Y534545D01*
X541443D01*
X541866D01*
X544943Y536815D02*
X545366D01*
X545155D01*
Y535545D01*
X544943D01*
X545366D01*
X514543Y538315D02*
X514966D01*
X514755D01*
Y537045D01*
X514543D01*
X514966D01*
X514543Y540815D02*
X514966D01*
X514755D01*
Y539545D01*
X514543D01*
X514966D01*
X514543Y548315D02*
X514966D01*
X514755D01*
Y547045D01*
X514543D01*
X514966D01*
X514543Y550815D02*
X514966D01*
X514755D01*
Y549545D01*
X514543D01*
X514966D01*
X514543Y553315D02*
X514966D01*
X514755D01*
Y552045D01*
X514543D01*
X514966D01*
X514543Y568315D02*
X514966D01*
X514755D01*
Y567045D01*
X514543D01*
X514966D01*
X514543Y570815D02*
X514966D01*
X514755D01*
Y569545D01*
X514543D01*
X514966D01*
X514543Y573315D02*
X514966D01*
X514755D01*
Y572045D01*
X514543D01*
X514966D01*
X514543Y575815D02*
X514966D01*
X514755D01*
Y574545D01*
X514543D01*
X514966D01*
X514943Y584515D02*
X515366D01*
X515155D01*
Y583245D01*
X514943D01*
X515366D01*
X508943Y527515D02*
X509366D01*
X509155D01*
Y526245D01*
X508943D01*
X509366D01*
X507443Y527515D02*
X507866D01*
X507655D01*
Y526245D01*
X507443D01*
X507866D01*
X507443Y526015D02*
X507866D01*
X507655D01*
Y524745D01*
X507443D01*
X507866D01*
X508943Y526015D02*
X509366D01*
X509155D01*
Y524745D01*
X508943D01*
X509366D01*
X525643Y553615D02*
X526066D01*
X525855D01*
Y552345D01*
X525643D01*
X526066D01*
X562743Y554015D02*
X563166D01*
X562955D01*
Y552745D01*
X562743D01*
X563166D01*
X563943Y553015D02*
X564366D01*
X564155D01*
Y551745D01*
X563943D01*
X564366D01*
X562743Y552015D02*
X563166D01*
X562955D01*
Y550745D01*
X562743D01*
X563166D01*
X563943Y551015D02*
X564366D01*
X564155D01*
Y549745D01*
X563943D01*
X564366D01*
X562743Y550015D02*
X563166D01*
X562955D01*
Y548745D01*
X562743D01*
X563166D01*
X563943Y549015D02*
X564366D01*
X564155D01*
Y547745D01*
X563943D01*
X564366D01*
X562743Y548015D02*
X563166D01*
X562955D01*
Y546745D01*
X562743D01*
X563166D01*
X563943Y547015D02*
X564366D01*
X564155D01*
Y545745D01*
X563943D01*
X564366D01*
X562743Y546015D02*
X563166D01*
X562955D01*
Y544745D01*
X562743D01*
X563166D01*
X563943Y545015D02*
X564366D01*
X564155D01*
Y543745D01*
X563943D01*
X564366D01*
X562743Y544015D02*
X563166D01*
X562955D01*
Y542745D01*
X562743D01*
X563166D01*
X563943Y543015D02*
X564366D01*
X564155D01*
Y541745D01*
X563943D01*
X564366D01*
X562743Y542015D02*
X563166D01*
X562955D01*
Y540745D01*
X562743D01*
X563166D01*
X563943Y541015D02*
X564366D01*
X564155D01*
Y539745D01*
X563943D01*
X564366D01*
X562743Y540015D02*
X563166D01*
X562955D01*
Y538745D01*
X562743D01*
X563166D01*
X563943Y538914D02*
X564366D01*
X564155D01*
Y537645D01*
X563943D01*
X564366D01*
X562743Y537914D02*
X563166D01*
X562955D01*
Y536645D01*
X562743D01*
X563166D01*
X564643Y532914D02*
X565066D01*
X564855D01*
Y531645D01*
X564643D01*
X565066D01*
X564643Y534414D02*
X565066D01*
X564855D01*
Y533145D01*
X564643D01*
X565066D01*
X566443Y530815D02*
X566866D01*
X566655D01*
Y529545D01*
X566443D01*
X566866D01*
X568043Y530815D02*
X568466D01*
X568255D01*
Y529545D01*
X568043D01*
X568466D01*
X545143Y553615D02*
X545566D01*
X545355D01*
Y552345D01*
X545143D01*
X545566D01*
X542443Y557215D02*
X542866D01*
X542655D01*
Y555945D01*
X542443D01*
X542866D01*
X544243Y554815D02*
X544666D01*
X544455D01*
Y553545D01*
X544243D01*
X544666D01*
X546943Y551215D02*
X547366D01*
X547155D01*
Y549945D01*
X546943D01*
X547366D01*
X547843Y550015D02*
X548266D01*
X548055D01*
Y548745D01*
X547843D01*
X548266D01*
X552343Y544015D02*
X552766D01*
X552555D01*
Y542745D01*
X552343D01*
X552766D01*
X553243Y542815D02*
X553666D01*
X553455D01*
Y541545D01*
X553243D01*
X553666D01*
X548743Y548815D02*
X549166D01*
X548955D01*
Y547545D01*
X548743D01*
X549166D01*
X549643Y547615D02*
X550066D01*
X549855D01*
Y546345D01*
X549643D01*
X550066D01*
X550543Y546414D02*
X550966D01*
X550755D01*
Y545145D01*
X550543D01*
X550966D01*
X555943Y539215D02*
X556366D01*
X556155D01*
Y537945D01*
X555943D01*
X556366D01*
X555043Y540414D02*
X555466D01*
X555255D01*
Y539145D01*
X555043D01*
X555466D01*
X543343Y556015D02*
X543766D01*
X543555D01*
Y554745D01*
X543343D01*
X543766D01*
X551443Y545215D02*
X551866D01*
X551655D01*
Y543945D01*
X551443D01*
X551866D01*
X554143Y541615D02*
X554566D01*
X554355D01*
Y540345D01*
X554143D01*
X554566D01*
X546043Y552414D02*
X546466D01*
X546255D01*
Y551145D01*
X546043D01*
X546466D01*
X548743Y561315D02*
X549166D01*
X548955D01*
Y560045D01*
X548743D01*
X549166D01*
X557743Y536815D02*
X558166D01*
X557955D01*
Y535545D01*
X557743D01*
X558166D01*
X569368Y557265D02*
X569791D01*
X569580D01*
Y555995D01*
X569368D01*
X569791D01*
X569368Y559090D02*
X569791D01*
X569580D01*
Y557820D01*
X569368D01*
X569791D01*
X540843Y533015D02*
X541266D01*
X541055D01*
Y531745D01*
X540843D01*
X541266D01*
X569443Y543315D02*
X569866D01*
X569655D01*
Y542045D01*
X569443D01*
X569866D01*
X569443Y539715D02*
X569866D01*
X569655D01*
Y538445D01*
X569443D01*
X569866D01*
X521243Y582315D02*
X521666D01*
X521455D01*
Y581045D01*
X521243D01*
X521666D01*
X552193Y584765D02*
X552616D01*
X552405D01*
Y583495D01*
X552193D01*
X552616D01*
X544843Y585015D02*
X545266D01*
X545055D01*
Y583745D01*
X544843D01*
X545266D01*
X569443Y572115D02*
X569866D01*
X569655D01*
Y570845D01*
X569443D01*
X569866D01*
X539043Y581615D02*
X539466D01*
X539255D01*
Y580345D01*
X539043D01*
X539466D01*
X528143Y569315D02*
X528566D01*
X528355D01*
Y568045D01*
X528143D01*
X528566D01*
X563943Y570515D02*
X564366D01*
X564155D01*
Y569245D01*
X563943D01*
X564366D01*
X555543Y566914D02*
X555966D01*
X555755D01*
Y565645D01*
X555543D01*
X555966D01*
X556943Y567515D02*
X557366D01*
X557155D01*
Y566245D01*
X556943D01*
X557366D01*
X558343Y568115D02*
X558766D01*
X558555D01*
Y566845D01*
X558343D01*
X558766D01*
X559743Y568715D02*
X560166D01*
X559955D01*
Y567445D01*
X559743D01*
X560166D01*
X561143Y569315D02*
X561566D01*
X561355D01*
Y568045D01*
X561143D01*
X561566D01*
X562543Y569914D02*
X562966D01*
X562755D01*
Y568645D01*
X562543D01*
X562966D01*
X565643Y578015D02*
X566066D01*
X565855D01*
Y576745D01*
X565643D01*
X566066D01*
X514543Y560815D02*
X514966D01*
X514755D01*
Y559545D01*
X514543D01*
X514966D01*
X514543Y563315D02*
X514966D01*
X514755D01*
Y562045D01*
X514543D01*
X514966D01*
X514543Y558315D02*
X514966D01*
X514755D01*
Y557045D01*
X514543D01*
X514966D01*
X514543Y555815D02*
X514966D01*
X514755D01*
Y554545D01*
X514543D01*
X514966D01*
X536543Y576015D02*
X536966D01*
X536755D01*
Y574745D01*
X536543D01*
X536966D01*
X535043Y576015D02*
X535466D01*
X535255D01*
Y574745D01*
X535043D01*
X535466D01*
X528243Y574815D02*
X528666D01*
X528455D01*
Y573545D01*
X528243D01*
X528666D01*
X534143Y567215D02*
X534566D01*
X534355D01*
Y565945D01*
X534143D01*
X534566D01*
X528143Y571315D02*
X528566D01*
X528355D01*
Y570045D01*
X528143D01*
X528566D01*
X529343Y572315D02*
X529766D01*
X529555D01*
Y571045D01*
X529343D01*
X529766D01*
X531343Y568315D02*
X531766D01*
X531555D01*
Y567045D01*
X531343D01*
X531766D01*
X538643Y566515D02*
X539066D01*
X538855D01*
Y565245D01*
X538643D01*
X539066D01*
X537943Y580414D02*
X538366D01*
X538155D01*
Y579145D01*
X537943D01*
X538366D01*
X514543Y545815D02*
X514966D01*
X514755D01*
Y544545D01*
X514543D01*
X514966D01*
X514543Y543315D02*
X514966D01*
X514755D01*
Y542045D01*
X514543D01*
X514966D01*
X506943Y549515D02*
X507366D01*
X507155D01*
Y548245D01*
X506943D01*
X507366D01*
X532843Y558715D02*
X533266D01*
X533055D01*
Y557445D01*
X532843D01*
X533266D01*
X535343Y559615D02*
X535766D01*
X535555D01*
Y558345D01*
X535343D01*
X535766D01*
X530543Y558715D02*
X530966D01*
X530755D01*
Y557445D01*
X530543D01*
X530966D01*
X516443Y585315D02*
X516866D01*
X516655D01*
Y584045D01*
X516443D01*
X516866D01*
X517943Y585414D02*
X518366D01*
X518155D01*
Y584145D01*
X517943D01*
X518366D01*
X519443Y585515D02*
X519866D01*
X519655D01*
Y584245D01*
X519443D01*
X519866D01*
X520943Y585515D02*
X521366D01*
X521155D01*
Y584245D01*
X520943D01*
X521366D01*
X522443Y585515D02*
X522866D01*
X522655D01*
Y584245D01*
X522443D01*
X522866D01*
X568090Y563015D02*
X567666D01*
X567878D01*
Y561957D01*
X567666Y561745D01*
X567455D01*
X567243Y561957D01*
X548943Y575015D02*
X549366D01*
X549155D01*
Y573745D01*
X548943D01*
X549366D01*
X570693Y573515D02*
X571116D01*
X570905D01*
Y572245D01*
X570693D01*
X571116D01*
X515743Y574515D02*
X516166D01*
X515955D01*
Y573245D01*
X515743D01*
X516166D01*
X515743Y534515D02*
X516166D01*
X515955D01*
Y533245D01*
X515743D01*
X516166D01*
X515743Y537015D02*
X516166D01*
X515955D01*
Y535745D01*
X515743D01*
X516166D01*
X515743Y539515D02*
X516166D01*
X515955D01*
Y538245D01*
X515743D01*
X516166D01*
X515743Y542015D02*
X516166D01*
X515955D01*
Y540745D01*
X515743D01*
X516166D01*
X515743Y544515D02*
X516166D01*
X515955D01*
Y543245D01*
X515743D01*
X516166D01*
X515743Y547015D02*
X516166D01*
X515955D01*
Y545745D01*
X515743D01*
X516166D01*
X515743Y549515D02*
X516166D01*
X515955D01*
Y548245D01*
X515743D01*
X516166D01*
X515743Y552015D02*
X516166D01*
X515955D01*
Y550745D01*
X515743D01*
X516166D01*
X515743Y554515D02*
X516166D01*
X515955D01*
Y553245D01*
X515743D01*
X516166D01*
X515743Y557015D02*
X516166D01*
X515955D01*
Y555745D01*
X515743D01*
X516166D01*
X515743Y559515D02*
X516166D01*
X515955D01*
Y558245D01*
X515743D01*
X516166D01*
X515743Y562015D02*
X516166D01*
X515955D01*
Y560745D01*
X515743D01*
X516166D01*
X515743Y564515D02*
X516166D01*
X515955D01*
Y563245D01*
X515743D01*
X516166D01*
X515743Y567015D02*
X516166D01*
X515955D01*
Y565745D01*
X515743D01*
X516166D01*
X515743Y569515D02*
X516166D01*
X515955D01*
Y568245D01*
X515743D01*
X516166D01*
X515743Y572015D02*
X516166D01*
X515955D01*
Y570745D01*
X515743D01*
X516166D01*
X572590Y570015D02*
X572166D01*
X572378D01*
Y568957D01*
X572166Y568745D01*
X571955D01*
X571743Y568957D01*
X569443Y570115D02*
X569866D01*
X569655D01*
Y568845D01*
X569443D01*
X569866D01*
X569443Y552414D02*
X569866D01*
X569655D01*
Y551145D01*
X569443D01*
X569866D01*
X569443Y545015D02*
X569866D01*
X569655D01*
Y543745D01*
X569443D01*
X569866D01*
X520443Y569414D02*
X520866D01*
X520655D01*
Y568145D01*
X520443D01*
X520866D01*
X572590Y555015D02*
X572166D01*
X572378D01*
Y553957D01*
X572166Y553745D01*
X571955D01*
X571743Y553957D01*
X552143Y575615D02*
X552566D01*
X552355D01*
Y574345D01*
X552143D01*
X552566D01*
M02*
