G04 CAM Products 2000  RS274-X Output*
G04 Serial Number: 0000-00-00000*
G04 File Name:FULLMONI.GBS *
%FSLAX34Y34*%
%MOIN*%
%SFA1B1*%

%IPPOS*%
%ADD10C,0.019600*%
%ADD11C,0.011800*%
%ADD12C,0.007800*%
%ADD13R,0.043300X0.063000*%
%ADD14R,0.063000X0.043300*%
%ADD15R,0.070800X0.019600*%
%ADD16R,0.031500X0.047200*%
%ADD17R,0.055100X0.039300*%
%ADD18R,0.063000X0.011800*%
%ADD19R,0.059000X0.114100*%
%ADD20R,0.059000X0.114100*%
%ADD21R,0.039300X0.017700*%
%ADD22R,0.043300X0.027500*%
%ADD23R,0.048000X0.024400*%
%ADD24R,0.015700X0.090500*%
%ADD25R,0.047200X0.008600*%
%ADD26R,0.023600X0.061000*%
%ADD27R,0.055100X0.035400*%
%ADD28R,0.089300X0.021600*%
%ADD29R,0.114100X0.059000*%
%ADD30R,0.013700X0.063000*%
%ADD31R,0.114100X0.059000*%
%ADD32R,0.102300X0.102300*%
%ADD33R,0.019600X0.086600*%
%ADD34R,0.047200X0.070800*%
%ADD35R,0.127900X0.027500*%
%ADD36R,0.013700X0.070800*%
%ADD37R,0.019600X0.066900*%
%ADD38R,0.019600X0.066900*%
%ADD39R,0.078700X0.019600*%
%ADD40R,0.090500X0.015700*%
%ADD41R,0.007800X0.063000*%
%ADD42R,0.063000X0.007800*%
%ADD43C,0.039300*%
%ADD44O,0.007800X0.015700*%
%ADD45O,0.015700X0.007800*%
%ADD46R,0.039300X0.015700*%
%ADD47R,0.027500X0.043300*%
%ADD48R,0.070800X0.031500*%
%ADD49R,0.070800X0.047200*%
%ADD50R,0.086600X0.098400*%
%ADD51R,0.032400X0.078700*%
%ADD52C,0.011800*%
%ADD53C,0.007800*%
%ADD54C,0.015700*%
%ADD55C,0.059000*%
%ADD56C,0.039300*%
%ADD57C,0.010000*%
%ADD58C,0.078700*%
%ADD59C,0.063000*%
%ADD60C,0.059000*%
%ADD61O,0.098400X0.070800*%
%ADD62O,0.070800X0.098400*%
%ADD63C,0.050000*%
%ADD64C,0.125900*%
%ADD65R,0.098400X0.118100*%
%ADD66C,0.070800*%
%ADD67C,0.051100*%
%ADD68R,0.070800X0.070800*%
%ADD69R,0.051100X0.070800*%
%ADD70R,0.070800X0.051100*%
%ADD71R,0.078700X0.027500*%
%ADD72R,0.039300X0.055100*%
%ADD73R,0.063000X0.047200*%
%ADD74R,0.066900X0.122000*%
%ADD75R,0.066900X0.122000*%
%ADD76R,0.047200X0.025600*%
%ADD77R,0.051100X0.035400*%
%ADD78R,0.055900X0.032200*%
%ADD79R,0.023600X0.098400*%
%ADD80R,0.055100X0.016500*%
%ADD81R,0.031500X0.068900*%
%ADD82R,0.097200X0.029500*%
%ADD83R,0.122000X0.066900*%
%ADD84R,0.021600X0.070800*%
%ADD85R,0.122000X0.066900*%
%ADD86R,0.110200X0.110200*%
%ADD87R,0.027500X0.094400*%
%ADD88R,0.055100X0.078700*%
%ADD89R,0.135800X0.035400*%
%ADD90R,0.021600X0.078700*%
%ADD91R,0.027500X0.074800*%
%ADD92R,0.027500X0.074800*%
%ADD93R,0.086600X0.027500*%
%ADD94R,0.098400X0.023600*%
%ADD95R,0.015700X0.070800*%
%ADD96R,0.070800X0.015700*%
%ADD97C,0.047200*%
%ADD98O,0.015700X0.023600*%
%ADD99O,0.023600X0.015700*%
%ADD100R,0.047200X0.023600*%
%ADD101R,0.035400X0.051100*%
%ADD102R,0.078700X0.039300*%
%ADD103R,0.078700X0.055100*%
%ADD104R,0.094400X0.106300*%
%ADD105R,0.040300X0.086600*%
%ADD106C,0.086600*%
%ADD107C,0.066900*%
%ADD108O,0.106300X0.078700*%
%ADD109O,0.078700X0.106300*%
%ADD110C,0.057800*%
%ADD111C,0.133800*%
%ADD112R,0.106300X0.125900*%
%ADD113C,0.078700*%
%ADD114C,0.027500*%
%ADD115C,0.019600*%
%ADD116R,0.659400X0.039300*%
%ADD117R,0.659400X0.039300*%
%LNFULLMONI-1*%
%LPD*%
G54D10*
X183638Y226365D02*
X183647Y226264D01*
X183673Y226166*
X183716Y226075*
X183774Y225992*
X183845Y225921*
X183928Y225862*
X184020Y225820*
X184117Y225794*
X184218Y225785*
X183244Y226260D02*
X183252Y226155D01*
X183277Y226052*
X183317Y225955*
X183372Y225865*
X183441Y225785*
X182462Y225986D02*
X182522Y225917D01*
X182593Y225861*
X182673Y225819*
X182760Y225794*
X182850Y225785*
X181768D02*
X181866Y225811D01*
X181938Y225883*
X181964Y225982*
X183638Y226365D02*
Y226572D01*
X184425D01*
X183244Y226260D02*
Y226572D01*
X182850Y225785D02*
Y226572D01*
X181472D02*
X182260D01*
X181472Y226179D02*
X182260D01*
X181964Y225982D02*
Y226572D01*
X181472Y225785D02*
X181768D01*
X180488Y226572D02*
X181079D01*
X180390Y225785D02*
X181177D01*
X225961Y231395D02*
X227733D01*
Y229624D02*
Y231395D01*
Y205411D02*
Y207183D01*
X225961Y205411D02*
X227733D01*
X176552D02*
Y207183D01*
Y205411D02*
X178324D01*
X176552Y231395D02*
X178324D01*
X176552Y229624D02*
Y231395D01*
G54D43*
X225095Y218009D03*
Y223915D03*
X223324Y221159D03*
X221788Y222379D03*
G54D52*
X219859Y226891D02*
X221237D01*
Y225490D02*
Y228293D01*
X218875Y225490D02*
Y228293D01*
Y225490D02*
X221237D01*
X219859D02*
Y228293D01*
X218875D02*
X221237D01*
X185292Y224168D02*
X184786D01*
X184612Y224196D02*
X184359D01*
X184274Y224224*
X184246Y224252*
X184218Y224309*
Y224393*
X184246Y224449*
X184274Y224477*
X184359Y224505*
X184612*
Y223915*
X184086Y224309D02*
Y223915D01*
Y224140D02*
X184058Y224224D01*
X184001Y224280*
X183945Y224309*
X183861*
X183470D02*
Y223915D01*
Y224224D02*
X183526Y224280D01*
X183583Y224309*
X183667*
X183723Y224280*
X183779Y224224*
X183808Y224140*
Y224083*
X183779Y223999*
X183723Y223943*
X183667Y223915*
X183583*
X183526Y223943*
X183470Y223999*
X183285Y224309D02*
X183116Y223915D01*
X182947Y224309D02*
X183116Y223915D01*
X183172Y223802*
X183228Y223746*
X183285Y223718*
X183313*
X182160Y224505D02*
X182216D01*
X182272Y224477*
X182301Y224393*
Y223915*
X182385Y224309D02*
X182188D01*
X181935D02*
X181991Y224280D01*
X182048Y224224*
X182075Y224140*
Y224083*
X182048Y223999*
X181991Y223943*
X181935Y223915*
X181851*
X181794Y223943*
X181738Y223999*
X181710Y224083*
Y224140*
X181738Y224224*
X181794Y224280*
X181851Y224309*
X181935*
X181581D02*
Y223915D01*
Y224140D02*
X181553Y224224D01*
X181496Y224280*
X181440Y224309*
X181356*
X180642Y224505D02*
Y223915D01*
X180838Y224505D02*
X180445D01*
X180234Y224309D02*
X180290Y224280D01*
X180347Y224224*
X180375Y224140*
Y224083*
X180347Y223999*
X180290Y223943*
X180234Y223915*
X180150*
X180094Y223943*
X180037Y223999*
X180009Y224083*
Y224140*
X180037Y224224*
X180094Y224280*
X180150Y224309*
X180234*
X179880Y224505D02*
Y223915D01*
Y224196D02*
X179796Y224280D01*
X179739Y224309*
X179655*
X179599Y224280*
X179571Y224196*
Y223915*
X179275Y224309D02*
X179332Y224280D01*
X179388Y224224*
X179416Y224140*
Y224083*
X179388Y223999*
X179332Y223943*
X179275Y223915*
X179191*
X179135Y223943*
X179079Y223999*
X179050Y224083*
Y224140*
X179079Y224224*
X179135Y224280*
X179191Y224309*
X179275*
X178921Y224505D02*
Y223915D01*
X178640Y224309D02*
X178921Y224027D01*
X178809Y224140D02*
X178612Y223915D01*
X178519Y224309D02*
Y224027D01*
X178491Y223943*
X178435Y223915*
X178350*
X178294Y223943*
X178210Y224027*
Y224309D02*
Y223915D01*
X178055Y224168D02*
X177549D01*
G54D53*
X225961Y216068D02*
X225904Y216150D01*
X225841Y216227*
X225771Y216298*
X225695Y216363*
X225614Y216422*
X225528Y216473*
X225438Y216516*
X225345Y216552*
X225249Y216579*
X225151Y216599*
X225051Y216609*
X224951Y216611*
X224852Y216605*
X224753Y216590*
X224656Y216566*
X224561Y216535*
X224470Y216495*
X224382Y216448*
X224298Y216392*
X224220Y216331*
X224147Y216262*
X224080Y216188*
X224020Y216108*
X223967Y216024*
X223922Y215935*
X223884Y215842*
X223854Y215747*
X223833Y215649*
X223820Y215550*
X223816Y215450*
X223820Y215350*
X223833Y215251*
X223854Y215154*
X223884Y215059*
X223922Y214966*
X223967Y214877*
X224020Y214792*
X224080Y214712*
X224147Y214638*
X224220Y214570*
X224298Y214508*
X224382Y214453*
X224470Y214405*
X224561Y214366*
X224656Y214334*
X224753Y214311*
X224852Y214296*
X224951Y214289*
X225051Y214291*
X225151Y214302*
X225249Y214321*
X225345Y214349*
X225438Y214384*
X225528Y214428*
X225614Y214479*
X225695Y214537*
X225771Y214602*
X225841Y214674*
X225904Y214751*
X225961Y214833*
Y221973D02*
X225904Y222055D01*
X225841Y222132*
X225771Y222204*
X225695Y222269*
X225614Y222327*
X225528Y222378*
X225438Y222422*
X225345Y222457*
X225249Y222485*
X225151Y222504*
X225051Y222515*
X224951Y222517*
X224852Y222511*
X224753Y222496*
X224656Y222472*
X224561Y222440*
X224470Y222400*
X224382Y222353*
X224298Y222298*
X224220Y222236*
X224147Y222168*
X224080Y222094*
X224020Y222014*
X223967Y221929*
X223922Y221840*
X223884Y221748*
X223854Y221652*
X223833Y221555*
X223820Y221455*
X223816Y221356*
X223820Y221256*
X223833Y221157*
X223854Y221059*
X223884Y220964*
X223922Y220872*
X223967Y220783*
X224020Y220698*
X224080Y220618*
X224147Y220544*
X224220Y220475*
X224298Y220413*
X224382Y220359*
X224470Y220311*
X224561Y220272*
X224656Y220240*
X224753Y220216*
X224852Y220201*
X224951Y220195*
X225051Y220197*
X225151Y220207*
X225249Y220227*
X225345Y220254*
X225438Y220290*
X225528Y220333*
X225614Y220385*
X225695Y220443*
X225771Y220508*
X225841Y220579*
X225904Y220656*
X225961Y220738*
X225961Y214840D02*
Y216061D01*
Y220746D02*
Y221966D01*
X219662Y227899D02*
X219072D01*
X219268Y227702*
X219072Y227505*
X219662*
X219072Y227014D02*
Y227210D01*
X219170Y227309*
X219564*
X219662Y227210*
Y227014*
X219564Y226915*
X219170*
X219072Y227014*
Y226718D02*
X219662D01*
Y226423*
X219564Y226325*
X219170*
X219072Y226423*
Y226718*
Y225735D02*
Y226128D01*
X219662*
Y225735*
X219367Y226128D02*
Y225931D01*
X184399Y225647D02*
Y225253D01*
X184596*
X184661Y225319*
Y225450*
X184596Y225516*
X184399*
X184071Y225253D02*
X184202D01*
X184268Y225319*
Y225450*
X184202Y225516*
X184071*
X184005Y225450*
Y225385*
X184268*
X183874Y225253D02*
X183677D01*
X183612Y225319*
X183677Y225385*
X183809*
X183874Y225450*
X183809Y225516*
X183612*
X183481Y225253D02*
X183350D01*
X183415*
Y225516*
X183481*
X183022Y225122D02*
X182956D01*
X182890Y225188*
Y225516*
X183087*
X183153Y225450*
Y225319*
X183087Y225253*
X182890*
X182759D02*
Y225516D01*
X182562*
X182497Y225450*
Y225253*
X182169D02*
X182300D01*
X182366Y225319*
Y225450*
X182300Y225516*
X182169*
X182103Y225450*
Y225385*
X182366*
X181710Y225647D02*
Y225253D01*
X181907*
X181972Y225319*
Y225450*
X181907Y225516*
X181710*
X181295Y225647D02*
Y225253D01*
X181099*
X181033Y225319*
Y225385*
Y225450*
X181099Y225516*
X181295*
X180902D02*
Y225319D01*
X180836Y225253*
X180639*
Y225188*
X180705Y225122*
X180770*
X180639Y225253D02*
Y225516D01*
X180029Y226277D02*
X180291D01*
X180029Y226539*
Y226605*
X180095Y226671*
X180226*
X180291Y226605*
X179898D02*
X179832Y226671D01*
X179701*
X179635Y226605*
Y226343*
X179701Y226277*
X179832*
X179898Y226343*
Y226605*
X179504Y226277D02*
X179373D01*
X179438*
Y226671*
X179504Y226605*
X179176D02*
X179111Y226671D01*
X178979*
X178914Y226605*
Y226539*
X178979Y226474*
X179045*
X178979*
X178914Y226408*
Y226343*
X178979Y226277*
X179111*
X179176Y226343*
X178783Y226605D02*
X178717Y226671D01*
X178586*
X178520Y226605*
Y226343*
X178586Y226277*
X178717*
X178783Y226343*
Y226605*
X178389D02*
X178324Y226671D01*
X178192*
X178127Y226605*
Y226539*
X178192Y226474*
X178258*
X178192*
X178127Y226408*
Y226343*
X178192Y226277*
X178324*
X178389Y226343*
X180075Y225988D02*
Y225726D01*
Y225857*
X180009Y225923*
X179944Y225988*
X179878*
X179485Y225726D02*
X179616D01*
X179681Y225792*
Y225923*
X179616Y225988*
X179485*
X179419Y225923*
Y225857*
X179681*
X179288Y225988D02*
X179157Y225726D01*
X179025Y225988*
X178894Y225923D02*
X178632D01*
X178238Y226054D02*
X178304Y226120D01*
X178435*
X178501Y226054*
Y225792*
X178435Y225726*
X178304*
X178238Y225792*
X180285Y225581D02*
Y225516D01*
X180350*
X180219*
X180285*
Y225319*
X180219Y225253*
X179957D02*
X179825D01*
X179760Y225319*
Y225450*
X179825Y225516*
X179957*
X180022Y225450*
Y225319*
X179957Y225253*
X179629D02*
Y225516D01*
X179563*
X179498Y225450*
Y225253*
Y225450*
X179432Y225516*
X179366Y225450*
Y225253*
X179170D02*
X179038D01*
X178973Y225319*
Y225450*
X179038Y225516*
X179170*
X179235Y225450*
Y225319*
X179170Y225253*
X178842Y225516D02*
Y225319D01*
X178776Y225253*
X178579*
Y225188*
X178645Y225122*
X178711*
X178579Y225253D02*
Y225516D01*
X178383D02*
X178251D01*
X178186Y225450*
Y225253*
X178383*
X178448Y225319*
X178383Y225385*
X178186*
G54D54*
X187733Y230411D02*
Y230923D01*
Y229624D02*
Y230135D01*
Y228836D02*
Y229348D01*
Y228049D02*
Y228561D01*
Y227261D02*
Y227773D01*
Y226474D02*
Y226986D01*
Y225687D02*
Y226198D01*
Y224899D02*
Y225411D01*
Y224112D02*
Y224624D01*
Y223324D02*
Y223836D01*
Y222537D02*
Y223049D01*
Y221750D02*
Y222261D01*
Y220962D02*
Y221474D01*
Y220175D02*
Y220687D01*
Y219387D02*
Y219899D01*
Y218600D02*
Y219112D01*
Y217812D02*
Y218324D01*
Y217025D02*
Y217537D01*
Y216238D02*
Y216750D01*
Y215450D02*
Y215962D01*
Y214663D02*
Y215175D01*
Y213875D02*
Y214387D01*
Y212301D02*
Y212812D01*
Y211513D02*
Y212025D01*
Y210726D02*
Y211238D01*
Y209938D02*
Y210450D01*
Y209151D02*
Y209663D01*
Y208364D02*
Y208875D01*
Y207576D02*
Y208088D01*
Y206789D02*
Y207301D01*
Y205935D02*
Y206513D01*
Y205935D02*
X188312D01*
X188587D02*
X189099D01*
X189375D02*
X189887D01*
X190162D02*
X190674D01*
X218493Y230411D02*
Y230923D01*
Y229624D02*
Y230135D01*
Y228836D02*
Y229348D01*
Y228049D02*
Y228561D01*
Y227261D02*
Y227773D01*
Y226474D02*
Y226986D01*
Y225687D02*
Y226198D01*
Y220962D02*
Y221474D01*
Y220175D02*
Y220687D01*
Y219387D02*
Y219899D01*
Y210726D02*
Y211238D01*
Y209938D02*
Y210450D01*
Y209151D02*
Y209663D01*
Y208364D02*
Y208875D01*
Y207576D02*
Y208088D01*
Y206789D02*
Y207301D01*
Y205935D02*
Y206513D01*
X217914Y205935D02*
X218493D01*
X217127D02*
X217638D01*
X216339D02*
X216851D01*
X215552D02*
X216064D01*
X214764D02*
X215276D01*
X213977D02*
X214489D01*
X213190D02*
X213701D01*
X212402D02*
X212914D01*
X211615D02*
X212127D01*
X210827D02*
X211339D01*
X210040D02*
X210552D01*
X220843Y228096D02*
Y227112D01*
Y228096D02*
X220187Y227112D01*
Y228096D02*
Y227112D01*
X221040Y226678D02*
X220806Y225694D01*
X220572Y226678D02*
X220806Y225694D01*
X220572Y226678D02*
X220337Y225694D01*
X220103Y226678D02*
X220337Y225694D01*
G54D66*
X224477Y221356D03*
X225477D03*
X224477Y215450D03*
X225477D03*
G54D106*
X222615Y206592D03*
Y230214D03*
X184820D03*
Y206592D03*
G54D107*
X210016Y206592D03*
Y207852D03*
X191591Y206198D03*
X192221D03*
X193363D03*
X193973D03*
G54D108*
X179898Y213482D03*
Y214466D03*
Y215450D03*
Y216435D03*
Y217419D03*
Y212498D03*
Y210529D03*
Y209545D03*
Y219387D03*
Y220372D03*
Y221356D03*
Y222340D03*
G54D109*
X197024Y229624D03*
X198009D03*
G54D110*
X185410Y212458D03*
G54D111*
X183816Y213482D03*
X187005D03*
G54D112*
X181670Y209938D03*
X188757D03*
X184623D03*
X185804D03*
G54D113*
X221827Y227647D03*
Y225647D03*
Y226647D03*
G54D114*
X217379Y226120D03*
X204898Y223679D03*
X224190Y214072D03*
Y216986D03*
Y223954D03*
X203048Y224702D03*
Y223718D03*
Y222734D03*
Y221750D03*
Y220765D03*
Y219781D03*
Y218797D03*
Y217812D03*
Y216828D03*
Y215844D03*
Y214860D03*
Y213875D03*
Y212891D03*
Y211907D03*
Y210923D03*
Y209938D03*
Y225687D03*
X224682Y225293D03*
X216119Y225883D03*
X205686Y230017D03*
X205095D03*
X204505D03*
X203914Y229978D03*
X203324Y229938D03*
X208875Y219466D03*
X210764Y219820D03*
X209780Y219466D03*
X199583Y215844D03*
X202575Y213403D03*
Y214387D03*
X211788Y228009D03*
X212064Y222537D03*
X209190Y223246D03*
X208402Y224820D03*
X207930Y224427D03*
X210292Y222812D03*
X207969Y225805D03*
X210646Y226277D03*
X211237D03*
X202575Y218324D03*
Y219309D03*
Y221277D03*
Y220293D03*
X222694Y227064D03*
X221473Y223875D03*
X220922Y223639D03*
X220371Y223403D03*
X219820Y223167D03*
X219268Y222931D03*
X218717Y222694D03*
X222024Y224112D03*
X207930Y223639D03*
X212221Y228482D03*
X224190Y224742D03*
X214505Y229820D03*
X217398Y229722D03*
X205213Y228757D03*
X224190Y211986D03*
Y213403D03*
X212930Y209348D03*
X224160Y219614D03*
Y218895D03*
X219583Y210844D03*
X216040Y220490D03*
X214977Y216986D03*
X218166Y212734D03*
X217103Y214151D03*
X213914Y218403D03*
X218520Y212261D03*
X218875Y211789D03*
X216749Y214624D03*
X216394Y215096D03*
X216040Y215568D03*
X217812Y213206D03*
X217457Y213679D03*
X215686Y216041D03*
X215331Y216513D03*
X214268Y217931D03*
X213560Y218875D03*
X214623Y217458D03*
X223638Y208482D03*
X223009D03*
X222300Y209899D03*
Y209309D03*
X221552Y211277D03*
X222024Y211671D03*
X221552Y212104D03*
X222024Y212498D03*
X221552Y212891D03*
X222024Y213285D03*
X221552Y213679D03*
X222024Y214072D03*
X221552Y214466D03*
X222024Y214860D03*
X221552Y215253D03*
X222024Y215647D03*
X221552Y216041D03*
X222024Y216435D03*
X221552Y216828D03*
X222024Y217222D03*
X221552Y217616D03*
X206946Y217458D03*
X200371Y206592D03*
X199780D03*
Y207183D03*
X200371D03*
X202733Y229624D03*
X202575Y226198D03*
Y225214D03*
Y224230D03*
Y223246D03*
Y217340D03*
Y216356D03*
Y215372D03*
Y212419D03*
Y211435D03*
X214544Y210844D03*
X213166Y210450D03*
X207457Y211474D03*
X213127Y214309D03*
X190922Y230411D03*
Y229033D03*
X186001Y228836D03*
X198796Y208954D03*
X198205Y208364D03*
X197221D03*
Y208954D03*
X196631D03*
Y208364D03*
X197379Y227261D03*
X199387D03*
X190528Y228098D03*
Y227350D03*
X194613Y222655D03*
X192103Y225293D03*
Y226041D03*
X194859Y218403D03*
X192536Y218679D03*
X194111Y220765D03*
X192103D03*
X192300Y223324D03*
Y222576D03*
X192890Y217104D03*
X187182Y217812D03*
X186001Y219860D03*
Y220608D03*
X185213Y217655D03*
X195450Y224838D03*
X196237Y223324D03*
X197261Y215803D03*
X208166Y216001D03*
X210253D03*
X208127Y209466D03*
X210213D03*
X208914Y217458D03*
X207930D03*
Y222773D03*
X204820Y221750D03*
X210961Y217458D03*
X211867D03*
X202575Y222261D03*
X215450Y220490D03*
X213953Y227458D03*
X215450Y227616D03*
X204997Y227655D03*
X202575Y209466D03*
Y210450D03*
X203048Y226671D03*
X216119Y225194D03*
Y224466D03*
X214623Y223639D03*
X222575Y224348D03*
X218166Y222458D03*
X205883Y225017D03*
X207930Y225214D03*
X209308Y221868D03*
X209347Y222655D03*
X211670Y224702D03*
X208796Y225962D03*
X209741Y226120D03*
X211827Y226277D03*
X210174Y225647D03*
X209072Y225372D03*
X210135Y224702D03*
X211631Y223994D03*
X211512Y221986D03*
X211040Y223875D03*
X209544Y224702D03*
X208402Y224033D03*
X210450Y223757D03*
X211079Y224702D03*
X212339Y223127D03*
X211749Y223049D03*
X212772Y221474D03*
X202575Y227576D03*
Y228246D03*
X213127Y214899D03*
X210371Y217458D03*
X208481Y225450D03*
X205725Y226120D03*
X181079Y223521D03*
X198796Y208364D03*
X198205Y208954D03*
X215016Y209348D03*
X189150Y221750D03*
X211788Y229978D03*
X185213Y215096D03*
X184426Y222064D03*
G54D115*
X182850Y225785D03*
G54D116*
X181423Y226966D03*
G54D117*
X181423Y224899D03*
M02*